<svg xmlns="http://www.w3.org/2000/svg" viewBox="0 0 521.24 224.55"><defs><style>.cls-1{fill:#f2f2f2;}.cls-2{fill:#0b2e43;}</style></defs><title>demo_day_block</title><g id="圖層_2" data-name="圖層 2"><g id="圖層_2-2" data-name="圖層 2"><path class="cls-1" d="M.9,86.89V83.58l3-2.69C9,76.29,11.49,73.67,11.52,71c0-1.91-1.11-3.42-3.8-3.42a8.66,8.66,0,0,0-5,1.91L1.18,65.56A12.82,12.82,0,0,1,8.8,63.15c5.31,0,8.18,3.09,8.18,7.33,0,3.91-2.8,7-6.21,10l-2.15,1.8v.07h8.83v4.49Z"/><path class="cls-1" d="M29.19,87.28c-6,0-8.69-5.42-8.72-12,0-6.78,2.83-12.1,8.86-12.1,6.22,0,8.69,5.57,8.69,12,0,7.18-2.91,12.17-8.79,12.17Zm.11-4.13c2.12,0,3.27-2.65,3.27-8s-1.12-7.9-3.31-7.9-3.34,2.62-3.34,7.9,1.26,8,3.34,8Z"/><path class="cls-1" d="M40.75,86.89V83.58l3-2.69c5.14-4.6,7.61-7.22,7.65-9.94,0-1.91-1.11-3.42-3.81-3.42a8.66,8.66,0,0,0-5,1.91L41,65.56a12.79,12.79,0,0,1,7.61-2.41c5.31,0,8.19,3.09,8.19,7.33,0,3.91-2.8,7-6.21,10l-2.16,1.8v.07H57.3v4.49Z"/><path class="cls-1" d="M69.05,87.28c-6,0-8.69-5.42-8.73-12,0-6.78,2.84-12.1,8.87-12.1,6.21,0,8.69,5.57,8.69,12,0,7.18-2.91,12.17-8.8,12.17Zm.1-4.13c2.12,0,3.27-2.65,3.27-8s-1.11-7.9-3.3-7.9-3.34,2.62-3.34,7.9,1.26,8,3.34,8Z"/><polygon class="cls-1" points="79.64 88.32 87.32 62.29 90.95 62.29 83.26 88.32 79.64 88.32"/><path class="cls-1" d="M100.86,87.28c-6,0-8.69-5.42-8.73-12,0-6.78,2.84-12.1,8.87-12.1,6.21,0,8.69,5.57,8.69,12,0,7.18-2.91,12.17-8.8,12.17Zm.11-4.13c2.11,0,3.26-2.65,3.26-8s-1.11-7.9-3.3-7.9-3.34,2.62-3.34,7.9,1.26,8,3.34,8Z"/><path class="cls-1" d="M127.28,67.43a14.52,14.52,0,0,0-2.11.07c-4.85.36-7,2.87-7.62,5.56h.11a6.75,6.75,0,0,1,5-1.83c3.91,0,7.21,2.77,7.21,7.61a8.34,8.34,0,0,1-8.58,8.44c-6.24,0-9.3-4.63-9.3-10.2a14,14,0,0,1,4.17-10.41,13.85,13.85,0,0,1,9-3.41,10.87,10.87,0,0,1,2.19,0Zm-6.1,15.83c1.9,0,3.12-1.76,3.12-4.13,0-2.15-1.14-4-3.48-4a3.49,3.49,0,0,0-3.19,2,2.83,2.83,0,0,0-.26,1.4c.11,2.47,1.3,4.7,3.77,4.7Z"/><polygon class="cls-1" points="131.38 88.32 139.06 62.29 142.69 62.29 135 88.32 131.38 88.32"/><polygon class="cls-1" points="151.16 68.4 151.09 68.4 146.64 70.52 145.74 66.42 151.95 63.55 156.44 63.55 156.44 86.89 151.16 86.89 151.16 68.4"/><path class="cls-1" d="M179.71,68h-9.05l-.5,3.59c.5,0,.93-.07,1.51-.07a10.6,10.6,0,0,1,6.13,1.68,6.66,6.66,0,0,1,2.84,5.86c0,4.34-3.73,8.18-10,8.18a14.91,14.91,0,0,1-6.5-1.33l1-4.09A13.1,13.1,0,0,0,170.37,83c2.26,0,4.67-1.08,4.67-3.56s-1.9-3.87-6.57-3.87a19.78,19.78,0,0,0-3.12.21l1.5-12.24h12.86Z"/><rect class="cls-1" x="183.62" y="75.65" width="9.41" height="3.63"/><path class="cls-1" d="M204,87.28c-6,0-8.69-5.42-8.73-12,0-6.78,2.84-12.1,8.87-12.1,6.21,0,8.69,5.57,8.69,12,0,7.18-2.91,12.17-8.8,12.17Zm.1-4.13c2.12,0,3.27-2.65,3.27-8s-1.11-7.9-3.3-7.9-3.34,2.62-3.34,7.9,1.26,8,3.34,8Z"/><polygon class="cls-1" points="232.27 63.55 232.27 66.96 222.65 86.89 216.87 86.89 226.49 68.11 226.49 68.04 215.79 68.04 215.79 63.55 232.27 63.55"/><polygon class="cls-1" points="234.54 88.32 242.22 62.29 245.85 62.29 238.16 88.32 234.54 88.32"/><polygon class="cls-1" points="254.32 68.4 254.25 68.4 249.79 70.52 248.9 66.42 255.11 63.55 259.6 63.55 259.6 86.89 254.32 86.89 254.32 68.4"/><path class="cls-1" d="M269,82.94a10.9,10.9,0,0,0,2.37,0A9,9,0,0,0,276,81.5a6.84,6.84,0,0,0,2.94-4.31l-.07,0a6.34,6.34,0,0,1-4.74,1.68,7,7,0,0,1-7.25-7.28,8.49,8.49,0,0,1,8.8-8.41c6,0,8.83,4.6,8.83,10.06,0,4.88-1.54,8.4-4.06,10.73a13.67,13.67,0,0,1-9,3.27,18.52,18.52,0,0,1-2.48,0Zm6.5-15.8c-1.83,0-3.2,1.65-3.2,4.09,0,2,1.12,3.74,3.31,3.74a3.51,3.51,0,0,0,3.08-1.51,2.87,2.87,0,0,0,.25-1.4c0-2.48-.93-4.92-3.41-4.92Z"/><path class="cls-1" d="M2.68,31.39a18,18,0,0,0,7.9,2c3.27,0,5-1.36,5-3.41s-1.5-3.09-5.28-4.39c-5.23-1.87-8.69-4.77-8.69-9.35,0-5.37,4.53-9.44,11.91-9.44a18.4,18.4,0,0,1,8,1.59L20,14.05a14.81,14.81,0,0,0-6.54-1.49c-3.08,0-4.58,1.45-4.58,3,0,2,1.73,2.9,5.84,4.44,5.56,2.06,8.13,5,8.13,9.39,0,5.28-4,9.77-12.66,9.77a20.51,20.51,0,0,1-8.92-2Z"/><path class="cls-1" d="M44.92,38.11a16.15,16.15,0,0,1-6.35,1.08c-7.39,0-12.11-4.53-12.11-11.68,0-6.64,4.58-12.1,13.09-12.1A16.25,16.25,0,0,1,45,16.3l-1.13,5.27a9.77,9.77,0,0,0-4-.7c-3.73,0-6.16,2.67-6.12,6.36,0,4.2,2.81,6.4,6.26,6.4a10,10,0,0,0,4.07-.75Z"/><path class="cls-1" d="M48.84,5.5H56V18.63H56a7.64,7.64,0,0,1,2.8-2.38,8.14,8.14,0,0,1,3.69-.89c4.54,0,8,3.13,8,10.05V38.72h-7.1V26.15c0-3-1-5-3.69-5a3.74,3.74,0,0,0-3.55,2.52A4.05,4.05,0,0,0,56,25.17V38.72H48.84Z"/><path class="cls-1" d="M86.27,39.24c-7.85,0-11.31-7.06-11.36-15.66,0-8.83,3.7-15.74,11.55-15.74,8.08,0,11.3,7.24,11.3,15.56,0,9.34-3.78,15.84-11.45,15.84Zm.14-5.38c2.75,0,4.25-3.45,4.25-10.37,0-6.73-1.45-10.28-4.3-10.28C83.7,13.21,82,16.62,82,23.49s1.63,10.37,4.34,10.37Z"/><path class="cls-1" d="M112.2,39.24c-7.85,0-11.31-7.06-11.35-15.66,0-8.83,3.69-15.74,11.54-15.74,8.08,0,11.3,7.24,11.3,15.56,0,9.34-3.78,15.84-11.44,15.84Zm.14-5.38c2.76,0,4.25-3.45,4.25-10.37,0-6.73-1.45-10.28-4.3-10.28-2.66,0-4.34,3.41-4.34,10.28s1.63,10.37,4.34,10.37Z"/><polygon class="cls-1" points="136.26 14.66 136.17 14.66 130.37 17.42 129.21 12.09 137.29 8.35 143.13 8.35 143.13 38.72 136.26 38.72 136.26 14.66"/><path class="cls-1" d="M163.69,7.7a56.94,56.94,0,0,1,9.57-.7c6,0,10,1.12,13,3.36,3.27,2.43,5.32,6.26,5.32,11.87,0,6-2.19,10.18-5.18,12.75-3.32,2.76-8.41,4.07-14.58,4.07a61.59,61.59,0,0,1-8.08-.47Zm7.1,25.65a13.32,13.32,0,0,0,2.47.14c6.5,0,10.75-3.51,10.75-11,0-6.54-3.83-10-10-10a15.16,15.16,0,0,0-3.22.28Z"/><path class="cls-1" d="M201.44,29.56c.23,2.95,3.13,4.35,6.45,4.35a18.85,18.85,0,0,0,6.3-1l.94,4.81a21.65,21.65,0,0,1-8.27,1.45c-7.76,0-12.2-4.49-12.2-11.63,0-5.8,3.65-12.2,11.54-12.2,7.39,0,10.19,5.75,10.19,11.4a17.21,17.21,0,0,1-.23,2.8Zm8.36-4.85c0-1.73-.75-4.63-4-4.63-3,0-4.25,2.76-4.44,4.63Z"/><path class="cls-1" d="M220.64,23.16c0-2.85-.09-5.23-.19-7.29h6l.28,3.14h.14a7.9,7.9,0,0,1,6.92-3.65,6.46,6.46,0,0,1,6.26,3.93h.09a10,10,0,0,1,3-2.81,8.7,8.7,0,0,1,4.35-1.12c4.39,0,7.71,3.08,7.71,9.91V38.72H248.3V26.34c0-3.32-1.07-5.23-3.36-5.23a3.54,3.54,0,0,0-3.32,2.47,7.48,7.48,0,0,0-.23,1.78V38.72h-6.92V25.92c0-2.85-1-4.81-3.32-4.81a3.63,3.63,0,0,0-3.31,2.52,4.69,4.69,0,0,0-.28,1.82V38.72h-6.92Z"/><path class="cls-1" d="M271.33,39.24c-6.68,0-11.82-4.4-11.82-11.78s4.86-12.1,12.25-12.1c7,0,11.63,4.81,11.63,11.73,0,8.31-5.93,12.15-12,12.15Zm.19-5.1c2.81,0,4.53-2.75,4.53-6.86,0-3.37-1.3-6.83-4.53-6.83s-4.67,3.46-4.67,6.87c0,3.88,1.63,6.82,4.63,6.82Z"/><path class="cls-1" d="M297.45,7.7A57.15,57.15,0,0,1,307,7c6,0,10,1.12,12.94,3.36,3.27,2.43,5.33,6.26,5.33,11.87,0,6-2.2,10.18-5.19,12.75-3.31,2.76-8.41,4.07-14.57,4.07a61.65,61.65,0,0,1-8.09-.47Zm7.1,25.65a13.43,13.43,0,0,0,2.48.14c6.5,0,10.75-3.51,10.75-11,0-6.54-3.83-10-10-10a15.27,15.27,0,0,0-3.23.28Z"/><path class="cls-1" d="M348.75,33.21a29.51,29.51,0,0,0,.38,5.51h-6.4l-.42-2.29h-.14a8.27,8.27,0,0,1-6.55,2.81,7,7,0,0,1-7.38-7c0-5.94,5.33-8.74,13.41-8.74v-.28c0-1.22-.65-2.94-4.16-2.94a13.31,13.31,0,0,0-6.3,1.68l-1.31-4.53a18.74,18.74,0,0,1,8.88-2.06c7.61,0,10,4.49,10,9.86Zm-6.86-5.28c-3.74,0-6.64.89-6.64,3.6a2.55,2.55,0,0,0,2.8,2.71,3.94,3.94,0,0,0,3.7-2.62,5.21,5.21,0,0,0,.14-1.21Z"/><path class="cls-1" d="M359.17,15.87l3.41,11.26c.38,1.31.84,3,1.12,4.26h.14c.33-1.27.71-2.95,1-4.3l2.81-11.22h7.61L370,30.92c-3.28,9.11-5.47,12.71-8,15a12.48,12.48,0,0,1-6.87,3.13l-1.49-6a11.54,11.54,0,0,0,3.08-1.22A8.18,8.18,0,0,0,359.59,39a2.08,2.08,0,0,0,.38-1,2.91,2.91,0,0,0-.28-1.16l-8.41-20.94Z"/><path class="cls-1" d="M15.08,183.14c-.09.52-.19,1-.31,1.46h3.46a14.31,14.31,0,0,0-1.1-1.37l1.08-.38-.23-1c.5,0,.95.08,1.39.08a.51.51,0,0,0,.58-.56v-1.6H12.28v-1.18H20v-1.82h1.39v1.82h2.05v1.18H21.34v1.93c0,.89-.52,1.35-1.53,1.35H18.56a9.85,9.85,0,0,1,1.16,1.56h3.2v1.34H14.23a7.65,7.65,0,0,1-1.77,2.22c-1.3,1.14-3.58,2-6.86,2.68L5,189.49a14.89,14.89,0,0,0,6.26-2.24,6.61,6.61,0,0,0,1.23-1.31H5.19V184.6h8a8.17,8.17,0,0,0,.42-1.6Zm-5.29-5v-1.75H6v-4H7.4v2.88H9.79v-3.36H11.2v11.31H9.79v-3.84H8.07c-.15,2-.75,3.34-1.81,4.13l-1.07-.83a4.05,4.05,0,0,0,1.59-3.3H5.14v-1.2Zm3.26-3.22L12.3,174a9.08,9.08,0,0,0,4.29-2.24l1.33.16a6.27,6.27,0,0,1-.79.88h5.54v1c-1.35,2.2-4.54,3.73-9.58,4.65l-.54-1c4.33-.7,7.21-1.93,8.62-3.63H16.59A18.33,18.33,0,0,1,18.52,175l-.85.61A18,18,0,0,0,15.2,174a21.84,21.84,0,0,1-2.15.87m-.42.87a23.07,23.07,0,0,0,3.15-.81l.25.81a26.24,26.24,0,0,1-3.11.87ZM23.1,189.47l-.52,1.28A45.9,45.9,0,0,0,14,188l.58-1.14a47,47,0,0,1,8.56,2.63m-6-7.57-1,.71A14.2,14.2,0,0,0,14,180.47l1-.62a19.58,19.58,0,0,1,2.05,2.05"/><path class="cls-1" d="M26.23,179.41l-.87-1.24A26.19,26.19,0,0,0,34.19,172h1.2a21.9,21.9,0,0,0,8.78,6.12l-.85,1.24a25.09,25.09,0,0,1-3.07-1.53V179H35.54v3h7.38v1.39H35.54v5.54h2.3a31.42,31.42,0,0,0,1.87-4.36l1.37.48a26.65,26.65,0,0,1-1.72,3.88h4.29v1.43H25.92v-1.43h4.29a19.76,19.76,0,0,0-1.66-3.71l1.35-.5a25,25,0,0,1,1.76,4.21h2.39v-5.54H26.64v-1.39h7.41v-3H29.34v-1.21a32.93,32.93,0,0,1-3.11,1.66m8.56-6a25.91,25.91,0,0,1-5.22,4.21H39.89a20.13,20.13,0,0,1-5.1-4.21"/><path class="cls-1" d="M61.85,174.75a3.65,3.65,0,0,1,1.28,2.94A3.24,3.24,0,0,1,60.71,181a3.92,3.92,0,0,1,2,1.26,3.22,3.22,0,0,1,.74,2.18,4.24,4.24,0,0,1-1.41,3.3,5.3,5.3,0,0,1-3.73,1.31A5.4,5.4,0,0,1,54.86,188a5.14,5.14,0,0,1-1.76-3.8h1.72A3.44,3.44,0,0,0,56,186.84a3.63,3.63,0,0,0,2.32.76,3.58,3.58,0,0,0,2.55-.91,3,3,0,0,0,.89-2.18,2.57,2.57,0,0,0-.87-2.07,3.53,3.53,0,0,0-2.4-.73H57.26v-1.32h1.15a3.41,3.41,0,0,0,2.26-.67,2.46,2.46,0,0,0,.78-1.93,2.51,2.51,0,0,0-.76-1.92,3.85,3.85,0,0,0-4.59.06,3.47,3.47,0,0,0-1,2.3H53.41a4.73,4.73,0,0,1,5-4.56,5.19,5.19,0,0,1,3.44,1.08"/><path class="cls-1" d="M77.31,173.05v-1.29h1.43v1.29h2.53v1.32H78.74v1.31H77.31v-1.31h-4.5v-1.32Zm11,3.17v6.51H82.47v1.33h7.47v5c0,1.14-.62,1.73-1.87,1.73H85.69l-.33-1.27,2.28.06q.93,0,.93-.81v-3.44h-6.1v2.22l2.76-.37c-.25-.46-.47-.85-.72-1.23l1.12-.37a21.47,21.47,0,0,1,1.74,3.21l-1.16.52c-.17-.37-.31-.72-.46-1.05-2.72.45-5.62.85-8.69,1.16l-.33-1.31c1.49-.12,3-.25,4.42-.39v-2.39H75.38v5.54H74v-6.8h7.14v-1.33H75.4v-6.51Zm-7.13,1.2h-4.4v1.5h4.4Zm0,2.57h-4.4v1.52h4.4Zm5.06-8.23v1.29h4.5v1.32h-4.5v1.31H84.78v-1.31H82.23v-1.32h2.55v-1.29Zm-3.74,7.15h4.44v-1.49H82.47ZM86.91,180H82.47v1.52h4.44Z"/><path class="cls-1" d="M111.36,179.08v1.45h-5.73v7.74a.8.8,0,0,0,.91.89h2.31a1,1,0,0,0,.93-.48,9.37,9.37,0,0,0,.48-3.36l1.36.44c-.14,2.26-.41,3.63-.82,4.1a2.09,2.09,0,0,1-1.66.65h-3a1.71,1.71,0,0,1-1.95-1.93v-8.05h-3.73v.31a12.53,12.53,0,0,1-1.66,6.51,10,10,0,0,1-5,3.55L93,189.64a9.11,9.11,0,0,0,4.69-3.28A11.33,11.33,0,0,0,99,180.84v-.31H93.63v-1.45Zm-1.81-4.64H95.22V173h14.33Z"/><polygon class="cls-1" points="126.73 178.17 126.73 182.69 131.26 182.69 131.26 184.1 126.73 184.1 126.73 188.64 125.33 188.64 125.33 184.1 120.78 184.1 120.78 182.69 125.33 182.69 125.33 178.17 126.73 178.17"/><path class="cls-1" d="M144.19,174.17l-.79.31h2.93v1.37h-6.12v-1.37h2.65a18.61,18.61,0,0,0-1-2.35l1.43-.39c.35.89.64,1.7.85,2.43m1.7,16.32h-1.37v-1h-2.38v1.06h-1.35v-7h5.1Zm-.19-11.64H141v-1.26h4.74Zm0,3H141v-1.27h4.74Zm-1.18,3h-2.38v3.32h2.38Zm6.31-11.21h2.36v1.32h-.75c-.1,1-.25,2-.41,2.89h2.28c0-1.75,0-3.7,0-5.89h1.33c0,2.22,0,4.18,0,5.89h3.21v1.36h-3.17c0,1.91.1,3.49.21,4.73a31.85,31.85,0,0,0,1.55-3.83l1.22.47a31.41,31.41,0,0,1-2.53,5.58.78.78,0,0,0,.05.23c.29,1.57.64,2.4,1,2.51.29,0,.56-1,.77-2.84l1.08.79c-.31,2.44-.89,3.67-1.76,3.67-.5,0-.94-.36-1.35-1.06a8.93,8.93,0,0,1-.75-1.83,18.54,18.54,0,0,1-2.57,3l-1-.87a18.94,18.94,0,0,0,3.22-3.88l0-.19a54.67,54.67,0,0,1-.42-6.47h-7.84v-1.36h1.81c-.19-1.06-.38-2-.58-2.89H147v-1.32h2.45a13,13,0,0,0-.69-1.66l1.43-.25c.21.56.42,1.2.63,1.91m1.86,14.57h-3.94v1.14h-1.24v-8.71h5.18Zm-1.26-6.36h-2.68v2h2.68Zm0,3.11h-2.68V187h2.68Zm-.23-10h-2.28c.18.87.37,1.85.54,2.89h1.35c.16-.94.29-1.89.39-2.89m7.4,1.62-1.1.27a20.08,20.08,0,0,0-1.18-3.61l1.1-.35a22.91,22.91,0,0,1,1.18,3.69"/><path class="cls-1" d="M175.83,177.63V179a49.91,49.91,0,0,1-4.52,2.78v1.39h8.17v1.45h-8.17V189c0,1.14-.6,1.73-1.81,1.73H167l-.35-1.37c.73,0,1.51,0,2.39,0,.53,0,.8-.31.8-.91v-3.88h-8.66v-1.45h8.66v-2c1.68-.87,3-1.59,3.8-2.13h-8.9v-1.39Zm3.25,1h-1.49v-3.19H163v3.19H161.5V174h8.15a16.46,16.46,0,0,0-.93-2l1.7-.29c.29.68.58,1.45.85,2.3h7.81Z"/><path class="cls-1" d="M200.31,179.47H181.73v-1.12h18.58Zm-2.05,1v5.29h-6.51V187h7v1h-7v1.22h8.54v1.16H181.75v-1.16h8.51V188h-6.95v-1h6.95V185.8h-6.43v-5.29Zm-.43-3.23H184.28v-5.13h13.55Zm-7.57,4.16h-5v1.29h5Zm0,2.16h-5v1.27h5Zm6.11-10.53H185.74v1.2h10.63Zm0,2.09H185.74v1.22h10.63Zm-4.62,7.57h5.08v-1.29h-5.08Zm5.08.87h-5.08v1.27h5.08Z"/><path class="cls-1" d="M205.08,175.89v-4h1.49v4h2v1.43h-2v1.16c.83.93,1.66,2,2.51,3.13l-.85,1.27c-.64-1.21-1.2-2.18-1.66-2.93v10.78h-1.49V181a26.59,26.59,0,0,1-2.2,5.24l-.64-1.64a22.48,22.48,0,0,0,2.84-7.23h-2.55v-1.43Zm4.35,14.76-1-.89a11.58,11.58,0,0,0,3.69-5l1.22.5c-.23.52-.46,1-.68,1.47a16.71,16.71,0,0,1,1.95,1.6l-.94.93a13.6,13.6,0,0,0-1.57-1.55,12,12,0,0,1-2.66,3m0-12.9-.78-1.2A14.09,14.09,0,0,0,214.2,172h1.25a13.8,13.8,0,0,0,5.72,4.58l-.79,1.2a16.57,16.57,0,0,1-2.22-1.26v1h-6.74v-.91a15.31,15.31,0,0,1-2,1.14m4.83,6.41h-4.52V179h4.52Zm-1.22-4H211V183h2.07Zm1.76-6.91A14,14,0,0,1,212,176.2h5.77a11.74,11.74,0,0,1-2.93-2.91m.09,17.4-1-.89a11.28,11.28,0,0,0,3.69-4.93l1.22.49A18.36,18.36,0,0,1,218,187a24.11,24.11,0,0,1,3.19,2.59l-1,1a19.45,19.45,0,0,0-2.84-2.57,11.06,11.06,0,0,1-2.44,2.67m5.33-6.53h-4.57V179h4.57Zm-1.25-4h-2.07V183H219Z"/><path class="cls-1" d="M226.91,180.24l-1,1a19.32,19.32,0,0,0-2.78-2.89l1-.95a19.12,19.12,0,0,1,2.8,2.84m.23,3.26c-.77,2.51-1.62,4.85-2.53,7.05l-1.35-.56a73.08,73.08,0,0,0,2.61-7Zm.2-8.44-1,1a19.78,19.78,0,0,0-3-2.82l1-.95a20,20,0,0,1,3,2.76m3.26,11.55a21.4,21.4,0,0,1-2.43,4.21l-1.26-.67a21.87,21.87,0,0,0,2.45-4.12Zm4-1.33h-6.55V172.61h6.55ZM233.15,174H229.5v2.24h3.65Zm0,3.57H229.5V180h3.65Zm0,3.73H229.5v2.63h3.65Zm2.2,8.42-1.16.81a32.37,32.37,0,0,0-2.2-3.86l1.1-.69a32.9,32.9,0,0,1,2.26,3.74m2.42-3.13h-1.41v-12.9h1.41Zm-.37,4-.33-1.41c.7,0,1.39.08,2.05.08s.79-.31.79-.89V171.88h1.41V188.7c0,1.23-.56,1.85-1.68,1.85Z"/><path class="cls-1" d="M245.05,180.64l-1.31-.38a26.85,26.85,0,0,0,1.08-6.8l1.37.1c0,.88-.11,1.75-.21,2.6h1.74v-4.32h1.43v4.32H251v1.45h-1.89v5c.67-.26,1.31-.53,1.95-.82v1.41c-.66.29-1.3.56-1.95.8v6.87h-1.43v-6.35c-1.16.4-2.36.75-3.58,1.08l-.36-1.43a38.64,38.64,0,0,0,3.94-1.06v-5.47h-1.95c-.2,1-.43,2-.72,3m12.52-8.82v2.24h5v1.39h-5v2.45h4.34v1.41H252V177.9h4.08v-2.45h-4.91v-1.39h4.91v-2.24Zm1,9.85v-1.39H260v1.39h2.51v1.41H260V189a1.55,1.55,0,0,1-1.76,1.72h-2.53l-.31-1.41c.83.07,1.59.11,2.34.11a.7.7,0,0,0,.81-.77v-5.54h-6.86v-1.41Zm-2.74,5.52-1.16.83a27.51,27.51,0,0,0-2.43-3.26l1.14-.7a27.92,27.92,0,0,1,2.45,3.13"/><path class="cls-1" d="M274.05,172.65v6.68h-5c0,.87-.08,1.66-.12,2.38h5.7a40.82,40.82,0,0,1-.31,6.72c-.23,1.41-1.35,2.12-3.36,2.12-.33,0-.91,0-1.72-.09l-.33-1.28c.7,0,1.33.06,1.87.06,1.24,0,1.94-.46,2.15-1.37a35.13,35.13,0,0,0,.23-4.75h-4.35a20.35,20.35,0,0,1-.63,3.22,10.37,10.37,0,0,1-2.69,4.35l-1-1.22a9.08,9.08,0,0,0,2.33-3.77,26.32,26.32,0,0,0,.74-6.37h-1.82v-6.68Zm-1.45,1.41h-5.41v3.86h5.41Zm5.62,12.51h-1.45V173.65h1.45Zm-.48,4.08-.33-1.43c1,.06,1.93.1,2.8.1.62,0,.94-.37.94-1.12V171.88h1.47v16.7c0,1.37-.65,2.07-1.89,2.07Z"/><path class="cls-1" d="M295.72,183.14c-.09.52-.19,1-.31,1.46h3.46a14.31,14.31,0,0,0-1.1-1.37l1.08-.38-.23-1c.5,0,.95.08,1.39.08a.51.51,0,0,0,.58-.56v-1.6h-7.67v-1.18h7.67v-1.82H302v1.82h2v1.18h-2v1.93c0,.89-.52,1.35-1.53,1.35H299.2a9.85,9.85,0,0,1,1.16,1.56h3.2v1.34h-8.69a7.65,7.65,0,0,1-1.77,2.22c-1.3,1.14-3.58,2-6.86,2.68l-.58-1.35a14.89,14.89,0,0,0,6.26-2.24,6.61,6.61,0,0,0,1.23-1.31h-7.32V184.6h8a8.17,8.17,0,0,0,.42-1.6Zm-5.29-5v-1.75h-3.75v-4H288v2.88h2.39v-3.36h1.41v11.31h-1.41v-3.84h-1.72c-.15,2-.75,3.34-1.81,4.13l-1.07-.83a4.05,4.05,0,0,0,1.59-3.3h-1.64v-1.2Zm3.26-3.22-.75-.95a9.08,9.08,0,0,0,4.29-2.24l1.33.16a6.27,6.27,0,0,1-.79.88h5.54v1c-1.35,2.2-4.54,3.73-9.58,4.65l-.54-1c4.33-.7,7.21-1.93,8.62-3.63h-4.58a18.33,18.33,0,0,1,1.93,1.14l-.85.61a18,18,0,0,0-2.47-1.54,21.84,21.84,0,0,1-2.15.87m-.42.87a23.07,23.07,0,0,0,3.15-.81l.25.81a26.24,26.24,0,0,1-3.11.87Zm10.47,13.69-.52,1.28A45.9,45.9,0,0,0,294.6,188l.58-1.14a47,47,0,0,1,8.56,2.63m-6-7.57-1,.71a14.2,14.2,0,0,0-2-2.14l1-.62a19.58,19.58,0,0,1,2,2.05"/><path class="cls-1" d="M321.76,174.85a4.06,4.06,0,0,1,1.32,3.13,5.07,5.07,0,0,1-1.45,3.49,21.66,21.66,0,0,1-3.07,2.38c-1.89,1.27-3,2.41-3.23,3.4h7.77v1.52h-9.87a5.36,5.36,0,0,1,1.47-3.68,18.54,18.54,0,0,1,3.22-2.63,18.66,18.66,0,0,0,2.32-1.84,3.88,3.88,0,0,0,1.14-2.66,2.67,2.67,0,0,0-.81-2.09,3.21,3.21,0,0,0-2.26-.75,2.76,2.76,0,0,0-2.34,1,4.51,4.51,0,0,0-.91,3h-1.7a5.56,5.56,0,0,1,1.39-4,4.71,4.71,0,0,1,3.63-1.49,4.92,4.92,0,0,1,3.38,1.18"/><path class="cls-1" d="M337.22,173.05v-1.29h1.43v1.29h2.53v1.32h-2.53v1.31h-1.43v-1.31h-4.5v-1.32Zm11,3.17v6.51h-5.81v1.33h7.47v5c0,1.14-.62,1.73-1.87,1.73H345.6l-.33-1.27,2.28.06q.93,0,.93-.81v-3.44h-6.1v2.22l2.76-.37c-.25-.46-.48-.85-.72-1.23l1.11-.37a20.64,20.64,0,0,1,1.75,3.21l-1.16.52c-.17-.37-.32-.72-.46-1.05-2.72.45-5.62.85-8.69,1.16l-.33-1.31c1.49-.12,3-.25,4.42-.39v-2.39h-5.77v5.54h-1.37v-6.8h7.14v-1.33h-5.75v-6.51Zm-7.13,1.2h-4.4v1.5h4.4Zm0,2.57h-4.4v1.52h4.4Zm5.06-8.23v1.29h4.5v1.32h-4.5v1.31h-1.44v-1.31h-2.55v-1.32h2.55v-1.29Zm-3.74,7.15h4.44v-1.49h-4.44Zm4.44,1.08h-4.44v1.52h4.44Z"/><path class="cls-1" d="M371.26,179.08v1.45h-5.72v7.74a.8.8,0,0,0,.91.89h2.3a1,1,0,0,0,.94-.48,9.22,9.22,0,0,0,.47-3.36l1.37.44c-.14,2.26-.41,3.63-.83,4.1a2.05,2.05,0,0,1-1.65.65h-3a1.71,1.71,0,0,1-2-1.93v-8.05h-3.73v.31a12.72,12.72,0,0,1-1.66,6.51,10,10,0,0,1-5,3.55l-.81-1.26a9.11,9.11,0,0,0,4.69-3.28,11.33,11.33,0,0,0,1.33-5.52v-.31h-5.38v-1.45Zm-1.8-4.64H355.13V173h14.33Z"/><path class="cls-1" d="M11.39,211l1.08-5.1H5.62v-1.45H22.48v1.45H14L12.88,211h7v8.9h3.4v1.47H4.83v-1.47H9.52l1.56-7.44H6.68V211Zm7,8.9v-7.44H12.57L11,219.86Z"/><path class="cls-1" d="M33.34,215.75l-1.2.34c-.13-.42-.23-.83-.35-1.23a37.17,37.17,0,0,1-5.69,1.23l-.37-1.29a2.35,2.35,0,0,0,.64-.41,21.61,21.61,0,0,0,2.7-3.82q-1.62.26-3.24.48l-.35-1.29a1.67,1.67,0,0,0,.6-.54,32,32,0,0,0,2.74-5.93l1.37.54a30.19,30.19,0,0,1-3,5.81c.87-.09,1.76-.21,2.64-.36l1.41-2.67,1.32.5a45.8,45.8,0,0,1-4.73,7.46c1.21-.23,2.41-.52,3.61-.85a17.78,17.78,0,0,0-.68-1.78l1.16-.37a27.45,27.45,0,0,1,1.45,4.18m-5.7,1.56a21.68,21.68,0,0,1-.79,4.73l-1.35-.42a18,18,0,0,0,.85-4.48Zm3.11,3.75-1.33.31a42.2,42.2,0,0,0-.72-4.18l1.22-.27c.31,1.28.58,2.65.83,4.14m2.57-1.55-1.22.33a22.26,22.26,0,0,0-.94-3.09l1.14-.35a21.83,21.83,0,0,1,1,3.11m9.5.81h1.41v1.43H32.8v-1.43h1.54V204h8.48Zm-1.41-14.89H35.77v4h5.64Zm0,5.41H35.77v4.06h5.64Zm0,5.43H35.77v4h5.64Z"/><path class="cls-1" d="M52.35,204.41a18,18,0,0,1-2,3.11c.13.29.25.56.35.85a24.73,24.73,0,0,1,1,7.2c0,3.34-.35,5.35-1,6.05a2.46,2.46,0,0,1-1.68.54l-1.47,0-.44-1.39a11.2,11.2,0,0,0,1.58.13,1.26,1.26,0,0,0,1.06-.38c.37-.56.58-2.24.58-5,0-.76,0-1.47-.06-2.11a15,15,0,0,1-3.14,3.55l-.8-1.21A13.68,13.68,0,0,0,50,211.34a16.87,16.87,0,0,0-.54-2.35,1.81,1.81,0,0,0-.13-.31,22.81,22.81,0,0,1-2.28,1.93l-.74-1.22a10.82,10.82,0,0,0,2.42-2.06,11.83,11.83,0,0,0-2.19-2.86l1.14-.91a17.4,17.4,0,0,1,2,2.64,18.63,18.63,0,0,0,1.49-2.49Zm.13,8-.83-1a13.66,13.66,0,0,0,3-4.79l1.29.29a10.13,10.13,0,0,1-.42,1h3.05c-.16-.45-.33-.87-.49-1.22l1.28-.21c.17.42.31.89.48,1.43h4.08v1.08h-4v1h3.48v1H59.94v1h3.55v1H59.94V214h4.38v1H54v-4.48a18.12,18.12,0,0,1-1.49,1.79m1,4.85v-1.12H63.59v1.08a8.65,8.65,0,0,1-3.05,2.65,27,27,0,0,0,4.61,1.2l-.79,1.16a26.44,26.44,0,0,1-5.29-1.63,31.27,31.27,0,0,1-5.93,1.7L52.62,221a33.18,33.18,0,0,0,4.94-1.2,12.07,12.07,0,0,1-3.16-2.57Zm2.74-12.88v-1.14h1.33v3.59H56.25v-1.25H52.91v-1.2Zm2.36,4.56h-3.4v1h3.4Zm0,2h-3.4v1h3.4Zm0,2h-3.4V214h3.4ZM62,217.23H56a13,13,0,0,0,3,2,9.55,9.55,0,0,0,3-2m-1-14v1.16h3.38v1.2H61v1.25H59.65v-3.61Z"/><path class="cls-1" d="M71.69,208.46v1.14a25.46,25.46,0,0,1-2.49,3.56h2.7v1a22.78,22.78,0,0,1-1,4.14,3.8,3.8,0,0,1,.56.44,7.27,7.27,0,0,0,2,1.39,8.05,8.05,0,0,0,2.78.43l3.88,0c1.45,0,3.34,0,5.66-.1l-.33,1.43H80.26c-1.56,0-3,0-4.15-.06a8.85,8.85,0,0,1-3.23-.56,6.51,6.51,0,0,1-2.35-1.64.74.74,0,0,0-.52-.23q-.77,0-2.19,2.7l-1-.95c1-1.77,1.84-2.78,2.72-3.05a20.15,20.15,0,0,0,1-3.69h-3v-1.12a27.27,27.27,0,0,0,2.58-3.51H67v-1.32Zm0-2.12-1,1a20.81,20.81,0,0,0-3.26-2.88l1-.93a21.58,21.58,0,0,1,3.23,2.84m5.7,4.23v1.33h3.36v-1.33h1.35v1.33h2.68v1.26H82.06V215h3.3v1.28H72.73V215H76v-1.87H73.27V211.9H76v-1.33Zm-4.47-1a.7.7,0,0,0,.39-.66v-5h5.16v3.59H74.56v1.74c1.32-.12,2.63-.29,3.87-.5l.29,1.06c-1.57.25-3.38.5-5.41.73Zm5,7.8a16.09,16.09,0,0,1-4,2.47l-.81-1.06A16,16,0,0,0,77,216.52ZM77.17,205H74.55v1.45h2.62Zm3.54,8.19H77.36V215h3.35Zm.05-4.73c0,.36.2.54.66.54h3.63v1.12H80.78c-.87,0-1.29-.37-1.29-1.1v-5.12H84.7v3.57H80.76ZM85,218.8l-.73,1.12a18.37,18.37,0,0,0-4.23-2.4l.68-1A21.6,21.6,0,0,1,85,218.8m-4.25-12.4h2.67V205H80.76Z"/><path class="cls-1" d="M105.43,222.24H104v-.89H89.92v.89H88.51V204h16.92Zm-1.41-17H89.92v14.83H104Zm-7.76,1.27v-.79h1.35v.79h4.93v1H97.61v.85h4v4.4h0a15,15,0,0,1,1.33,1.72l-.89.62c-.17-.29-.38-.56-.58-.85l-1,.06v1.23h2.33v1.07h-2.33V218c0,.9-.5,1.35-1.49,1.35H97l-.27-1.14c.66,0,1.3.08,1.9.08.42,0,.63-.2.63-.58V216.6H91.06v-1.07h8.17v-1.16q-3.12.15-7.66.29l-.12-.9,4.81-.1v-.91h-4v-4.4h4v-.85H91.37v-1Zm-.5,11.55-.62.93a10.84,10.84,0,0,0-2.61-1.43l.54-.81a12.68,12.68,0,0,1,2.69,1.31m.63-8.92H93.5v1.06h2.89Zm0,1.74H93.5V212h2.89Zm1.09-.68h3v-1.06h-3Zm3,.68h-3V212h3Zm-2.84,2.72c1.2,0,2.32-.08,3.32-.13l-.62-.74h-2.7Z"/><path class="cls-1" d="M114.73,204v1.12c-.45,1.7-1,3.44-1.68,5.24a9.75,9.75,0,0,1,1.66,4.53,3.58,3.58,0,0,1-.58,2.24,3.87,3.87,0,0,1-2.78.87l-.45-1.5a7.49,7.49,0,0,0,.78.09,1.4,1.4,0,0,0,1.58-1.7,7.77,7.77,0,0,0-1.68-4.32,48.21,48.21,0,0,0,1.68-5.22h-2.7v16.69h-1.49V204Zm3.34,1.89a14.73,14.73,0,0,0-1.24-2.24l1.41-.52a16.29,16.29,0,0,1,1.28,2.76h2.62a19.84,19.84,0,0,0,1.34-2.74l1.43.48a14.74,14.74,0,0,1-1.26,2.26h3.07v1.45h-5.08A10.8,10.8,0,0,1,120,209.2a8.66,8.66,0,0,1,1.93,2.91,9.83,9.83,0,0,0,1.6-1.29,13.87,13.87,0,0,0,1.65-2.2l1.25.77a14.5,14.5,0,0,1-1.87,2.34,13.27,13.27,0,0,1-1.86,1.47,16.79,16.79,0,0,0,4.64,5.48l-.75,1.31a16.73,16.73,0,0,1-3.85-4.59,19.47,19.47,0,0,1,.12,2.2c0,2.07-.29,3.36-.87,3.82a4.65,4.65,0,0,1-2.53.66l-1.18,0-.46-1.33h1.52a2.38,2.38,0,0,0,1.51-.45c.37-.36.56-1.27.56-2.72,0-.68,0-1.33-.1-1.93a21.86,21.86,0,0,1-6.1,4.5l-.85-1.26A19.33,19.33,0,0,0,121,214a10.21,10.21,0,0,0-.61-1.72,13.35,13.35,0,0,1-4.6,3.51l-.72-1.27a12.5,12.5,0,0,0,4.68-3.38,6.84,6.84,0,0,0-.87-1.08,21.49,21.49,0,0,1-3.79,2.08l-.77-1.27a13.17,13.17,0,0,0,5.6-3.52h-4.79v-1.45Z"/><path class="cls-1" d="M130.32,222.33l-1.08-1a10.93,10.93,0,0,0,1.45-5.82v-6.6h7.39v11.43c0,1.12-.63,1.7-1.83,1.7h-1.86l-.36-1.33c.65,0,1.25.08,1.79.08a.81.81,0,0,0,.89-.93v-2.11h-4.79a11.66,11.66,0,0,1-1.6,4.56m13.21-18.67a13.07,13.07,0,0,1-1.43,2.14h5.25v1.45H129.49V205.8h5.35a15,15,0,0,0-1.35-2.34l1.5-.25a19.44,19.44,0,0,1,1.39,2.59h4.06a19.9,19.9,0,0,0,1.64-2.63Zm-11.45,11.76c0,.36,0,.69,0,1h4.67V214h-4.63Zm4.63-5.14h-4.63v2.39h4.63Zm5.16,8.59h-1.41v-9h1.41Zm-.14,3.19-.31-1.39c.87.06,1.72.1,2.5.1.56,0,.85-.31.85-.91V208.35h1.46v11.88a1.62,1.62,0,0,1-1.81,1.83Z"/><path class="cls-1" d="M154.72,208.39v1.18a26.7,26.7,0,0,1-2.38,3.57h3v1a15.67,15.67,0,0,1-1.47,4.16,4,4,0,0,1,.48.38,7.51,7.51,0,0,0,2,1.39,8.48,8.48,0,0,0,2.8.45h3.92c1.47,0,3.4,0,5.76-.1l-.33,1.43h-5.24c-1.58,0-3,0-4.19-.06a9.65,9.65,0,0,1-3.28-.54,6.74,6.74,0,0,1-2.36-1.62.8.8,0,0,0-.5-.21c-.5,0-1.22.92-2.14,2.76l-1.1-1c1-2,1.95-3,2.84-3.22a13.9,13.9,0,0,0,1.37-3.58H150.6v-1.14a26.66,26.66,0,0,0,2.48-3.51H150v-1.37Zm0-2-1,1a21.15,21.15,0,0,0-3.13-3l1-1a22.5,22.5,0,0,1,3.13,3m1.06,4.65-.46-1.41a17.61,17.61,0,0,0,3.28-6.22l1.37.22a22.55,22.55,0,0,1-.87,2.39h3.85a16,16,0,0,0-1.18-2.43l1.37-.37a17.76,17.76,0,0,1,1.14,2.65l-.37.15h3.92v1.35h-3.73v2.4h3.19v1.33h-3.19v2.32h3.21v1.31h-3.21v2.44h4v1.35H157.32v-9.43c-.48.66-1,1.32-1.56,1.95m6.91-3.67h-3.92v2.4h3.92Zm0,3.73h-3.92v2.32h3.92Zm0,3.63h-3.92v2.44h3.92Z"/><path class="cls-1" d="M185.74,211.28v-1.85h1.66v10c0,3.43-1.64,5.15-4.9,5.15a5.39,5.39,0,0,1-3.32-.87,4,4,0,0,1-1.43-2.62h1.66a2.34,2.34,0,0,0,.92,1.6,3.64,3.64,0,0,0,2.17.54c2.16,0,3.24-1.2,3.24-3.57v-1.88a3.87,3.87,0,0,1-3.61,2.15,4.46,4.46,0,0,1-3.55-1.53,6.36,6.36,0,0,1,0-7.65,4.35,4.35,0,0,1,3.55-1.58,3.84,3.84,0,0,1,3.61,2.14m-5.87.39a4.42,4.42,0,0,0-.87,2.88,4.55,4.55,0,0,0,.77,2.76,3,3,0,0,0,2.59,1.2,3.09,3.09,0,0,0,2.53-1.12,5.14,5.14,0,0,0,0-5.72,3,3,0,0,0-2.51-1.16,2.94,2.94,0,0,0-2.51,1.16"/><path class="cls-1" d="M198.9,207.4a12.72,12.72,0,0,1,0,10.7,4.59,4.59,0,0,1-8,0,12.72,12.72,0,0,1,0-10.7,4.59,4.59,0,0,1,8,0M192,208.64a13.9,13.9,0,0,0,0,8.21,3,3,0,0,0,5.72,0,13.48,13.48,0,0,0,0-8.21,3,3,0,0,0-5.72,0"/><polygon class="cls-1" points="203.05 209.43 206.12 218.08 209.18 209.43 211.01 209.43 206.94 220.15 205.26 220.15 201.22 209.43 203.05 209.43"/><path class="cls-1" d="M228.42,206.2a4.78,4.78,0,0,1,1.7,3.52h-1.68a3.68,3.68,0,0,0-1.24-2.38,4.32,4.32,0,0,0-2.8-.79,4.91,4.91,0,0,0-2.57.54,2,2,0,0,0-1.06,1.88,2,2,0,0,0,1.27,1.81,16.32,16.32,0,0,0,2.71.93,20.13,20.13,0,0,1,3.86,1.43,3.51,3.51,0,0,1,1.84,3.13,3.57,3.57,0,0,1-1.55,3.07,7.15,7.15,0,0,1-4.19,1.1,6.66,6.66,0,0,1-4.1-1.12,5.23,5.23,0,0,1-1.93-4.06h1.68a4.08,4.08,0,0,0,1.34,2.84,4.78,4.78,0,0,0,3,.83,5.63,5.63,0,0,0,2.95-.69,2.09,2.09,0,0,0,1.12-1.86,2.4,2.4,0,0,0-1.48-2.18,17.69,17.69,0,0,0-3.13-1.08,25.19,25.19,0,0,1-3.4-1.2,3.13,3.13,0,0,1-1.7-2.86,3.38,3.38,0,0,1,1.64-3,6.6,6.6,0,0,1,3.77-1,6.12,6.12,0,0,1,3.94,1.15"/><path class="cls-1" d="M234.06,209.43V216a3.41,3.41,0,0,0,.64,2.28,2.68,2.68,0,0,0,2.12.77,2.72,2.72,0,0,0,1.91-.83,3.77,3.77,0,0,0,1.05-2.24v-6.53h1.66v10.72h-1.66v-1.66a4,4,0,0,1-3.48,1.95c-2.61,0-3.9-1.47-3.9-4.37v-6.64Z"/><path class="cls-1" d="M252.06,211.17a3.92,3.92,0,0,1,1.49-1.53,3.43,3.43,0,0,1,1.89-.5,3.62,3.62,0,0,1,2.71,1.06,4.13,4.13,0,0,1,1,2.92v7h-1.66v-6.76a3.18,3.18,0,0,0-.6-2.11,2.44,2.44,0,0,0-2-.73,2.18,2.18,0,0,0-1.76.79,2.92,2.92,0,0,0-.73,2.09v6.72h-1.66v-6.76c0-1.91-.83-2.84-2.47-2.84a2.28,2.28,0,0,0-1.88.91,3.21,3.21,0,0,0-.75,2.16v6.53H244V209.43h1.66v1.43a3.57,3.57,0,0,1,3-1.72,3.33,3.33,0,0,1,3.36,2"/><path class="cls-1" d="M269.78,211.17a4,4,0,0,1,1.49-1.53,3.43,3.43,0,0,1,1.89-.5,3.65,3.65,0,0,1,2.72,1.06,4.18,4.18,0,0,1,1,2.92v7h-1.65v-6.76a3.13,3.13,0,0,0-.61-2.11,2.42,2.42,0,0,0-2-.73,2.21,2.21,0,0,0-1.76.79,2.92,2.92,0,0,0-.73,2.09v6.72H268.5v-6.76c0-1.91-.83-2.84-2.47-2.84a2.3,2.3,0,0,0-1.89.91,3.21,3.21,0,0,0-.75,2.16v6.53h-1.65V209.43h1.65v1.43a3.59,3.59,0,0,1,3-1.72,3.32,3.32,0,0,1,3.36,2"/><path class="cls-1" d="M281.72,205.74a1.07,1.07,0,0,1,.37.87,1.2,1.2,0,0,1-.37.89,1.31,1.31,0,0,1-1.78,0,1.19,1.19,0,0,1-.36-.89,1.06,1.06,0,0,1,.36-.87,1.31,1.31,0,0,1,1.78,0m-.06,14.41H280V209.43h1.66Z"/><path class="cls-1" d="M287.63,209.43h2.65v1.39h-2.65v6.82a1.16,1.16,0,0,0,.23.85,1,1,0,0,0,.79.27H290v1.39H288.4a2.35,2.35,0,0,1-1.89-.68,2.77,2.77,0,0,1-.52-1.83v-6.82h-2.16v-1.39H286v-2.78l1.64-.68Z"/><path class="cls-1" d="M307.55,206.24a4,4,0,0,1,1.33,3.13,5,5,0,0,1-1.45,3.48,21.37,21.37,0,0,1-3.07,2.39c-1.89,1.26-3,2.4-3.24,3.4h7.78v1.51H299a5.33,5.33,0,0,1,1.47-3.67,18.15,18.15,0,0,1,3.22-2.63A17.57,17.57,0,0,0,306,212a3.86,3.86,0,0,0,1.14-2.65,2.69,2.69,0,0,0-.81-2.1,3.27,3.27,0,0,0-2.26-.74,2.78,2.78,0,0,0-2.34,1,4.54,4.54,0,0,0-.91,3h-1.7a5.58,5.58,0,0,1,1.38-4,4.71,4.71,0,0,1,3.63-1.5,4.89,4.89,0,0,1,3.38,1.19"/><path class="cls-1" d="M320.41,207.4a12.72,12.72,0,0,1,0,10.7,4.4,4.4,0,0,1-4,2.34,4.34,4.34,0,0,1-4-2.34,12.72,12.72,0,0,1,0-10.7,4.29,4.29,0,0,1,4-2.34,4.34,4.34,0,0,1,4,2.34m-6.87,1.24a13.9,13.9,0,0,0,0,8.21,3,3,0,0,0,5.73,0,13.48,13.48,0,0,0,0-8.21,3,3,0,0,0-5.73,0"/><path class="cls-1" d="M332.43,206.24a4,4,0,0,1,1.33,3.13,5,5,0,0,1-1.45,3.48,21.37,21.37,0,0,1-3.07,2.39c-1.89,1.26-3,2.4-3.24,3.4h7.78v1.51h-9.87a5.29,5.29,0,0,1,1.47-3.67,18.37,18.37,0,0,1,3.21-2.63,17.87,17.87,0,0,0,2.33-1.85,3.91,3.91,0,0,0,1.14-2.65,2.69,2.69,0,0,0-.81-2.1,3.27,3.27,0,0,0-2.26-.74,2.78,2.78,0,0,0-2.35,1,4.54,4.54,0,0,0-.91,3H324a5.58,5.58,0,0,1,1.39-4,4.7,4.7,0,0,1,3.63-1.5,4.89,4.89,0,0,1,3.38,1.19"/><path class="cls-1" d="M345.28,207.4a12.62,12.62,0,0,1,0,10.7,4.59,4.59,0,0,1-8,0,12.72,12.72,0,0,1,0-10.7,4.59,4.59,0,0,1,8,0m-6.86,1.24a13.9,13.9,0,0,0,0,8.21,3,3,0,0,0,5.72,0,13.29,13.29,0,0,0,0-8.21,3,3,0,0,0-5.72,0"/><path class="cls-1" d="M393.64,31.49V18.64h16V31.49h-3.13v6c1.49-.7,3-1.45,4.48-2.29l1,3.51a47.22,47.22,0,0,1-9.72,4.57l-1.22-3.64a3.23,3.23,0,0,0,1.26-2.8V31.49h-1.91a19.26,19.26,0,0,1-1.68,7.06,14.28,14.28,0,0,1-5.66,5.32l-2.8-3.6a12,12,0,0,0,4.58-3.78,12.7,12.7,0,0,0,1.35-5ZM392.38,8.08V4h7A25.83,25.83,0,0,0,398.13,1l4.76-.75c.29,1.12.57,2.34.85,3.69H410V8.08h-1.91l-.94,4.25h3.6v4.12H391.54V12.33h4.25l-.74-4.25Zm12.85,14.49h-7.15v5h7.15ZM402.8,12.33l.94-4.25h-4.3l.74,4.25ZM426.54,42.7c-2.53,0-3.74-1.44-3.74-4.29V31.49h-2a18.36,18.36,0,0,1-1.59,7,14.3,14.3,0,0,1-5.33,5.19L411.16,40a10.34,10.34,0,0,0,4.21-3.69,12.42,12.42,0,0,0,1.31-4.86H414V18.64h16.31V31.49H427v6c0,.7.28,1.08.84,1.08H429A1,1,0,0,0,430,38a11.84,11.84,0,0,0,.46-3.69l3.65,1.17c-.28,3.55-.75,5.66-1.4,6.31a4.07,4.07,0,0,1-2.9.93ZM412.89,8.08V4h7A26,26,0,0,0,418.59,1l4.72-.75c.33,1.12.66,2.34,1,3.69h7.15V8.08H429l-1,4.25h4.72v4.12H411.91V12.33h4.35l-.8-4.25Zm12.95,14.49H418.5v5h7.34Zm-2.25-10.24,1-4.25h-4.76l.79,4.25Z"/><path class="cls-1" d="M439.62,9.58v-7H456.2c-.37-.66-.74-1.31-1.12-1.87L459.8,0c.38.79.8,1.68,1.17,2.62h17.15v7h-3.74V10.7h-7.66v1.68h6.73v2.76h-6.73v1.68h12.57v3.36h-9.21A32.71,32.71,0,0,0,480.22,24l-1.82,3.69c-2-.65-3.69-1.31-5.28-2V38H466.3A113.81,113.81,0,0,1,478,40.83L475.45,44a83.94,83.94,0,0,0-13.78-3.78L463.49,38H454.1l1.68,2.2c-3.36,1.54-8.13,2.8-14.34,3.83l-2.06-3.55A71.23,71.23,0,0,0,451.49,38h-6.73V26.07a49.88,49.88,0,0,1-5.05,2.1l-2.29-3.73A33.78,33.78,0,0,0,448,20.18H438.5V16.82H451V15.14h-6.68V12.38H451V10.7h-7.61V9.58Zm4.44-1.87H451V5.89h-6.91Zm24.57,16.82H449.24v1.82h19.39ZM449.24,30.6h19.39V28.83H449.24Zm0,4.35h19.39V33.08H449.24Zm17.48-13.13a20.58,20.58,0,0,1-1.78-1.64H452.89c-.56.56-1.08,1.12-1.64,1.64ZM455.55,7.71h6.59V5.89h-6.59Zm6.59,3h-6.59v1.68h6.59Zm0,4.44h-6.59v1.68h6.59Zm11.54-9.25h-7V7.71h7Z"/><path class="cls-1" d="M521.24,43.45h-4.9V40.23H495.73V43.5h-4.9V1.87h30.41Zm-4.9-36.82H495.73v11.5h20.61Zm0,16.26H495.73V35.46h20.61Z"/><rect class="cls-1" x="0.24" y="101.02" width="118.32" height="37.25" transform="translate(-1.55 0.78) rotate(-0.75)"/><path class="cls-2" d="M21,117.17l-7.74.11.19,14.91-2.76,0-.31-23.77,10.5-.14Zm-2.8-6.69-5,.07,0,1.41,5-.07Zm-5,4.64,5-.06,0-1.31-5,.07Zm4.58,8.16,0-2.31-2.53,0,0-2.34,13-.17,0,2.34-2.26,0,0,2.31,3.09,0,0,2.4-3.09,0,.08,5.93-2.53,0-.07-5.93-3.33,0a10.68,10.68,0,0,1-.94,3.45,6.67,6.67,0,0,1-3.23,3L14.64,130a5.41,5.41,0,0,0,2.52-2.43,10.4,10.4,0,0,0,.5-1.84l-3,0,0-2.4Zm5.6-2.39-3.16,0,0,2.32,3.16,0Zm-.95-3.79-.11-8.8,10.66-.14.27,20.69c0,2-.92,3-2.78,3-.93,0-1.86,0-2.79-.07l-.7-2.44c.9.07,1.73.11,2.47.1s1-.49,1-1.4L30.4,117Zm7.81-6.72-5.18.06v1.36l5.19-.07Zm-5.12,4.56,5.18-.07,0-1.27-5.18.06Z"/><path class="cls-2" d="M41.1,111.14a33.83,33.83,0,0,0-1.56-3.2l2.68-.78c.68,1.43,1.23,2.73,1.67,4l3.81,0,0,2.68-6.2.08,0,2c0,.38,0,.75,0,1.12l5.08-.07c.09,6.71,0,10.83-.19,12.38a16.73,16.73,0,0,0,5.82-5,29.38,29.38,0,0,1-2.77-5.89l2.17-1.25a22.45,22.45,0,0,0,2.11,4.54,20.84,20.84,0,0,0,1.83-8l-3.85,0a19.35,19.35,0,0,1-3.44,5.87l-1.67-2a22.29,22.29,0,0,0,4-10.29l2.71.44c-.19,1.17-.45,2.27-.72,3.33l7.26-.09,0,2.69-1.7,0a23.74,23.74,0,0,1-2.71,10.62,26.87,26.87,0,0,0,5.36,5.17L59,131.71a27.7,27.7,0,0,1-5.09-5,21.16,21.16,0,0,1-6,5.13l-1.52-2.34c-.32,1.44-1.48,2.17-3.45,2.2-.37,0-1-.05-1.89-.14l-.67-2.36c.8,0,1.49.09,2.1.08a1.36,1.36,0,0,0,1.45-1.24c.09-.8.14-3.67.13-8.57l-2.58,0q-.45,8.3-3.19,12.56l-2.21-1.88c2-3,2.93-7.75,2.9-14.32l0-2-2.47,0,0-2.69Z"/><path class="cls-2" d="M68.68,108.07a20.56,20.56,0,0,1-5.27,8l-.89-2.68a17.57,17.57,0,0,0,3.75-6.4Zm3.95,16,0-1.7-2.79.24-.5-2.2a75.15,75.15,0,0,0,8.26-.88l.79,2-3.26.52,0,2,3.22,0,0,2.24-3.22,0,0,2,3.08-.38v1a13.63,13.63,0,0,0,3.32-4.65,36,36,0,0,1-2-6.09c-.26.43-.52.83-.78,1.21l-.68-.82-9.09.12,0-2.31a22.15,22.15,0,0,1-1.2,2.27L68,131.73l-2.6,0-.13-9.89c-.53.53-1.08,1.07-1.66,1.59l-.86-2.63A16.59,16.59,0,0,0,67,114.37l2.36,1.09-.34.8,9-.12A29.45,29.45,0,0,0,80.44,107l2.43.4c-.17,1.22-.37,2.37-.59,3.43l4.7-.06,0,2.53H85.93a34.61,34.61,0,0,1-1.72,10.85,21.73,21.73,0,0,0,3.57,5.06L86,131.33A22.51,22.51,0,0,1,82.94,127a17.29,17.29,0,0,1-3.37,4.41l-1.28-2v.66c-2.55.38-5.26.71-8.16,1l-.61-2.28c1.06-.07,2.13-.16,3.16-.25l0-2.24-3.37,0,0-2.23ZM75,107.22,75,112.4h1l0-4.07,2.23,0,.09,6.41-8.88.12-.09-6.36,2.24,0,0,4,1.09,0-.07-5.18Zm6.48,9.67a29.25,29.25,0,0,0,1.28,4,35.51,35.51,0,0,0,.91-7.57l-2,0a24.9,24.9,0,0,1-1.91,4.55Z"/><path class="cls-2" d="M97.4,107.69a30,30,0,0,1-2.5,5.92l.23,17.73-2.74,0-.18-13.7c-.68.86-1.38,1.7-2.12,2.51l-1-3a29,29,0,0,0,5.66-10.74Zm4.62,1.06a29.83,29.83,0,0,1-.68,3.26l2.9,0-.07-5.24,2.8,0,.06,5.24,5.78-.07,0,2.71-5.77.07.07,5.46,6.78-.09,0,2.68-6.78.09.1,8.33-2.79,0-.11-8.32-7.42.09,0-2.68,7.42-.1-.07-5.45-3.81,0a23.44,23.44,0,0,1-2.33,4.55L96.33,117a21.63,21.63,0,0,0,3-8.55Z"/></g></g></svg>