<?xml version="1.0" encoding="utf-8"?>
<!-- Generator: Adobe Illustrator 23.0.0, SVG Export Plug-In . SVG Version: 6.00 Build 0)  -->
<svg version="1.1" id="Layer_1" xmlns="http://www.w3.org/2000/svg" xmlns:xlink="http://www.w3.org/1999/xlink" x="0px" y="0px"
	 viewBox="0 0 595.3 595.3" style="enable-background:new 0 0 595.3 595.3;" xml:space="preserve">
<style type="text/css">
	.st0{fill:#B92025;}
	.st1{fill:#040404;}
</style>
<g>
	<g>
		<g>
			<path id="XMLID_13_" class="st0" d="M336.2,191.3v-64.5V61.9h-77.6c0,0,0,26.4,0,65c0,19,0,41,0,64.4c0,62.8-2,249.4-2,249.4
				c-12,40.3-79.2,22.5-79.2,22.5v61.4c19.3,8.8,29.7,10.4,66.1,7.6c36.2-2.8,92.1-33.2,92.6-91.3L336.2,191.3z"/>
		</g>
		<g>
			<path id="XMLID_3_" class="st1" d="M496.2,178.8c-24.5-24.5-69.1-47-160.1-51.9v64.5c50.4,4,78.5,16,92.8,30.4
				c13.9,13.9,22.3,30.3,22.3,62.2s-8,49.2-21.9,63c-14.3,14.3-42.7,25.8-93.2,29.6c-11.7,0.9-24.1,1.5-38.3,1.5
				c-14.5,0-27.3-0.7-39.3-1.8c-50.2-4.4-78.7-17-92.3-30.6c-13-13-22.3-29.8-22.3-61.8c0-31.9,8-49.2,21.9-63
				c13.9-13.9,42.5-25.5,92.7-29.5c0-23.4,0-45.3,0-64.4C171.1,132,123.7,154.1,99,178.8c-25.6,25.6-39.5,57.6-39.5,105.1
				s13.9,79,39.5,104.7c24.2,24.2,69.8,46.8,157.6,52.2c12.8,0.8,26.5,1.2,41.3,1.2c13.6,0,26.3-0.4,38.2-1
				c89.6-5,135.7-27.4,160.2-51.9c25.6-25.6,39.5-57.6,39.5-105.1C535.7,235.9,521.9,204.4,496.2,178.8z"/>
		</g>
	</g>
</g>
</svg>
