<?xml version="1.0" encoding="utf-8"?>
<!-- Generator: Adobe Illustrator 21.0.0, SVG Export Plug-In . SVG Version: 6.00 Build 0)  -->
<svg version="1.1" id="Layer_1" xmlns="http://www.w3.org/2000/svg" xmlns:xlink="http://www.w3.org/1999/xlink" x="0px" y="0px"
	 viewBox="0 0 780 170" enable-background="new 0 0 780 170" xml:space="preserve">
<path id="XMLID_8_" fill="none" d="M44.3,59.1c-4.7,4.7-7.3,10.4-7.3,21.2S40,96.7,44.4,101c4.6,4.6,14.1,8.8,31,10.3
	c0-16.7,0-41,0-62.1C58.5,50.5,48.9,54.4,44.3,59.1z"/>
<path id="XMLID_7_" fill="none" d="M132.8,101.5c4.7-4.7,7.3-10.4,7.3-21.2s-2.8-16.2-7.5-20.9c-4.8-4.8-14.2-8.8-31.2-10.2v62.2
	C118.5,110.1,128,106.3,132.8,101.5z"/>
<path id="XMLID_6_" fill="#BA2027" d="M74.7,133c-4,13.5-26.6,7.6-26.6,7.6v20.6c6.5,3,10,3.5,22.2,2.5
	c12.2-0.9,30.9-11.1,31.1-30.7c-4,0.2-8.3,0.4-12.8,0.4C83.7,133.4,79.1,133.2,74.7,133z"/>
<path id="XMLID_5_" fill="#0A0808" d="M155.3,45c-8.2-8.2-23.2-15.8-53.8-17.5v21.7c16.9,1.4,26.4,5.4,31.2,10.2
	c4.7,4.7,7.5,10.2,7.5,20.9c0,10.7-2.7,16.5-7.3,21.2c-4.8,4.8-14.3,8.7-31.3,9.9c-3.9,0.3-8.1,0.5-12.9,0.5
	c-4.9,0-9.2-0.2-13.2-0.6c-16.9-1.5-26.5-5.7-31-10.3c-4.4-4.4-7.5-10-7.5-20.8s2.7-16.5,7.3-21.2c4.7-4.7,14.3-8.6,31.2-9.9
	c0-7.9,0-15.2,0-21.6C46,29.3,30.1,36.7,21.8,45C13.2,53.6,8.5,64.3,8.5,80.3s4.7,26.5,13.3,35.2c8.1,8.1,23.5,15.7,52.9,17.5
	c4.3,0.3,8.9,0.4,13.9,0.4c4.6,0,8.8-0.1,12.8-0.4c30.1-1.7,45.6-9.2,53.8-17.4c8.6-8.6,13.3-19.3,13.3-35.3
	C168.5,64.2,163.9,53.6,155.3,45z"/>
<path id="XMLID_4_" fill="#BA2027" d="M75.4,5.7c0,0,0,8.9,0,21.8c0,6.4,0,13.8,0,21.6c0,21.1,0,45.4,0,62.1c4,0.4,8.3,0.6,13.2,0.6
	c4.8,0,9-0.2,12.9-0.5V49.2V27.5V5.7H75.4z"/>
<g id="XMLID_51_">
	<path fill="#020202" d="M234.3,48.7c-2.2,1.8-4.4,3.4-6.8,4.9c-2.3,1.5-4.9,2.9-7.6,4.4c-2.7,1.4-5.8,2.9-9.2,4.3
		c-3.4,1.4-7.2,2.9-11.4,4.5c-0.6-1-1.2-1.8-1.9-2.6c-0.7-0.8-1.7-1.6-2.9-2.4c3.5-0.6,7.1-1.5,10.8-2.6c3.7-1.1,7.3-2.5,10.8-4.1
		c3.5-1.6,6.9-3.5,10.2-5.6c3.2-2.1,6.2-4.5,8.9-7.2c0.6,0.6,1.2,1.1,1.7,1.4c0.5,0.3,1.2,0.6,2.1,0.9c0.7,0.3,1.1,0.7,1,1.1
		c0,0.5-0.3,0.7-0.9,0.8c-0.7,0.1-1.2,0.2-1.7,0.3c3.3,2.2,6.6,4.1,9.9,5.6c3.3,1.6,6.5,2.9,9.6,3.9c3.1,1.1,6.1,1.9,8.9,2.5
		c2.9,0.6,5.5,1.1,8,1.3c-1.1,1-1.8,2-2.3,2.9c-0.5,0.9-0.8,1.8-1,2.8c-4.2-1.2-8-2.5-11.5-3.8c-3.5-1.3-6.7-2.7-9.6-4
		c-2.9-1.4-5.7-2.8-8.2-4.4C239,52,236.6,50.4,234.3,48.7z M232.5,22.1c-5.7,0-10.8,0-15.2,0.1s-8.3,0.2-11.5,0.4v-4.7
		c3.3,0.1,7.3,0.2,12,0.3c4.7,0.1,10,0.2,16.1,0.2c6.1,0,11.6-0.1,16.5-0.2c4.9-0.1,9-0.2,12.3-0.3v4.7c-3-0.2-6.6-0.3-10.9-0.4
		s-9.1-0.1-14.4-0.1v5c4.4,0,8.3,0,11.5,0c3.2,0,6.1-0.1,8.4-0.1c2.4,0,4.4-0.1,6-0.1c1.6-0.1,3.1-0.1,4.4-0.2v15.2H263V30.6h-25.7
		v4.1c0,0.9,0,1.6,0,2.2s0,1.1,0,1.6c0,0.5,0.1,1,0.1,1.5c0,0.5,0.1,1.1,0.1,1.8h-5.4c0.1-0.7,0.1-1.3,0.2-1.8
		c0.1-0.5,0.1-1,0.1-1.5c0-0.5,0-1,0-1.6s0-1.3,0-2.1v-4.2H206V42h-4.8V26.7c1.4,0.1,3,0.1,4.7,0.2c1.7,0.1,3.8,0.1,6.3,0.1
		c2.4,0,5.3,0.1,8.6,0.1c3.3,0,7.2,0,11.7,0L232.5,22.1L232.5,22.1z M250.5,69.9h-20c-4.5,0-8.6,0.1-12.2,0.2
		c-3.6,0.1-7.1,0.3-10.4,0.6v-5.3c3.2,0.3,7,0.5,11.5,0.6c4.5,0.1,9.4,0.2,14.6,0.2c2,0,4.2,0,6.6,0c2.4,0,4.9-0.1,7.3-0.1
		c2.4-0.1,4.6-0.1,6.7-0.3c2.1-0.1,3.8-0.3,5-0.4v4.5c-0.7,0.1-1.4,0.2-2.1,0.5c-0.8,0.3-1.9,0.9-3.4,1.8c-1.5,0.9-3.5,2.2-6,3.9
		c-2.5,1.7-5.9,4.1-10.1,7.1c1.8,0.8,3.7,1.6,5.4,2.4c1.8,0.8,3.5,1.6,5.1,2.4l-3.1,4.3c-1.7-1-3.6-2.1-5.6-3.2
		c-2.1-1.1-4.3-2.2-6.6-3.3c-2.3-1.1-4.7-2.1-7.1-3.2c-2.4-1-4.8-2-7.2-2.9l2-3.8c2.1,0.9,4.3,1.8,6.4,2.7c2.2,0.9,4.3,1.8,6.3,2.7
		L250.5,69.9z M210.1,37.8v-3.7c0.8,0.1,2,0.1,3.4,0.1c1.5,0,3,0,4.6,0c0.8,0,1.7,0,2.6,0c0.9,0,1.8,0,2.6,0c0.9,0,1.7-0.1,2.4-0.1
		c0.7,0,1.2,0,1.6,0v3.7c-0.4,0-0.9,0-1.6,0c-0.7,0-1.5-0.1-2.4-0.1c-0.9,0-1.8,0-2.6,0c-0.9,0-1.8,0-2.6,0c-1.6,0-3.2,0-4.6,0
		C212.1,37.8,211,37.8,210.1,37.8z M210.1,45v-3.8c0.8,0.1,2,0.1,3.4,0.1c1.5,0,3,0,4.6,0c0.8,0,1.7,0,2.6,0c0.9,0,1.8,0,2.6,0
		c0.9,0,1.7-0.1,2.4-0.1c0.7,0,1.2,0,1.6,0V45c-0.4,0-0.9,0-1.6,0c-0.7,0-1.5-0.1-2.4-0.1c-0.9,0-1.8,0-2.6,0c-0.9,0-1.8,0-2.6,0
		c-1.6,0-3.2,0-4.6,0C212.1,44.9,211,44.9,210.1,45z M240,64.6c-1.6-1.2-3.5-2.4-5.5-3.6c-2-1.1-4.1-2.2-6.3-3.2l2.4-3.4
		c1.1,0.6,2,1.1,2.9,1.6c0.9,0.5,1.8,1,2.8,1.6c1,0.5,1.9,1.1,3,1.7c1,0.6,2.2,1.3,3.5,2L240,64.6z M241.5,37.8v-3.7
		c0.8,0.1,2.1,0.1,3.8,0.1c1.7,0,3.4,0,5,0c1.6,0,3.1,0,4.3,0c1.3,0,2.3-0.1,3.1-0.1v3.7c-0.8-0.1-1.9-0.1-3.1-0.1
		c-1.3,0-2.7,0-4.3,0c-1.6,0-3.3,0-5,0C243.6,37.8,242.3,37.8,241.5,37.8z M241.5,44.9v-3.7c0.8,0.1,2.1,0.1,3.8,0.1
		c1.7,0,3.4,0,5,0c1.6,0,3.1,0,4.3,0c1.3,0,2.3-0.1,3.1-0.1v3.7c-0.8-0.1-1.9-0.1-3.1-0.1c-1.3,0-2.7,0-4.3,0c-1.6,0-3.3,0-5,0
		C243.6,44.8,242.3,44.8,241.5,44.9z"/>
	<path fill="#020202" d="M286.9,80.3h-5.7c0.3-1.8,0.4-3.3,0.5-4.6c0.1-1.3,0.1-2.7,0.1-4.4v-43c0-1.2,0-2.5-0.1-4
		c-0.1-1.5-0.2-2.8-0.4-3.8c1.1,0.2,2.6,0.4,4.5,0.5c2,0.1,4.7,0.2,8.1,0.2c3.4,0,6-0.1,8-0.2c2-0.1,3.4-0.3,4.5-0.5
		c-0.1,1.1-0.2,2.4-0.3,3.9c-0.1,1.5-0.1,2.8-0.1,3.9v40.3c0,1.6,0,3.1,0.1,4.5c0.1,1.4,0.2,2.9,0.5,4.5h-5.5V71h-14.2L286.9,80.3
		L286.9,80.3z M301.1,25.5h-14.2v18.2h14.2V25.5z M301.1,48.1h-14.2v18.6h14.2V48.1z M326.7,30.8c-2,0-3.8,0-5.3,0.1
		c-1.5,0.1-2.9,0.1-4.1,0.2c-1.2,0.1-2.3,0.2-3.4,0.3c-1,0.1-2.1,0.2-3.1,0.3v-5.8c1,0.1,2,0.2,3.1,0.3c1,0.1,2.2,0.2,3.4,0.3
		c1.2,0.1,2.6,0.2,4.1,0.2c1.5,0.1,3.3,0.1,5.3,0.1c0-2.4,0-4.3,0-5.9c0-1.6-0.1-2.9-0.1-3.9c0-1.1-0.1-1.9-0.2-2.6
		c-0.1-0.7-0.2-1.3-0.3-1.8c1.4,0.3,2.6,0.5,3.5,0.5s2,0.1,3.3,0c0.7-0.1,1.1,0.2,1.2,0.6c0.1,0.5-0.4,1-1.3,1.7
		c-0.4,0.3-0.7,0.7-0.8,1.3c-0.1,0.6-0.1,1.5-0.1,2.8v7.1c4.5,0,8.2-0.1,10.9-0.3c2.7-0.2,5.2-0.4,7.3-0.7v5.8
		c-2.1-0.3-4.7-0.5-7.7-0.6c-3-0.1-6.5-0.2-10.5-0.3v10.8c2.8,0,5.2,0,7.3,0c2,0,3.9-0.1,5.6-0.2s3.2-0.2,4.7-0.3
		c1.5-0.1,3-0.3,4.5-0.4v6c-1.1-0.1-2-0.2-2.9-0.3s-1.8-0.2-2.6-0.3c-0.9-0.1-1.9-0.1-2.9-0.2c-1.1,0-2.3-0.1-3.7-0.1v10.8
		c1.5,0,3,0,4.5,0c1.5,0,2.8-0.1,4-0.1c1.2-0.1,2.3-0.1,3.2-0.2c0.9-0.1,1.6-0.1,2.1-0.2v5c-0.4-0.1-1.1-0.1-2.1-0.2
		c-0.9-0.1-2-0.1-3.2-0.2c-1.2-0.1-2.5-0.1-4-0.1c-1.5,0-2.9,0-4.5,0v21.4c0,1.5-0.1,2.7-0.4,3.6c-0.3,1-0.8,1.7-1.8,2.4
		c-0.9,0.6-2.3,1.1-4.1,1.3c-1.8,0.3-4.3,0.4-7.4,0.5c0.3-1.3,0.4-2.5,0.2-3.5c-0.2-1.1-0.9-2.1-2-3c2,0.5,3.6,0.8,5,1
		c1.3,0.2,2.4,0.1,3.2-0.2c0.8-0.3,1.4-0.8,1.8-1.6s0.5-1.9,0.5-3.3V60.5h-15.5c-3.4,0-6.2,0.1-8.3,0.2c-2.1,0.1-3.7,0.2-4.6,0.3v-5
		c1,0.1,2.5,0.2,4.6,0.3c2.1,0.1,4.9,0.2,8.3,0.2h15.5V45.7c-4.2,0-7.6,0-10.3,0c-2.7,0-4.9,0.1-6.8,0.1c-1.9,0.1-3.6,0.2-5.1,0.3
		c-1.5,0.1-3.3,0.3-5.2,0.5v-6c1.5,0.2,2.9,0.3,4.3,0.4s2.7,0.2,4.1,0.3c1.4,0.1,2.8,0.2,4.3,0.2c1.5,0.1,3.1,0.1,4.8,0.1
		L326.7,30.8L326.7,30.8z M323.5,78c-0.6-1.1-1.2-2.2-1.8-3.1c-0.6-1-1.3-1.9-2-2.8c-0.7-0.9-1.5-1.8-2.3-2.7
		c-0.8-0.9-1.8-1.9-2.8-2.9l3.8-3.1c2.3,2.2,4.2,4.2,5.7,6.1c1.5,1.9,2.8,3.7,3.9,5.4L323.5,78z"/>
	<path fill="#020202" d="M388.6,48.5c3,0,5.5-0.1,7.4-0.2c1.9-0.1,3.5-0.3,4.8-0.4v5.3c-1.3-0.2-2.9-0.4-4.8-0.5
		c-1.9-0.1-4.4-0.2-7.4-0.2v21.9c2.5-0.7,4.8-1.4,7-2.1c2.2-0.8,4.2-1.6,6-2.4c-0.2,1-0.2,1.9-0.1,2.7c0.1,0.9,0.2,1.7,0.5,2.5
		c-3.4,1-6.8,1.9-10.4,2.9c-3.6,1-7.1,1.8-10.4,2.7c-3.4,0.8-6.5,1.6-9.4,2.3c-2.9,0.7-5.3,1.3-7.3,1.7c-0.1-1.1-0.3-2.1-0.6-3.1
		c-0.3-1-0.7-2-1.1-2.9c1.2-0.1,2.4-0.1,3.7-0.3c1.2-0.1,2.4-0.2,3.7-0.3V51.4c0-2.7,0-4.9-0.1-6.5c-0.1-1.6-0.2-3-0.5-4.3
		c2.1,0.4,4.2,0.6,6.5,0.8c0.7,0.1,1.1,0.3,1.2,0.6c0.1,0.3-0.1,0.7-0.7,1.1c-1.1,0.7-1.6,2.5-1.6,5.3v29.1c3.1-0.5,6.1-1.1,9-1.8
		v-49c-4,0-7.4,0.1-10.4,0.2c-2.9,0.1-5.5,0.3-7.6,0.5v-5.2c2.2,0.2,4.8,0.4,7.8,0.5c3,0.1,6.6,0.2,10.7,0.2c4.1,0,7.7-0.1,10.7-0.2
		c3-0.1,5.6-0.3,7.8-0.5v5.2c-1.8-0.2-3.8-0.3-6.1-0.4c-2.3-0.1-5-0.2-8-0.3L388.6,48.5L388.6,48.5z M408.4,35.9
		c-1.9,3.9-3.9,7.2-6,9.8c-0.9-0.6-1.8-1.1-2.7-1.4c-0.9-0.3-1.9-0.6-3-0.8c4.3-4.8,7.5-9.6,9.7-14.5c2.2-4.8,3.6-10.1,4.1-15.8
		c0.8,0.3,1.8,0.6,3,0.8c1.1,0.3,2.3,0.5,3.4,0.7c0.7,0.1,1.1,0.4,1.2,0.7c0.1,0.4-0.1,0.7-0.6,1.1c-0.8,0.6-1.5,1.5-2.1,2.5
		c-0.6,1.1-1.2,2.5-1.8,4.4c-0.4,1.3-0.8,2.6-1.3,3.9c-0.5,1.3-1.1,2.7-1.7,4.1H427c3.1,0,5.6,0,7.5-0.1c1.9-0.1,3.4-0.2,4.5-0.5
		v5.5c-0.8-0.2-1.8-0.4-3.2-0.4c-1.3-0.1-2.9-0.1-4.8-0.2c-0.4,4-1,7.6-1.5,10.8c-0.6,3.1-1.2,6-1.9,8.5c-0.7,2.5-1.6,4.8-2.5,6.9
		c-1,2-2,4-3.2,5.8c1.5,1.8,2.9,3.4,4.2,4.8c1.3,1.4,2.8,2.7,4.3,3.9c1.5,1.2,3.2,2.4,5.1,3.4c1.8,1.1,4,2.3,6.5,3.5
		c-0.4,0.2-0.9,0.5-1.4,1c-0.5,0.4-0.9,0.9-1.4,1.3c-0.4,0.4-0.9,0.9-1.2,1.4c-0.4,0.5-0.6,0.9-0.8,1.2c-1.6-1-3.3-2.1-4.9-3.4
		c-1.7-1.3-3.3-2.6-4.8-4c-1.6-1.4-3.1-2.9-4.5-4.4s-2.8-3-4-4.5c-3.1,3.9-6.6,7.2-10.3,9.9c-3.8,2.7-7.6,5-11.7,6.8
		c-0.6-0.7-1.3-1.5-2.4-2.4c-1-0.8-2.1-1.6-3.4-2.3c5.2-1.2,9.8-3.2,13.9-6c4.1-2.7,7.7-6.1,10.9-10c-1-1.4-2-3-3.1-4.7
		c-1-1.8-2-3.6-2.9-5.5s-1.8-3.9-2.6-5.9c-0.8-2-1.5-4-2-6l4.1-1.4c0.4,1.7,0.9,3.4,1.6,5.1c0.6,1.7,1.4,3.4,2.2,5.1
		c0.8,1.7,1.7,3.3,2.6,4.8c1,1.6,1.9,3,2.9,4.4c1.9-3.2,3.5-7.3,4.8-12.1c1.3-4.8,2-10.2,2.2-15.9L408.4,35.9L408.4,35.9z"/>
	<path fill="#020202" d="M493.3,24.1c8.7,0,15.4,0,20-0.1c4.6-0.1,7.6-0.2,9-0.5v5.2c-0.7-0.1-1.8-0.2-3.4-0.3
		c-1.5-0.1-3.3-0.1-5.3-0.2c-2-0.1-4.2-0.1-6.6-0.1s-4.7,0-7.1,0h-38v22.2c0,4.1-0.1,7.8-0.3,11.1c-0.2,3.3-0.6,6.5-1.1,9.4
		c-0.6,2.9-1.3,5.8-2.3,8.5c-1,2.7-2.3,5.6-3.8,8.5c-0.6-0.6-1.4-1.1-2.4-1.5c-1-0.4-2.1-0.8-3.4-0.9c1.8-2.6,3.3-5.2,4.5-7.8
		c1.1-2.6,2-5.4,2.6-8.3c0.6-2.9,1-6.1,1.2-9.4c0.2-3.4,0.3-7.1,0.3-11.3c0-2.4,0-4.5,0-6.4s0-3.8-0.1-5.8c-0.1-1.9-0.1-3.9-0.2-6
		c-0.1-2.1-0.1-4.4-0.2-7.1c0.7,0.1,1.7,0.2,2.9,0.3c1.3,0.1,3.1,0.1,5.5,0.2c2.4,0.1,5.3,0.1,9,0.1c3.6,0,8.1,0,13.5,0
		c-0.7-1.3-1.6-2.6-2.6-3.9c-1-1.3-2.1-2.6-3.2-3.8l5.4-2.7c1.1,1.4,2.1,3,3.2,4.7C491.5,20.2,492.5,22.1,493.3,24.1z M476.8,89.7
		h-5.6c0.3-2.4,0.5-5.2,0.7-8.3s0.3-6.2,0.3-9.2V50.4c-0.8,1.1-1.7,2.2-2.5,3.2c-0.8,1-1.7,1.9-2.6,2.9c-0.8-1.3-2.4-2.4-4.5-3.2
		c1.8-1.4,3.6-3,5.2-4.9c1.7-1.8,3.2-3.8,4.5-5.8s2.6-4.1,3.7-6.2c1.1-2.1,1.9-4.2,2.6-6.2c0.7,0.6,1.5,1,2.5,1.4
		c1,0.4,1.9,0.7,2.7,0.9c0.7,0.2,1.1,0.4,1.2,0.8c0.1,0.4-0.2,0.7-0.9,1c-0.7,0.3-1.4,0.8-2.1,1.5c-0.7,0.7-1.6,2-2.8,4
		c-0.4,0.7-0.9,1.3-1.2,1.9c-0.4,0.6-0.7,1.2-1.1,1.8L476.8,89.7L476.8,89.7z M512,45.6c2.5,0,4.7,0,6.7-0.1
		c1.9-0.1,3.7-0.2,5.2-0.3v5c-1.6-0.1-3.3-0.2-5.2-0.3c-1.9-0.1-4.2-0.1-6.7-0.1v31.1c0,1.5-0.1,2.7-0.4,3.6c-0.3,1-0.9,1.7-2,2.4
		c-1,0.6-2.6,1.1-4.6,1.5c-2,0.4-4.8,0.7-8.2,1c-0.1-1.2-0.3-2.3-0.7-3.4c-0.3-1.1-1-2.2-1.8-3.3c3,0.4,5.3,0.6,7,0.7
		c1.7,0.1,3,0,3.9-0.3c0.9-0.3,1.4-0.8,1.6-1.6c0.2-0.8,0.3-1.8,0.3-3.2V49.8h-12.7c-2.9,0-5.4,0-7.6,0.1c-2.2,0.1-4.1,0.2-5.8,0.3
		v-5c1.7,0.1,3.6,0.2,5.8,0.3c2.2,0.1,4.7,0.1,7.6,0.1h12.7v-5.7c0-2.7,0-4.7-0.1-6c-0.1-1.3-0.1-2.3-0.3-3.2c1.2,0.2,2.2,0.4,3,0.4
		c0.8,0.1,1.6,0.1,2.5,0c1-0.1,1.5,0.1,1.7,0.5c0.2,0.4,0,0.7-0.4,1c-0.6,0.4-1,1-1.3,1.5c-0.2,0.6-0.3,1.1-0.3,1.6V45.6z
		 M496.2,72.1c-1.7-2.5-3.7-5.1-6-7.6c-2.3-2.6-4.5-4.8-6.7-6.6l3.5-3.6c1,0.9,2.1,1.9,3.3,3.1c1.2,1.1,2.4,2.4,3.6,3.6
		c1.2,1.3,2.3,2.5,3.4,3.8c1.1,1.3,2.2,2.5,3.1,3.7L496.2,72.1z"/>
	<path fill="#020202" d="M542.4,35.6c-4.5,0.1-8,0.4-10.5,0.8v-5.5c2.5,0.4,6,0.6,10.5,0.8c-0.1-4.4-0.2-8.1-0.4-11
		c-0.2-2.9-0.4-5-0.7-6.2c1.3,0.3,2.4,0.4,3.4,0.5c1,0.1,1.9,0.1,2.6,0c1.5-0.1,2.3,0.1,2.4,0.5c0.1,0.4-0.2,0.9-1.1,1.6
		c-0.9,0.7-1.3,1.8-1.3,3.3v11.3c1.8-0.1,3.4-0.1,4.7-0.3c1.3-0.1,2.6-0.3,3.7-0.5v5.5c-1.1-0.2-2.4-0.4-3.7-0.5
		c-1.3-0.1-2.9-0.2-4.7-0.2v15.7c2.6-1.3,5-2.7,7.4-4.3c0,1,0.1,1.8,0.3,2.6c0.2,0.8,0.5,1.5,0.9,2.1c-1.3,0.6-2.7,1.3-4.2,2
		c-1.5,0.7-2.9,1.4-4.4,2.2v24.7c0,1.8-0.1,3.3-0.3,4.4c-0.2,1.1-0.8,2.1-1.6,2.8c-0.8,0.7-2.1,1.2-3.7,1.5
		c-1.6,0.3-3.8,0.4-6.6,0.4c-0.1-2.1-0.6-4.2-1.7-6.2c1.9,0.3,3.5,0.4,4.7,0.4c1.2,0,2.1-0.2,2.7-0.5c0.6-0.4,1-0.9,1.3-1.7
		c0.2-0.8,0.3-1.8,0.3-3V58.5c-3.3,1.8-6.4,3.6-9.2,5.3c-0.2-1.1-0.5-2.1-0.9-3c-0.4-0.9-0.9-1.9-1.7-3c4.1-1.2,8-2.6,11.8-4.2
		L542.4,35.6L542.4,35.6z M566.3,25.5c-1.7,0.3-3.2,0.6-4.5,0.8c-1.3,0.2-2.7,0.4-4.1,0.5c-0.1-0.8-0.2-1.5-0.4-2.2
		c-0.2-0.7-0.6-1.5-1.1-2.4c3-0.1,5.6-0.3,7.8-0.5c2.2-0.2,4.1-0.5,5.8-0.8c1.7-0.4,3.1-0.8,4.4-1.3c1.3-0.5,2.4-1.1,3.6-1.8
		c0.6,1,1.1,1.7,1.5,2.1c0.4,0.5,0.8,0.9,1.3,1.4c0.8,0.7,1.1,1.3,0.8,1.7c-0.3,0.4-0.9,0.5-1.8,0.3c-0.4-0.1-1.3-0.1-2.6,0.1
		s-3.2,0.5-5.8,1v14.1c1.8-0.1,3.3-0.1,4.5-0.3c1.2-0.1,2.4-0.3,3.6-0.4v5.1c-1.2-0.2-2.4-0.3-3.6-0.5c-1.2-0.1-2.7-0.2-4.5-0.3v2.6
		c1.9,1.8,3.7,3.8,5.5,6c1.8,2.2,3.4,4.3,4.8,6.5l-4.2,2.9c-1.5-3.1-3.5-6.5-6.1-10.2v24.9c0,2.1,0.1,4.4,0.2,6.9
		c0.1,2.5,0.3,5,0.5,7.6h-6.1c0.2-2.5,0.4-5,0.5-7.6c0.1-2.5,0.2-4.8,0.2-6.9V51.5c-1.5,3.5-3.1,6.7-4.7,9.6c-1.7,2.9-3.6,5.9-5.8,9
		c-0.6-1-1.2-1.7-1.8-2.2c-0.6-0.5-1.5-1-2.6-1.3c3.4-3.4,6.2-7,8.5-11c2.3-3.9,4.3-8.4,6-13.4c-2.4,0.1-4.2,0.2-5.7,0.3
		s-2.8,0.3-4.2,0.5v-5.1c1.4,0.2,2.8,0.4,4.3,0.5c1.5,0.1,3.4,0.2,5.8,0.2L566.3,25.5L566.3,25.5z M592.2,62.7
		c-1.3,5.5-3.2,10.5-5.7,14.9c-2.5,4.5-5.6,8.6-9.3,12.6c-0.6-0.9-1.2-1.6-1.7-2c-0.5-0.4-1.3-0.8-2.4-1.1c2.6-2.2,4.8-4.6,6.7-7.1
		c1.9-2.5,3.5-5.2,4.8-8.1c1.3-2.9,2.4-6.1,3.1-9.6s1.3-7.4,1.7-11.7c0.2-2.9,0.4-5.9,0.5-9.2c0.1-3.3,0.1-6.6,0.1-9.8
		c-0.1-3.2-0.2-6.3-0.3-9.2c-0.1-2.9-0.4-5.4-0.6-7.4c1.3,0.3,2.5,0.5,3.5,0.6c1,0.1,2,0.2,3.1,0.2c0.6,0,1,0.2,1.1,0.5
		c0.1,0.3-0.1,0.8-0.7,1.3c-0.3,0.3-0.5,0.7-0.7,1.3c-0.2,0.6-0.4,1.8-0.5,3.5s-0.3,4.3-0.3,7.5c-0.1,3.2-0.1,7.6-0.1,13.2
		c0,2.1-0.1,4.2-0.2,6.2c-0.1,2-0.3,4-0.5,6c2.1,6.7,4.5,12.6,7.3,17.8c2.8,5.2,5.8,9.2,9,12.1c-0.8,0.4-1.6,0.9-2.4,1.5
		c-0.8,0.6-1.5,1.4-2.2,2.3c-2.7-3.2-5.2-7-7.4-11.4C595.7,73.2,593.8,68.3,592.2,62.7z M585.8,32.1c-0.1,3.5-0.3,6.9-0.6,10.1
		s-0.9,6.5-1.6,9.9l-4.3-0.9c1.1-3,1.8-6.2,2.2-9.4c0.3-3.2,0.4-6.6,0.1-10L585.8,32.1z M607.1,33.9c0.7,0.2,1,0.4,1,0.8
		c0,0.4-0.4,0.9-1.4,1.4c-0.2,0.2-0.5,0.5-0.8,0.9c-0.3,0.4-0.7,1.1-1.2,2.1c-0.5,1-1.1,2.4-1.9,4.2c-0.8,1.8-1.7,4.2-2.8,7.1
		c-1-1-2.4-1.7-4.3-2.1c1.4-1.8,2.6-4.3,3.7-7.5c1.1-3.1,1.8-6.4,2.1-9.7c1,0.7,1.9,1.2,2.9,1.7C605.5,33.4,606.4,33.7,607.1,33.9z"
		/>
	<path fill="#020202" d="M636.2,31.1c2.6,0,4.9-0.1,7-0.2c2.1-0.1,3.8-0.3,5.3-0.5v5.7c-1.5-0.2-3.2-0.4-5.3-0.5
		c-2.1-0.1-4.4-0.2-7-0.2v5.2c2.1,2.3,4.1,4.7,6.2,7.3c2,2.5,4.2,5.3,6.3,8.3l-4.8,3.5c-1.1-2.1-2.3-4.4-3.6-6.8
		c-1.3-2.4-2.7-4.6-4.1-6.7V75c0,2.1,0.1,4.5,0.2,7.2c0.1,2.7,0.3,5.4,0.6,8.1h-6.6c0.3-2.7,0.5-5.4,0.6-8.1
		c0.1-2.7,0.2-5.1,0.2-7.2V47.1c-1.6,4.5-3.3,8.8-5.2,12.7c-1.9,3.9-4,7.9-6.5,11.7c-1.1-1.7-2.7-3-4.7-3.7
		c3.4-4.3,6.5-8.9,9.2-14.1c2.7-5.1,5.1-11,7.2-17.5v-0.8c-2.9,0-5.5,0.1-7.9,0.2c-2.4,0.1-4.4,0.3-5.9,0.5v-5.7
		c1.6,0.2,3.6,0.4,6,0.5c2.4,0.1,5,0.2,7.9,0.2c0-3.1,0-5.6,0-7.6c0-2,0-3.6-0.1-4.9c-0.1-1.3-0.1-2.4-0.2-3.2
		c-0.1-0.8-0.1-1.7-0.2-2.5c1.2,0.4,2.3,0.6,3.1,0.8c0.9,0.1,1.9,0.1,3,0.1c1-0.1,1.6,0.1,1.8,0.5s-0.2,0.9-1.2,1.6
		c-0.5,0.3-0.9,0.7-1.1,1c-0.2,0.3-0.3,1-0.3,1.8L636.2,31.1L636.2,31.1z M662.6,21.8c0.6,0,1,0.2,1,0.6c0.1,0.4-0.2,0.8-0.8,1.3
		c-0.8,0.4-1.5,1.2-2.2,2.4c-0.7,1.1-1.3,2.6-1.9,4.5c-0.6,2.2-1.2,4.3-1.8,6.2c-0.6,1.9-1.3,3.7-1.9,5.4c-0.7,1.7-1.4,3.4-2.2,5
		c-0.8,1.6-1.7,3.2-2.6,4.9c-0.8-0.8-1.7-1.4-2.4-1.8c-0.8-0.4-1.7-0.7-2.9-1c1.5-1.7,2.8-3.4,4-5.2c1.1-1.8,2.2-3.9,3.1-6.1
		c0.9-2.3,1.8-4.9,2.5-7.8c0.8-2.9,1.5-6.3,2.3-10.2c0.8,0.5,1.7,1,2.7,1.3C660.4,21.4,661.4,21.7,662.6,21.8z M679.7,77
		c-0.9-1.9-1.9-3.8-3-5.8c-1.1-2-2.4-4.1-3.9-6.3l4.2-2.4c2.7,4.3,5.1,8.3,7.2,12c2.1,3.8,3.9,7.3,5.5,10.6l-5.8,2.5
		c-0.3-1.1-0.7-2.3-1.1-3.4c-0.4-1.1-0.9-2.3-1.3-3.4l-25.2,2c-1.4,0.1-3,0.4-4.7,0.9c-1.7,0.5-3.2,1-4.4,1.5
		c-0.1-1.1-0.3-2.2-0.7-3.3c-0.3-1.1-0.8-2.1-1.3-3c0.8,0.1,1.7,0.1,2.6,0.1c1,0,2,0,3,0c1.6-3.1,3.1-6.4,4.5-9.7
		c1.5-3.4,2.8-6.6,3.9-9.8c1.1-3.2,2.1-6.1,2.9-8.9c0.8-2.8,1.3-5.2,1.7-7.2c1.1,0.6,2.3,1.1,3.6,1.4c1.3,0.3,2.3,0.5,3.1,0.6
		c0.8,0.1,1.2,0.4,1.3,0.7c0.1,0.4-0.1,0.7-0.8,1.1c-0.4,0.3-0.8,0.6-1.2,0.9s-0.7,0.8-1,1.3c-0.3,0.5-0.7,1.1-1,1.9
		s-0.7,1.7-1.2,2.9c-2.2,5.4-4.1,10-5.9,13.9c-1.7,3.9-3.4,7.4-4.9,10.6L679.7,77z M693.6,48.9c-1.3,0.7-2.3,1.3-2.9,2
		c-0.7,0.6-1.3,1.6-2,2.9c-2.3-2.4-4.3-4.8-5.9-7.4c-1.7-2.6-3-5.2-4.1-7.9c-1.1-2.7-1.9-5.3-2.6-8c-0.6-2.7-1.1-5.3-1.3-8h-3.7
		c-1.1,0-2,0-2.8,0.1c-0.8,0.1-1.9,0.2-3.2,0.4v-5.4c0.7,0.1,1.3,0.2,1.8,0.3s1,0.2,1.5,0.2c0.5,0.1,1,0.1,1.6,0.1c0.6,0,1.2,0,2,0
		c1.1,0,2.1,0,3-0.1c1-0.1,2.1-0.2,3.4-0.5c0.8,7.8,2.4,14.2,4.8,19.2C685.7,41.7,689.2,45.8,693.6,48.9z"/>
	<path fill="#020202" d="M710.7,90.6h-5.2c0.1-1.1,0.2-2.2,0.3-3.2c0.1-1,0.1-2,0.2-3.1c0.1-1.1,0.1-2.2,0.1-3.4s0-2.6,0-4.2V25.2
		c0-1.7,0-3.1-0.1-4.1c-0.1-1-0.1-2.1-0.3-3.2c0.8,0.1,1.9,0.2,3.1,0.2c1.2,0,3,0.1,5.3,0.1c2.4,0.1,5.5,0.1,9.3,0.1s8.8,0,15,0
		s11.1,0,15,0s7,0,9.3-0.1c2.4-0.1,4.1-0.1,5.3-0.1c1.2,0,2.2-0.1,3-0.2c-0.1,0.6-0.2,1.1-0.2,1.5c0,0.4-0.1,1-0.1,1.5
		c0,0.6,0,1.2,0,1.8s0,1.5,0,2.4v50.9c0,1.6,0,3,0,4.2c0,1.2,0,2.3,0.1,3.4c0.1,1.1,0.1,2.1,0.2,3.1c0.1,1,0.1,2.1,0.3,3.2H766v-5
		h-55.3L710.7,90.6L710.7,90.6z M766,21.9h-55.3v59.2H766V21.9z M736.1,31.2c-5,0-9.1,0-12.4,0.1c-3.3,0.1-6.4,0.2-9.2,0.3v-3.7
		c1.5,0.1,2.9,0.2,4.4,0.3c1.5,0.1,3.1,0.1,4.8,0.1c1.7,0,3.6,0.1,5.6,0.1c2,0,4.3,0,6.8,0c0-1.3,0-2.3-0.1-3
		c-0.1-0.6-0.1-1.2-0.3-1.7c1.1,0.1,2.1,0.2,2.9,0.3c0.8,0.1,1.7,0.1,2.7,0c0.5,0,0.8,0.1,0.8,0.4c0.1,0.3-0.2,0.6-0.7,0.8
		c-0.3,0.2-0.6,0.5-0.7,1s-0.2,1.2-0.2,2.2c2.4,0,4.6,0,6.6,0c2,0,3.8-0.1,5.5-0.1c1.7-0.1,3.2-0.1,4.7-0.2c1.5-0.1,2.9-0.1,4.3-0.2
		v3.5c-1.4-0.1-2.7-0.1-3.9-0.1c-1.2,0-2.6-0.1-4.1-0.1c-1.5,0-3.3,0-5.4,0c-2.1,0-4.6,0-7.6,0v4.2c3,0,5.5,0,7.4,0
		c1.9,0,3.4,0,4.5,0c1.1,0,2.1-0.1,2.7-0.1c0.7-0.1,1.3-0.1,2-0.2c-0.1,0.8-0.2,1.6-0.3,2.5c-0.1,0.9-0.1,2.1-0.1,3.6v5
		c0,1.5,0,2.6,0.1,3.4c0.1,0.7,0.2,1.5,0.3,2.4c-0.4-0.1-1-0.2-1.6-0.2c-0.6,0-1.3-0.1-2-0.1c1.3,1.2,2.6,2.4,4,3.8
		c1.4,1.3,2.6,2.5,3.5,3.4l-3.6,2.6c-1-1.5-2.1-2.9-3.4-4.2l-3.4,0.2v5.5c3,0,5.5,0,7.4-0.1c1.9-0.1,3.8-0.1,5.8-0.3v3.5
		c-1.8-0.1-3.8-0.2-5.8-0.3c-2-0.1-4.5-0.1-7.4-0.1V73c0,1.3-0.1,2.3-0.3,3.1c-0.2,0.8-0.7,1.4-1.4,1.9c-0.7,0.5-1.8,0.9-3.2,1.1
		c-1.4,0.2-3.2,0.4-5.5,0.4c0.1-1,0-1.8-0.3-2.6s-0.7-1.5-1.3-2.3c1.7,0.3,3.1,0.4,4.2,0.4c1,0,1.8-0.1,2.4-0.4
		c0.6-0.3,0.9-0.6,1.1-1c0.1-0.4,0.2-0.9,0.2-1.5v-6.5h-18.9c-2.7,0-5.2,0-7.5,0.1c-2.2,0.1-4.4,0.2-6.5,0.3v-3.7
		c2,0.1,4.2,0.2,6.5,0.3c2.3,0.1,4.8,0.1,7.6,0.1h18.8v-5.3l-17.5,0.8c-0.7,0.1-1.5,0.1-2.6,0.3c-1.1,0.1-2.2,0.2-3.3,0.4
		c-1.1,0.1-2.2,0.3-3.2,0.4c-1,0.1-1.8,0.3-2.4,0.4c-0.2-1-0.5-1.8-0.8-2.4c-0.3-0.7-0.7-1.4-1.2-2.2c1.3,0.2,2.6,0.3,4,0.3
		c1.4,0.1,2.9,0.1,4.5,0.1c1.6,0,3.4,0,5.4,0c2,0,4.1-0.1,6.6-0.2v-4h-7.9c-1.4,0-2.6,0-3.5,0s-1.8,0-2.4,0c-0.7,0-1.3,0.1-1.8,0.1
		c-0.5,0.1-1,0.1-1.5,0.2c0.2-0.8,0.4-1.6,0.4-2.4c0.1-0.8,0.1-1.8,0.1-3.2v-5c0-1.6,0-2.8-0.1-3.8c-0.1-1-0.2-1.7-0.3-2.2
		c0.9,0.1,1.8,0.1,2.6,0.2c0.8,0.1,1.8,0.1,3.1,0.1c1.2,0,2.7,0,4.5,0c1.8,0,4.1,0,6.9,0L736.1,31.2L736.1,31.2z M736.1,38h-12.3
		v4.1h12.3V38z M736.1,44.6h-12.3v4.1h12.3V44.6z M733,75.5c-1.1-1.3-2.5-2.6-4.3-3.9c-1.7-1.3-3.3-2.4-4.7-3.1l2.9-2.1
		c1.7,0.8,3.5,1.8,5.2,3c1.7,1.1,3.1,2.3,4.3,3.4L733,75.5z M740.6,42.1h11.9V38h-11.9V42.1z M740.6,48.7h11.9v-4.1h-11.9V48.7z
		 M751.9,54.7c-0.4-0.3-0.8-0.7-1.1-1s-0.8-0.7-1.2-1l1.6-1.3h-10.5v3.9L751.9,54.7z"/>
</g>
<g id="XMLID_53_">
	<path fill="#020202" d="M219.9,122.2c0.6,0.7,1,1.6,1.4,2.5c0.3,1,0.5,2,0.5,3.1c0,1.6-0.3,3.1-0.9,4.5s-1.4,2.5-2.5,3.5
		c-1.1,1-2.4,1.7-3.9,2.2c-1.5,0.5-3.2,0.8-5,0.8c-1.3,0-2.5-0.1-3.7-0.4c-1.1-0.3-2.1-0.6-2.7-1c-0.4,0.6-0.7,1.1-1,1.7
		c-0.3,0.5-0.4,1.1-0.4,1.8c0,0.8,0.4,1.4,1.1,2c0.8,0.5,1.8,0.8,3,0.8l8.2,0.3c1.6,0,3,0.2,4.3,0.6c1.3,0.4,2.5,0.9,3.4,1.5
		c0.9,0.7,1.7,1.5,2.2,2.5s0.8,2.1,0.8,3.4c0,1.4-0.3,2.7-0.9,4c-0.6,1.2-1.5,2.3-2.8,3.3c-1.3,0.9-2.9,1.7-4.8,2.3
		s-4.2,0.8-6.9,0.8c-2.5,0-4.7-0.2-6.5-0.6s-3.2-1-4.4-1.7c-1.1-0.7-2-1.6-2.5-2.6c-0.5-1-0.8-2.1-0.8-3.3c0-1.5,0.4-2.9,1.1-4
		s1.8-2.2,3.3-3.3c-0.5-0.2-1-0.6-1.4-0.9c-0.4-0.4-0.7-0.8-1-1.2c-0.2-0.4-0.4-0.9-0.6-1.4s-0.2-1-0.2-1.5c0-1.4,0.3-2.6,1-3.7
		c0.6-1.1,1.4-2.2,2.3-3.2c-0.4-0.5-0.7-0.9-1-1.4c-0.3-0.5-0.6-1-0.8-1.5s-0.4-1.1-0.5-1.7c-0.1-0.6-0.2-1.3-0.2-2.1
		c0-1.6,0.3-3.1,0.9-4.5s1.4-2.5,2.5-3.5c1.1-1,2.4-1.7,3.9-2.2c1.5-0.5,3.2-0.8,5-0.8c0.8,0,1.5,0.1,2.2,0.2
		c0.7,0.1,1.3,0.2,1.9,0.4H225v4.4L219.9,122.2L219.9,122.2z M201.1,153.7c0,1.5,0.8,2.6,2.3,3.2c1.5,0.7,3.7,1,6.4,1
		c1.7,0,3.2-0.2,4.4-0.5c1.2-0.3,2.1-0.7,2.8-1.2c0.7-0.5,1.2-1.1,1.5-1.8s0.5-1.3,0.5-2c0-1.3-0.5-2.2-1.6-2.8
		c-1-0.6-2.6-1-4.8-1.1l-8.2-0.3c-0.7,0.5-1.3,0.9-1.7,1.3c-0.4,0.4-0.8,0.9-1,1.3c-0.2,0.4-0.4,0.9-0.5,1.3
		C201.1,152.8,201.1,153.2,201.1,153.7z M202.7,128c0,1,0.2,1.9,0.5,2.8c0.3,0.8,0.8,1.5,1.4,2.1c0.6,0.6,1.3,1,2.1,1.4
		c0.8,0.3,1.7,0.5,2.7,0.5c1.1,0,2-0.2,2.9-0.5c0.8-0.4,1.6-0.9,2.1-1.5c0.6-0.6,1-1.3,1.3-2.2c0.3-0.8,0.5-1.7,0.5-2.5
		c0-1-0.2-1.9-0.5-2.8c-0.3-0.8-0.8-1.5-1.4-2.1c-0.6-0.6-1.3-1-2.1-1.4c-0.8-0.3-1.7-0.5-2.7-0.5c-1.1,0-2,0.2-2.9,0.6
		s-1.6,0.9-2.1,1.5c-0.6,0.6-1,1.3-1.3,2.1C202.9,126.3,202.7,127.2,202.7,128z"/>
	<path fill="#020202" d="M260,128.8c0,3.1-0.3,6-0.9,8.5c-0.6,2.6-1.6,4.8-2.8,6.6s-2.9,3.3-4.7,4.3c-1.9,1-4.1,1.5-6.6,1.5
		c-2.2,0-4.2-0.4-6-1.2c-1.8-0.8-3.3-2.1-4.6-3.8c-1.3-1.7-2.2-3.9-2.9-6.5c-0.7-2.6-1-5.8-1-9.4c0-3.1,0.3-6,1-8.6
		c0.6-2.6,1.6-4.8,2.8-6.6c1.3-1.8,2.8-3.3,4.7-4.3s4.1-1.5,6.6-1.5c2.2,0,4.2,0.4,6,1.2c1.8,0.8,3.3,2.1,4.6,3.8
		c1.3,1.7,2.2,3.9,2.9,6.5C259.6,122,260,125.1,260,128.8z M235.8,128.6c0,0.6,0,1.3,0,1.9c0,0.6,0,1.3,0.1,1.9l17.3-12.8
		c-0.3-1.1-0.7-2-1.2-2.9c-0.5-0.9-1.1-1.6-1.7-2.3c-0.7-0.6-1.4-1.1-2.3-1.5c-0.9-0.4-1.8-0.5-2.9-0.5c-1.4,0-2.7,0.3-3.9,1
		s-2.1,1.7-3,3.1c-0.8,1.4-1.4,3.1-1.9,5.1C236,123.6,235.8,125.9,235.8,128.6z M254.5,128.9c0-0.7,0-1.4-0.1-2.1
		c-0.1-0.7-0.1-1.4-0.2-2l-17.3,12.8c0.3,1.1,0.7,2.1,1.2,3c0.5,0.9,1.1,1.7,1.7,2.4c0.7,0.7,1.4,1.2,2.3,1.5c0.9,0.4,1.8,0.5,3,0.5
		c1.4,0,2.7-0.3,3.9-1s2.1-1.7,3-3.1s1.4-3,1.9-5C254.2,133.9,254.5,131.6,254.5,128.9z"/>
	<path fill="#020202" d="M264.8,117.8h6.2l7.7,20.8l1.7,5.1l1.7-5.2l7.6-20.6h6l-12.3,31.4h-6.2L264.8,117.8z"/>
	<path fill="#020202" d="M359.3,117.8v30.8c0,2.2-0.3,4.1-0.9,5.8c-0.6,1.7-1.5,3.1-2.7,4.3c-1.2,1.2-2.6,2.1-4.3,2.7
		c-1.7,0.6-3.6,0.9-5.7,0.9c-1.5,0-3-0.1-4.5-0.4s-2.8-0.7-4-1.2v-5.2c0.6,0.3,1.3,0.6,2.1,0.9c0.7,0.3,1.5,0.5,2.3,0.7
		s1.6,0.3,2.4,0.4c0.8,0.1,1.6,0.1,2.3,0.1c2.4,0,4.2-0.8,5.6-2.2c1.4-1.5,2-3.7,2-6.6v-26.5h-15.4v-4.5L359.3,117.8L359.3,117.8z
		 M356.1,104.6c0.6,0,1.2,0.1,1.7,0.3c0.5,0.2,1,0.5,1.4,0.9c0.4,0.4,0.7,0.9,0.9,1.4c0.2,0.5,0.3,1.1,0.3,1.7
		c0,0.6-0.1,1.2-0.3,1.7c-0.2,0.5-0.5,1-0.9,1.4c-0.4,0.4-0.8,0.7-1.4,0.9c-0.5,0.2-1.1,0.3-1.7,0.3s-1.2-0.1-1.7-0.3
		c-0.5-0.2-1-0.5-1.4-0.9c-0.4-0.4-0.7-0.8-0.9-1.4c-0.2-0.5-0.3-1.1-0.3-1.7c0-0.6,0.1-1.1,0.3-1.7c0.2-0.5,0.5-1,0.9-1.4
		s0.8-0.7,1.4-0.9C354.9,104.7,355.4,104.6,356.1,104.6z"/>
	<path fill="#020202" d="M400.6,133.2c0,2.4-0.3,4.7-1,6.7s-1.7,3.8-3,5.2c-1.3,1.4-2.9,2.6-4.7,3.4s-4,1.2-6.3,1.2
		c-2.2,0-4.3-0.4-6-1s-3.3-1.7-4.5-3.1c-1.2-1.4-2.2-3-2.8-5s-1-4.3-1-6.9c0-2.4,0.3-4.7,1-6.7c0.7-2,1.7-3.7,3-5.2
		c1.3-1.4,2.9-2.6,4.7-3.4c1.9-0.8,4-1.2,6.3-1.2c2.2,0,4.3,0.4,6,1c1.8,0.7,3.3,1.7,4.5,3.1c1.2,1.3,2.2,3,2.8,5
		S400.6,130.6,400.6,133.2z M395,133.5c0-1.9-0.2-3.6-0.6-5.1c-0.4-1.4-1-2.7-1.8-3.6c-0.8-1-1.8-1.7-2.9-2.2
		c-1.1-0.5-2.4-0.7-3.8-0.7c-1.6,0-3,0.3-4.2,1c-1.2,0.6-2.1,1.5-2.8,2.5c-0.7,1.1-1.3,2.3-1.6,3.7s-0.5,2.9-0.5,4.4
		c0,1.9,0.2,3.6,0.6,5.1c0.4,1.5,1,2.7,1.8,3.6c0.8,1,1.8,1.7,2.9,2.2s2.4,0.7,3.8,0.7c1.6,0,3-0.3,4.2-1c1.2-0.6,2.1-1.5,2.8-2.5
		c0.7-1.1,1.3-2.3,1.6-3.7S395,135,395,133.5z"/>
	<path fill="#020202" d="M433.7,148.7c-1.2,0.3-2.5,0.5-3.8,0.7c-1.3,0.1-2.6,0.2-4,0.2c-3.9,0-6.9-0.9-8.8-2.7s-2.9-4.5-2.9-8.2
		v-16.4h-8.8v-4.6h8.8v-8.6l5.4-1.4v10h14.1v4.6h-14.1v15.9c0,2.2,0.6,3.9,1.8,5c1.2,1.1,3,1.7,5.3,1.7c1,0,2.1-0.1,3.3-0.2
		s2.4-0.4,3.7-0.7L433.7,148.7L433.7,148.7z"/>
	<path fill="#020202" d="M468.9,149.2h-5.4v-20c0-2.4-0.5-4.2-1.4-5.4c-0.9-1.2-2.2-1.8-3.9-1.8c-0.7,0-1.4,0.1-2,0.3
		c-0.6,0.2-1.3,0.5-2,1c-0.7,0.5-1.4,1.2-2.2,2c-0.8,0.8-1.8,1.9-2.8,3.1v20.8h-5.4V105h5.4v12.8l-0.2,4.9c0.9-1,1.7-1.9,2.5-2.6
		c0.8-0.7,1.6-1.3,2.5-1.7c0.8-0.4,1.7-0.8,2.5-0.9c0.9-0.2,1.7-0.3,2.7-0.3c3.1,0,5.5,1,7.2,2.9c1.7,1.9,2.6,4.8,2.6,8.6V149.2z"/>
	<path fill="#020202" d="M506.1,133.2c0,2.4-0.3,4.7-1,6.7s-1.7,3.8-3,5.2c-1.3,1.4-2.9,2.6-4.7,3.4s-4,1.2-6.3,1.2
		c-2.2,0-4.3-0.4-6-1s-3.3-1.7-4.5-3.1c-1.2-1.4-2.2-3-2.8-5s-1-4.3-1-6.9c0-2.4,0.3-4.7,1-6.7c0.7-2,1.7-3.7,3-5.2
		c1.3-1.4,2.9-2.6,4.7-3.4c1.9-0.8,4-1.2,6.3-1.2c2.2,0,4.3,0.4,6,1c1.8,0.7,3.3,1.7,4.5,3.1c1.2,1.3,2.2,3,2.8,5
		S506.1,130.6,506.1,133.2z M500.6,133.5c0-1.9-0.2-3.6-0.6-5.1c-0.4-1.4-1-2.7-1.8-3.6c-0.8-1-1.8-1.7-2.9-2.2
		c-1.1-0.5-2.4-0.7-3.8-0.7c-1.6,0-3,0.3-4.2,1c-1.2,0.6-2.1,1.5-2.8,2.5c-0.7,1.1-1.3,2.3-1.6,3.7s-0.5,2.9-0.5,4.4
		c0,1.9,0.2,3.6,0.6,5.1c0.4,1.5,1,2.7,1.8,3.6c0.8,1,1.8,1.7,2.9,2.2s2.4,0.7,3.8,0.7c1.6,0,3-0.3,4.2-1c1.2-0.6,2.1-1.5,2.8-2.5
		c0.7-1.1,1.3-2.3,1.6-3.7S500.6,135,500.6,133.5z"/>
	<path fill="#020202" d="M514,117.8h4.8l0.2,5.1c0.9-1.1,1.8-2,2.7-2.7c0.9-0.7,1.7-1.3,2.5-1.7c0.8-0.4,1.7-0.7,2.5-0.9
		c0.9-0.2,1.7-0.3,2.7-0.3c3.2,0,5.7,1,7.3,2.9s2.5,4.8,2.5,8.6v20.5h-5.4v-20c0-2.5-0.5-4.3-1.4-5.5c-0.9-1.2-2.3-1.8-4.1-1.8
		c-0.7,0-1.3,0.1-2,0.3c-0.6,0.2-1.3,0.5-2,1c-0.7,0.5-1.4,1.2-2.2,2c-0.8,0.8-1.7,1.9-2.7,3.1v20.8H514V117.8z"/>
</g>
</svg>
