<svg id="圖層_1" data-name="圖層 1" xmlns="http://www.w3.org/2000/svg" xmlns:xlink="http://www.w3.org/1999/xlink" viewBox="0 0 1920 1080"><defs><style>.cls-1{fill:none;}.cls-2{fill:#f4d9f2;}.cls-3{opacity:0.82;}.cls-4{clip-path:url(#clip-path);}.cls-5{fill:#6841e5;}.cls-6{clip-path:url(#clip-path-2);}.cls-7{fill:#13295e;}.cls-8{fill:#fcf0ba;}.cls-9{fill:#0a0c50;}.cls-10,.cls-135{fill:#fff;}.cls-11{fill:#6264f4;}.cls-12{fill:#5dfbfa;}.cls-13{opacity:0.39;}.cls-14{clip-path:url(#clip-path-3);}.cls-15{fill:#00cef2;}.cls-16{fill:#0b2e43;}.cls-17{fill:#0082f1;}.cls-18{fill:#a66add;}.cls-19{fill:#fff182;}.cls-20{fill:#ee0f19;}.cls-21{opacity:0.62;}.cls-22{clip-path:url(#clip-path-4);}.cls-23{opacity:0.49;}.cls-24{clip-path:url(#clip-path-5);}.cls-25{fill:#c0d0f3;}.cls-26{opacity:0.64;}.cls-27{clip-path:url(#clip-path-6);}.cls-28{clip-path:url(#clip-path-7);}.cls-29{fill:#f3fdff;}.cls-30{opacity:0.5;}.cls-31{clip-path:url(#clip-path-8);}.cls-32{fill:#48c7ff;}.cls-33{opacity:0.92;}.cls-34{clip-path:url(#clip-path-9);}.cls-35{opacity:0.8;}.cls-36{clip-path:url(#clip-path-10);}.cls-37{clip-path:url(#clip-path-11);}.cls-38{fill:#16368c;}.cls-39{opacity:0.9;}.cls-40{clip-path:url(#clip-path-12);}.cls-41{fill:#f5fdff;}.cls-42{clip-path:url(#clip-path-13);}.cls-43{fill:#8de2fc;}.cls-44{fill:#3063f7;}.cls-45{fill:#54c0e2;}.cls-46{fill:#9e97f8;}.cls-47{fill:#fff2e3;}.cls-48{fill:#ff97f3;}.cls-49{fill:#ff00e2;}.cls-50{fill:#15abff;}.cls-51{opacity:0.73;}.cls-52{clip-path:url(#clip-path-14);}.cls-53{fill:#b1a9ff;}.cls-54{fill:#d0c7ff;}.cls-55{opacity:0.65;}.cls-56{clip-path:url(#clip-path-15);}.cls-57{fill:#84e5ef;}.cls-58{fill:#e7e8f7;}.cls-59{fill:#00cff2;}.cls-60{fill:#fffcf8;}.cls-61{fill:#144b4f;}.cls-62{fill:#dce8f7;}.cls-63{fill:#9f98f7;}.cls-64{clip-path:url(#clip-path-16);}.cls-65{clip-path:url(#clip-path-17);}.cls-66{fill:#00eded;}.cls-67{opacity:0.52;}.cls-68{clip-path:url(#clip-path-18);}.cls-69{fill:#17e9ff;}.cls-70{fill:#0dfce4;}.cls-71{opacity:0.59;}.cls-72{clip-path:url(#clip-path-19);}.cls-73{fill:#552cbd;}.cls-74{fill:#f2cfff;}.cls-75{fill:#ff73fc;}.cls-76{fill:#10eeff;}.cls-77{fill:#ff83f6;}.cls-78{fill:#ffeda1;}.cls-79{fill:#928fff;}.cls-80{fill:#00d5f0;}.cls-81{fill:#3048a7;}.cls-82{opacity:0.58;}.cls-83{clip-path:url(#clip-path-20);}.cls-84{fill:#f9d0d5;}.cls-85{opacity:0.95;}.cls-86{clip-path:url(#clip-path-21);}.cls-87{opacity:0.79;}.cls-88{clip-path:url(#clip-path-22);}.cls-89{fill:#6cfcff;}.cls-90{fill:#4d40e2;}.cls-91{clip-path:url(#clip-path-23);}.cls-92{opacity:0.74;}.cls-93{clip-path:url(#clip-path-24);}.cls-94{clip-path:url(#clip-path-25);}.cls-95{clip-path:url(#clip-path-26);}.cls-96{clip-path:url(#clip-path-27);}.cls-97{opacity:0.6;}.cls-98{clip-path:url(#clip-path-28);}.cls-99{fill:#968ef6;}.cls-100{fill:#7fa2cc;}.cls-101{clip-path:url(#clip-path-29);}.cls-102{fill:#d3f1f4;}.cls-103{opacity:0.54;}.cls-104{clip-path:url(#clip-path-30);}.cls-105{fill:#c5f7f9;}.cls-106{fill:#a76ef9;}.cls-107{clip-path:url(#clip-path-31);}.cls-108{fill:#fff8ff;}.cls-109{opacity:0.46;}.cls-110{clip-path:url(#clip-path-32);}.cls-111{fill:#f3ffff;}.cls-112{clip-path:url(#clip-path-33);}.cls-113{fill:#3062f8;}.cls-114{fill:#31e7f4;}.cls-115{clip-path:url(#clip-path-34);}.cls-116{clip-path:url(#clip-path-35);}.cls-117{clip-path:url(#clip-path-36);}.cls-118{clip-path:url(#clip-path-38);}.cls-119{clip-path:url(#clip-path-39);}.cls-120{fill:#dcfdff;}.cls-121{clip-path:url(#clip-path-40);}.cls-122{fill:#e207d3;}.cls-123,.cls-134{fill:#24c1ff;}.cls-124{fill:#eaeaea;}.cls-125{opacity:0.88;}.cls-126{clip-path:url(#clip-path-41);}.cls-127{clip-path:url(#clip-path-42);}.cls-128{clip-path:url(#clip-path-43);}.cls-129{clip-path:url(#clip-path-44);}.cls-130{clip-path:url(#clip-path-45);}.cls-131{clip-path:url(#clip-path-46);}.cls-132{clip-path:url(#clip-path-47);}.cls-133{fill:#24d1ff;}.cls-134,.cls-135{fill-rule:evenodd;}.cls-136{clip-path:url(#clip-path-48);}.cls-137{fill:#6bdff9;}</style><clipPath id="clip-path"><rect class="cls-1" x="1127.12" y="442.47" width="228.34" height="252.11"/></clipPath><clipPath id="clip-path-2"><rect class="cls-1" x="1139.5" y="485.69" width="208.17" height="201.89"/></clipPath><clipPath id="clip-path-3"><rect class="cls-1" x="1139.5" y="498.23" width="208.17" height="176.29"/></clipPath><clipPath id="clip-path-4"><rect class="cls-1" x="1207.62" y="204.35" width="13.09" height="14.49"/></clipPath><clipPath id="clip-path-5"><rect class="cls-1" x="1295.96" y="172.68" width="46.92" height="53.56"/></clipPath><clipPath id="clip-path-6"><rect class="cls-1" x="1120.52" y="199.78" width="34.73" height="39.49"/></clipPath><clipPath id="clip-path-7"><rect class="cls-1" x="1550.63" y="496.21" width="38.97" height="44.38"/></clipPath><clipPath id="clip-path-8"><rect class="cls-1" x="531.09" y="82.48" width="195.56" height="166.72"/></clipPath><clipPath id="clip-path-9"><rect class="cls-1" x="578.02" y="139.55" width="104.54" height="29.59"/></clipPath><clipPath id="clip-path-10"><rect class="cls-1" x="596.35" y="198.21" width="32.01" height="32.77"/></clipPath><clipPath id="clip-path-11"><rect class="cls-1" x="1272.27" y="627.48" width="14" height="14"/></clipPath><clipPath id="clip-path-12"><rect class="cls-1" x="1051.27" y="528.47" width="85" height="74"/></clipPath><clipPath id="clip-path-13"><rect class="cls-1" x="1146.27" y="550.47" width="85" height="74"/></clipPath><clipPath id="clip-path-14"><rect class="cls-1" x="1211.27" y="650.48" width="18" height="18"/></clipPath><clipPath id="clip-path-15"><rect class="cls-1" x="1075.66" y="537.45" width="47.92" height="17.11"/></clipPath><clipPath id="clip-path-16"><rect class="cls-1" x="811.81" y="619.4" width="38.5" height="50.72"/></clipPath><clipPath id="clip-path-17"><rect class="cls-1" x="751" y="636.21" width="68.45" height="58.67"/></clipPath><clipPath id="clip-path-18"><rect class="cls-1" x="1407.94" y="307.93" width="96.38" height="111.29"/></clipPath><clipPath id="clip-path-19"><rect class="cls-1" x="1321.29" y="563.97" width="61" height="61"/></clipPath><clipPath id="clip-path-20"><rect class="cls-1" x="1321.27" y="455.47" width="16" height="16"/></clipPath><clipPath id="clip-path-21"><rect class="cls-1" x="1500.03" y="629.92" width="118.01" height="81.79"/></clipPath><clipPath id="clip-path-22"><rect class="cls-1" x="1545.35" y="655.43" width="43.24" height="41.52"/></clipPath><clipPath id="clip-path-23"><rect class="cls-1" x="1458.84" y="870.49" width="65.08" height="55.79"/></clipPath><clipPath id="clip-path-24"><rect class="cls-1" x="468.13" y="363.75" width="14" height="59.9"/></clipPath><clipPath id="clip-path-25"><rect class="cls-1" x="437.13" y="363.75" width="14" height="59.9"/></clipPath><clipPath id="clip-path-26"><rect class="cls-1" x="406.13" y="363.75" width="14" height="59.9"/></clipPath><clipPath id="clip-path-27"><rect class="cls-1" x="375.13" y="363.75" width="14" height="59.9"/></clipPath><clipPath id="clip-path-28"><rect class="cls-1" x="469.13" y="654.65" width="169.75" height="118.44"/></clipPath><clipPath id="clip-path-29"><rect class="cls-1" x="420.89" y="630.18" width="219.4" height="154.26"/></clipPath><clipPath id="clip-path-30"><rect class="cls-1" x="612.86" y="670.01" width="123.65" height="75.45"/></clipPath><clipPath id="clip-path-31"><rect class="cls-1" x="498.04" y="365" width="10.76" height="11.89"/></clipPath><clipPath id="clip-path-32"><rect class="cls-1" x="278.33" y="553.85" width="7.6" height="10.6"/></clipPath><clipPath id="clip-path-33"><rect class="cls-1" x="282.33" y="556.84" width="6.6" height="9.6"/></clipPath><clipPath id="clip-path-34"><rect class="cls-1" x="498.04" y="626.96" width="10.76" height="11.89"/></clipPath><clipPath id="clip-path-35"><rect class="cls-1" x="498.04" y="577.8" width="10.76" height="11.89"/></clipPath><clipPath id="clip-path-36"><rect class="cls-1" x="498.04" y="499.22" width="10.76" height="11.89"/></clipPath><clipPath id="clip-path-38"><rect class="cls-1" x="498.04" y="286.18" width="10.76" height="11.89"/></clipPath><clipPath id="clip-path-39"><rect class="cls-1" x="505.36" y="617.6" width="100.23" height="121.18"/></clipPath><clipPath id="clip-path-40"><rect class="cls-1" x="519.13" y="495.65" width="70" height="69"/></clipPath><clipPath id="clip-path-41"><rect class="cls-1" x="230.26" y="373.32" width="143.15" height="165.29"/></clipPath><clipPath id="clip-path-42"><rect class="cls-1" x="371.93" y="226.4" width="113.28" height="130.8"/></clipPath><clipPath id="clip-path-43"><rect class="cls-1" x="537.13" y="471.65" width="13" height="12"/></clipPath><clipPath id="clip-path-44"><rect class="cls-1" x="524.13" y="386.65" width="37" height="37"/></clipPath><clipPath id="clip-path-45"><rect class="cls-1" x="554.13" y="333.65" width="20" height="20"/></clipPath><clipPath id="clip-path-46"><rect class="cls-1" x="129.88" y="741.05" width="52.55" height="45.04"/></clipPath><clipPath id="clip-path-47"><rect class="cls-1" x="130.13" y="743.67" width="49.49" height="42.42"/></clipPath><clipPath id="clip-path-48"><rect class="cls-1" x="265.14" y="539.65" width="33.27" height="42"/></clipPath></defs><title>main_new_f</title><path class="cls-2" d="M1414.88,688.35H842.07s123.41-44.9,169-64c62.26-26,96.86-66.37,110.5-85.32,3-4.24,11.53-4.39,14.91-.27,16.62,20.27,57.81,65.71,111,90.18,44.42,20.43,167.37,59.38,167.37,59.38"/><g class="cls-3"><g class="cls-4"><path class="cls-5" d="M1355.46,694.58H1127.12V556.64a114.17,114.17,0,0,1,228.34,0Z"/></g></g><g class="cls-3"><g class="cls-6"><path class="cls-7" d="M1347.67,687.58H1139.5v-97.8a104.09,104.09,0,1,1,208.17,0Z"/></g></g><path class="cls-8" d="M1348.25,729.88H1135a23.77,23.77,0,0,1,0-47.54h213.21a23.77,23.77,0,0,1,0,47.54"/><rect class="cls-9" x="1128.56" y="726.99" width="225.45" height="11.52"/><path class="cls-10" d="M1176.46,704.67A13.69,13.69,0,1,1,1162.77,691a13.69,13.69,0,0,1,13.69,13.69"/><path class="cls-11" d="M1174.3,704.67A13.69,13.69,0,1,1,1160.61,691a13.69,13.69,0,0,1,13.69,13.69"/><polygon class="cls-12" points="1160.61 698.23 1161.65 703.62 1167.05 704.66 1161.65 705.71 1160.61 711.1 1159.57 705.71 1154.17 704.66 1159.57 703.62 1160.61 698.23"/><path class="cls-10" d="M1231.56,704.67A13.69,13.69,0,1,1,1217.88,691a13.68,13.68,0,0,1,13.68,13.69"/><path class="cls-11" d="M1229.4,704.67A13.69,13.69,0,1,1,1215.72,691a13.68,13.68,0,0,1,13.68,13.69"/><polygon class="cls-12" points="1215.72 698.23 1216.76 703.62 1222.15 704.66 1216.76 705.71 1215.72 711.1 1214.68 705.71 1209.28 704.66 1214.68 703.62 1215.72 698.23"/><path class="cls-10" d="M1286.67,704.67A13.69,13.69,0,1,1,1273,691a13.69,13.69,0,0,1,13.69,13.69"/><path class="cls-11" d="M1284.51,704.67A13.69,13.69,0,1,1,1270.82,691a13.69,13.69,0,0,1,13.69,13.69"/><polygon class="cls-12" points="1270.82 698.23 1271.86 703.62 1277.26 704.66 1271.86 705.71 1270.82 711.1 1269.78 705.71 1264.38 704.66 1269.78 703.62 1270.82 698.23"/><path class="cls-10" d="M1341.77,704.67A13.69,13.69,0,1,1,1328.08,691a13.69,13.69,0,0,1,13.69,13.69"/><path class="cls-11" d="M1339.61,704.67A13.69,13.69,0,1,1,1325.92,691a13.69,13.69,0,0,1,13.69,13.69"/><polygon class="cls-12" points="1325.92 698.23 1326.96 703.62 1332.36 704.66 1326.96 705.71 1325.92 711.1 1324.88 705.71 1319.48 704.66 1324.88 703.62 1325.92 698.23"/><g class="cls-13"><g class="cls-14"><path class="cls-15" d="M1347.67,674.53H1139.5V602.32a104.09,104.09,0,1,1,208.17,0Z"/></g></g><path class="cls-16" d="M1357.27,753.69s-2,3.79-13,3.79-14-3.79-14-3.79V273.31s3-2.83,13-2.83c9,0,14,2.83,14,2.83Z"/><path class="cls-17" d="M1349.26,270.92a25.48,25.48,0,0,1,8,2.39V753.69s-1.22,2.31-7,3.32"/><polygon class="cls-17" points="1270.94 301.56 1333.27 313.85 1333.33 294.29 1268.8 282.89 1270.94 301.56"/><polygon class="cls-17" points="1270.94 414.56 1333.27 426.85 1333.33 407.29 1268.8 395.89 1270.94 414.56"/><path class="cls-16" d="M587.27,753.69s-2,3.79-13,3.79-14-3.79-14-3.79V273.31s3-2.83,13-2.83c9,0,14,2.83,14,2.83Z"/><path class="cls-17" d="M583,271.79a20,20,0,0,1,4.25,1.6V753.77a5.5,5.5,0,0,1-2.37,1.89"/><polygon class="cls-17" points="649.6 301.56 587.27 313.85 587.22 294.29 651.75 282.89 649.6 301.56"/><polygon class="cls-17" points="649.6 414.56 587.27 426.85 587.22 407.29 651.75 395.89 649.6 414.56"/><rect class="cls-16" x="602.27" y="257.42" width="713" height="188.3"/><path class="cls-18" d="M1291.51,294.9a13.72,13.72,0,1,1-13.72-13.71,13.71,13.71,0,0,1,13.72,13.71"/><path class="cls-19" d="M1294.71,292.16A13.72,13.72,0,1,1,1281,278.45a13.71,13.71,0,0,1,13.72,13.71"/><path class="cls-18" d="M1291.51,410.08a13.72,13.72,0,1,1-13.72-13.71,13.71,13.71,0,0,1,13.72,13.71"/><path class="cls-18" d="M657.12,294.9a13.71,13.71,0,1,1-13.71-13.71,13.71,13.71,0,0,1,13.71,13.71"/><path class="cls-18" d="M657.12,410.08a13.71,13.71,0,1,1-13.71-13.71,13.71,13.71,0,0,1,13.71,13.71"/><path class="cls-10" d="M741.76,323.69a7.36,7.36,0,0,1,5.85-.93c2,.55,2.81,1,2.47,1.23s.34,1.07,2.26,1.95a260.57,260.57,0,0,0,38.39,9.45c2.25.41,2.9,1.43,1.95,3.08a3.76,3.76,0,0,1-4.62,2.15c-4.79-1-9.62-2.08-14.48-3.39-1.84-.47-2.77.11-2.77,1.75s-1,2.46-3.08,2.46h-41c-2.06,0-3.08-.82-3.08-2.46s-.92-2.26-2.77-1.44q-6.37,2.26-12.83,4.11c-2.19.61-3.77.07-4.73-1.64s-.2-2.67,2.06-3.29a160.27,160.27,0,0,0,36.33-13M709,286.63c0-1.64,1-2.46,2.87-2.46H783c2.05,0,3.08.79,3.08,2.36s-1,2.36-3.08,2.36H753.77c-1.71,0-2.56,1.09-2.56,3.28s.85,3.29,2.56,3.29h35.11c2,0,3.08,1,3.08,3.08v7.08q0,3.08-3.08,3.08t-3.18-3.08v-3a2.27,2.27,0,0,0-2.57-2.56H753.77a2.26,2.26,0,0,0-2.56,2.56v12.73q0,3.08-3.18,3.08c-2.2,0-3.29-1-3.29-3.08V302.64a2.26,2.26,0,0,0-2.56-2.56H712.82a2.27,2.27,0,0,0-2.57,2.56v4.11c0,2.05-1,3.08-3.08,3.08s-3.08-1-3.08-3.08v-8.21c0-2.06,1-3.08,3.08-3.08h35c1.7,0,2.56-1.1,2.56-3.29s-.86-3.28-2.56-3.28H712.1c-2.05,0-3.08-.75-3.08-2.26m2.36,64.46q0-2.67,2.88-2.67h63.12c2.06,0,3.08.89,3.08,2.67s-1,3.32-3.08,4.42a200.69,200.69,0,0,1-22,10.36c-.21.28.72.72,2.77,1.34a42.63,42.63,0,0,1,4.21,1.13q3.9,1.13,2.77,3.9T761,374q-16.94-5.24-32.13-8.42c-2.26-.48-3-1.43-2.26-2.87s2.26-2.19,4.31-1.85q7.1,1.44,14.48,3.19a10.06,10.06,0,0,0,4.1-.93q6.78-2.67,14.37-6.57,2.77-1.95,2.67-2.46c-.34-.27-1.54-.48-3.59-.62H714.46c-2.05,0-3.08-.78-3.08-2.36m4.83-30.59a162,162,0,0,0,17.14-3.08c2-.47,3.38,0,4,1.34s0,2.4-2.05,2.87q-8.94,2.06-17.45,3.29-3.09.51-3.7-1.64c-.41-1.65.28-2.57,2.06-2.78m-.42-13.75c.55-1.37,1.75-1.95,3.6-1.75q7.59.93,15.19,2.57,3.9.72,2.87,3.08-1,2.67-4.62,1.75-7.19-1.75-14.37-3-3.37-.51-2.67-2.67m32.13,22.07c-2.53-1-4.45-1.06-5.74-.31q-5.76,2.88-11.6,5.34c-1.85.61-2.74,1.4-2.67,2.36a14.14,14.14,0,0,0,3.69.51h30.9c2.32-.2,3.45-.51,3.39-.92q-.42-.62-3.6-1.95Zm9.45-9.24c.47-1.44,1.74-2.05,3.79-1.85q9.14,1.14,19.51,3.18,3.48.63,2.46,3.19c-.68,1.64-2,2.19-4,1.64q-11.8-2.67-21.46-4-1-.11-.3-2.16M760,308.91a111.63,111.63,0,0,0,15.7-3.6c2-.61,3.42-.24,4.11,1.13s-.11,2.47-2.16,3.08a122.73,122.73,0,0,1-16.63,3.8c-2,.34-3.32-.27-3.8-1.85q-.62-2.06,2.78-2.56"/><path class="cls-10" d="M809.1,291.56q0-3.29,2.87-3.29h22q3.07,0,3.08,3.08V363.1q0,3.07-3.08,3.08c-2.05,0-3.08-.72-3.08-2.15s-.86-2.37-2.57-2.37H817.82c-1.71,0-2.56.89-2.56,2.67s-1,2.67-3.08,2.67-3.08-1-3.08-3.08Zm21.76,5.54c0-1.85-.79-2.77-2.36-2.77H817.82a2.26,2.26,0,0,0-2.56,2.56V318a2.27,2.27,0,0,0,2.56,2.57h10.47a2.27,2.27,0,0,0,2.57-2.57Zm0,32.33c0-1.77-.82-2.66-2.46-2.66H817.82a2.26,2.26,0,0,0-2.56,2.56V353a2.27,2.27,0,0,0,2.56,2.57h10.47a2.27,2.27,0,0,0,2.57-2.57Zm50-2.36q0-3.18,3.18-3.18,3.39,0,3.39,3.08v3.39a2.26,2.26,0,0,0,2.56,2.56h5.85c2.06,0,3.08,1,3.08,3.08s-1,3.08-3.08,3.08H890a2.27,2.27,0,0,0-2.56,2.57v23.4a21.62,21.62,0,0,1-.62,4.11q-.72,4.2-7.08,4.82a74.18,74.18,0,0,1-9.75-.51c-2.26-.48-3.59-1.64-4-3.49l-.1-.82c-.41-2.26.52-3.12,2.77-2.57a35.79,35.79,0,0,0,10.47.62,4.15,4.15,0,0,0,1.75-3.08V341.65a2.27,2.27,0,0,0-2.57-2.57H844.92c-2,0-3.08-1-3.08-3.08s1-3.08,3.08-3.08h33.36a2.27,2.27,0,0,0,2.57-2.56ZM867,284.48q0-3.28,3.18-3.29,3.39,0,3.39,3.08v5.13a2.27,2.27,0,0,0,2.57,2.57h18q3.07,0,3.08,3t-3.08,3h-18a2.27,2.27,0,0,0-2.57,2.57v9.34a2.27,2.27,0,0,0,2.57,2.56h15.19c2,0,3.08,1,3.08,3s-1,3.08-3.08,3.08h-41q-3.08,0-3.08-3t3.08-3.08h14.06a2.26,2.26,0,0,0,2.57-2.56v-9.34a2.27,2.27,0,0,0-2.57-2.57H847.49q-3.07,0-3.08-3t3.08-3h16.93A2.27,2.27,0,0,0,867,289.4Zm-16.83,60.15q2.87-1.54,4.82,1.54a73.2,73.2,0,0,1,4.41,8.31c1,2.12.42,3.59-1.64,4.41-2.39,1.1-4,.41-4.72-2.05a85.94,85.94,0,0,0-3.8-8.21q-1.44-2.67.93-4"/><path class="cls-10" d="M930.32,305.41q.72-3.27,3.7-2.15t2.36,4.21a230.44,230.44,0,0,1-13.45,43.93c-.89,2.12-2.32,2.6-4.31,1.44q-3.79-2.16-2.36-5.34a215,215,0,0,0,14.06-42.09m25.87-20.52q0-3.28,2.87-3.29h1.34q3.08,0,3.08,3.08v81.5q.1,5.34-4.62,7.08a49.72,49.72,0,0,1-18.78-.3,4.22,4.22,0,0,1-3.8-3.6l-.21-.92c-.34-2.05.51-2.84,2.57-2.36A74.45,74.45,0,0,0,951,367.41c2.81.76,4.56-.51,5.24-3.79Zm27,23.71c-1-2.4-.55-4.07,1.43-5s3.35-.38,4.31,1.74a281,281,0,0,1,15,42.29q.93,3.28-1.95,4.52l-.82.41c-2.4,1.1-3.87.58-4.42-1.54a273.51,273.51,0,0,0-13.54-42.39"/><path class="cls-10" d="M1040.46,283.14q3.9-1.33,5.24,1c1,1.64.31,2.84-2,3.59a69.53,69.53,0,0,1-11,2.36q-2.46.42-2.36,3.7c.21,2.32,1.17,3.49,2.88,3.49h10.88c2,0,3.08.78,3.08,2.36s-1,2.36-3.08,2.36h-10.58a2.26,2.26,0,0,0-2.56,2.56v1c.13,2.26,1.06,3.39,2.77,3.39h10.37c2,0,3.08.82,3.08,2.46s-1,2.46-3.08,2.46H1034.1c-1.71,0-2.53,1.07-2.47,3.19v2.05a2.38,2.38,0,0,0,2.67,2.57h56.46c1.71,0,2.6-1.06,2.67-3.19a4.53,4.53,0,0,0,.1-1.64c.14-1.71-.65-2.57-2.36-2.57h-9.75c-2.06,0-3.08-.78-3.08-2.36s1-2.36,3.08-2.36h9.75c1.71,0,2.6-.88,2.67-2.67l.1-2.36a2.27,2.27,0,0,0-2.57-2.56h-9.95c-2.06,0-3.08-.79-3.08-2.36s1-2.36,3.08-2.36h10.26c1.71,0,2.64-1.1,2.77-3.29l.21-3.39a2.27,2.27,0,0,0-2.57-2.56h-9.34c-2,0-3.08-.89-3.08-2.67s1-2.67,3.08-2.67h15.19c1.92,0,2.84,1.06,2.78,3.18l-1.13,33.26a2.27,2.27,0,0,0,2.56,2.57h1.34c2,0,3.07,1,3.07,3.08v7.9q0,3.07-3,3.08t-3.08-3.08v-3a2.27,2.27,0,0,0-2.57-2.56h-71.75a2.26,2.26,0,0,0-2.56,2.56v3q0,3.07-3,3.08t-3.08-3.08v-7.9c0-2.06,1-3.08,3.08-3.08h2.67c1.71,0,2.57-.35,2.57-1l-1.44-31.1q-.1-3.18,2.77-3.59a78,78,0,0,0,13.24-2.88m-7.29,54c0-1.71,1-2.56,2.88-2.56h52.35c2,0,3.08,1,3.08,2.87s-1,3.32-3.08,4.21q-11.09,4.92-18.79,7.49c-2.19.07-3,1-2.36,2.77.21.41,1.13.62,2.77.62h33.26c2,0,3.08.89,3.08,2.67s-1,2.77-3.08,2.77h-33.57a2.27,2.27,0,0,0-2.56,2.57v7.39c-.27,2.46-1.75,4.1-4.41,4.92q-3.49,1.23-12.73.41a4.46,4.46,0,0,1-4.21-3.79q-.4-2.78,3-2.16a53.2,53.2,0,0,0,7.49.51c3.08.83,4.55-.51,4.41-4v-3.28a2.27,2.27,0,0,0-2.56-2.57H1022c-2.06,0-3.08-.89-3.08-2.67s1-2.77,3.08-2.77h36.13c1.71,0,2.56-.92,2.56-2.77s1-3,3.08-3.7q5.65-1.74,11.29-3.9c2-.48,2.91-1.19,2.78-2.15a5.89,5.89,0,0,0-2-.52h-39.62c-2,0-3.08-.78-3.08-2.36m34.9-52q3.29-3.07,4.93-1.74t-1.23,4a15.12,15.12,0,0,1-2.06,1.74c-1.77,1.44-1.88,2.78-.3,4l1.33.92c2.26,1.78,2.94,3.18,2.06,4.21q-1.65,1.84-5.24-1.23l-1.64-1.23q-2.46-1.84-5.55,0l-4.92,2.67c-2,.89-3.36.78-3.9-.31q-1-1.85,2-3.29a25.75,25.75,0,0,0,3-1.64q2.88-2.06-.2-4.11c-2.67-1.5-3.63-2.77-2.87-3.79s2.29-1.06,4.41.1l2,1.23a5.14,5.14,0,0,0,6.16.21,15.17,15.17,0,0,0,2-1.75m-.3,19.71c2.12-2,3.55-2.43,4.31-1.33,1,1.09.41,2.63-1.65,4.61s-2.08,3.46.11,4.83c2.32,1.57,3,2.91,2,4s-2.47.72-4.72-.92l-1.34-.93a5.48,5.48,0,0,0-6.16.11,29.58,29.58,0,0,1-4.1,2.05q-3.39,1.33-4.42-.1c-.68-1.1-.07-2.09,1.85-3a21.06,21.06,0,0,0,3.49-1.85c1.5-1,1.2-2.19-.92-3.49l-1.34-.72q-3.39-1.74-2.26-3.18,1.34-1.63,4.62,0l3.7,2c1.64.82,3.56.45,5.75-1.13Z"/><path class="cls-10" d="M1136.44,284.89c0-2.19,1-3.29,2.87-3.29q3.18,0,3.18,3.08v13.76a2.27,2.27,0,0,0,2.57,2.56h6.77c2.05,0,3.08.93,3.08,2.77s-1,2.77-3.08,2.77h-6.77c-1.71,0-2.57,1-2.57,3a9.34,9.34,0,0,0,2.67,6.06,108.67,108.67,0,0,1,7.39,9.24q2.78,3.9.82,6.87-2.25,3.09-4.1-.2-3-5.65-5.44-7.6c-1.17.14-1.61,1.37-1.34,3.7V370.9c0,2.06-1,3.08-3,3.08s-3.07-1-3.07-3.08V330.67c0-1.3-.42-1.89-1.24-1.75a11.46,11.46,0,0,0-1.84,3.7,66.77,66.77,0,0,1-6.37,13.55c-1.44,2.19-2.84,2.66-4.21,1.43-1.5-1.5-1.54-3.35-.1-5.54q10.07-16.63,13.14-32.85c.14-1.77-.58-2.67-2.16-2.67h-7.28c-2.06,0-3.08-.92-3.08-2.77s1-2.77,3.08-2.77h7.49a2.27,2.27,0,0,0,2.57-2.56Zm58.81,41.47q1.44-3.81,4.31-1.75a4,4,0,0,1,1.34,5.34,94.8,94.8,0,0,1-9.24,17q-1.54,2.36,1.64,5.75a75.32,75.32,0,0,0,18.37,12.83q3.09,1.43,1.24,4.61c-1.24,2.33-3,2.84-5.24,1.54a93.9,93.9,0,0,1-19-14.78q-2.46-2.46-5.34.62a91.47,91.47,0,0,1-21.76,15.19q-3.07,1.33-4.62-1.33c-1-1.92-.58-3.39,1.34-4.42a79.85,79.85,0,0,0,23.2-17.55c.06-.27-.72-1.5-2.36-3.69a123.47,123.47,0,0,1-9.34-15.4c-1-2.06-.62-3.66,1-4.83s3-.75,4,1.44a102.13,102.13,0,0,0,8.52,14.37c1.58,1.78,3.08,1.58,4.52-.61a96.94,96.94,0,0,0,7.39-14.37m-26.79-18c2-2.53,3.8-3.25,5.44-2.15s1.57,2.84,0,5A68.68,68.68,0,0,1,1163.74,322q-3.18,2.26-5.34-.2-2-2.46,1.13-4.83a70.57,70.57,0,0,0,8.93-8.62m14.47-25.76a2.64,2.64,0,0,0,1.23-.31q2.88-.51,4,2.87a60.92,60.92,0,0,1,2,7.29c.41,1.78,1.4,2.67,3,2.67h18.27c2,0,3.08.92,3.08,2.77s-1,2.88-3.08,2.88H1162.2c-2,0-3.08-.93-3.08-2.77s1-2.88,3.08-2.88h18.68q2.56,0,1.85-3.28l-1.54-4.93c-1.1-2.39-.51-3.83,1.74-4.31m15.19,28.43q-3.07-3.29-.82-4.82,2.57-1.86,6.47,2.05,3.9,4.11,7.29,8.21,2.67,3.18.51,5.54c-1.64,1.65-3.25,1.44-4.82-.61q-3.9-5.13-8.63-10.37"/><path class="cls-10" d="M780.76,423.28a9.14,9.14,0,0,1-3-1.27q-.9-.69-.9-1.23a3.29,3.29,0,0,1,.72-1.73c.49-.69.89-1,1.2-1a2.48,2.48,0,0,1,.91.4,15.24,15.24,0,0,0,2.21.94,7.81,7.81,0,0,0,2.54.37,4.64,4.64,0,0,0,2.74-.78,2.67,2.67,0,0,0,1.11-2.34,2.52,2.52,0,0,0-.56-1.66,5,5,0,0,0-1.4-1.12c-.56-.3-1.33-.66-2.32-1.07l-1.27-.55a14.18,14.18,0,0,1-2.8-1.54,6.15,6.15,0,0,1-1.85-2.19,7.49,7.49,0,0,1-.73-3.49,6.54,6.54,0,0,1,1.15-3.9,6.92,6.92,0,0,1,3.06-2.41,11,11,0,0,1,4.21-.8,13.73,13.73,0,0,1,3.16.36,6.52,6.52,0,0,1,2.36,1c.51.37.76.73.76,1.09a3.48,3.48,0,0,1-.62,1.69c-.41.69-.77,1-1.08,1a1.62,1.62,0,0,1-.58-.18l-.62-.29a7.85,7.85,0,0,0-3.09-.61,4.42,4.42,0,0,0-2.88.78,2.45,2.45,0,0,0-.93,2,2.69,2.69,0,0,0,.55,1.73,4.15,4.15,0,0,0,1.34,1.07c.53.26,1.32.6,2.36,1a24.4,24.4,0,0,1,3.41,1.64,7,7,0,0,1,2.3,2.26,6.69,6.69,0,0,1,1,3.76,7,7,0,0,1-2.33,5.72,8.82,8.82,0,0,1-5.8,1.9,16.84,16.84,0,0,1-4.34-.51"/><path class="cls-10" d="M845.17,420.63q-2.88-3.15-2.88-9.83,0-12.92,12-12.92a17.67,17.67,0,0,1,3.59.38,10.28,10.28,0,0,1,2.83,1c.61.34.91.71.91,1.09a2.76,2.76,0,0,1-.34,1.14,6.31,6.31,0,0,1-.8,1.26,1.21,1.21,0,0,1-.82.54,4.66,4.66,0,0,1-.87-.36,10.44,10.44,0,0,0-1.9-.65,10.65,10.65,0,0,0-2.67-.29,6.37,6.37,0,0,0-5.32,2.17q-1.73,2.17-1.72,6.72c0,3,.57,5.2,1.72,6.67a6.23,6.23,0,0,0,5.25,2.22,10,10,0,0,0,2.9-.37,15.54,15.54,0,0,0,2.36-.9,2.09,2.09,0,0,1,.8-.29,1.12,1.12,0,0,1,.81.52,5,5,0,0,1,.71,1.22,3.07,3.07,0,0,1,.29,1c0,.56-.41,1.06-1.23,1.52a10,10,0,0,1-3,1,18.9,18.9,0,0,1-3.62.36q-6.1,0-9-3.16"/><path class="cls-10" d="M912.47,422.56V399.11c0-.7.64-1.05,1.93-1.05h.94q1.92,0,1.92,1.05v9.4h11v-9.4q0-1,1.92-1.05h1q1.92,0,1.92,1.05v23.45q0,1.05-1.92,1.05h-1q-1.92,0-1.92-1.05v-9.95h-11v9.95q0,1.05-1.92,1.05h-.94c-1.29,0-1.93-.35-1.93-1.05"/><path class="cls-10" d="M1130.69,423.17a2.35,2.35,0,0,1-.23-1.19v-.55a2.42,2.42,0,0,1,.23-1.2.84.84,0,0,1,.75-.36h5.33V402.42l-5.44.87q-.54,0-.78-.87a6.7,6.7,0,0,1-.24-1.78c0-.49.28-.79.84-.91L1140,398a1.85,1.85,0,0,1,.92.25c.3.17.45.36.45.58v21h4.14a.84.84,0,0,1,.75.36,2.42,2.42,0,0,1,.23,1.2V422a2.35,2.35,0,0,1-.23,1.19.82.82,0,0,1-.75.37h-14a.82.82,0,0,1-.75-.37"/><path class="cls-20" d="M981.79,423.68a1,1,0,0,1-.75-.34,1,1,0,0,1,.1-1.4L1009,397.71a1,1,0,0,1,1.3,1.5l-27.87,24.23a1,1,0,0,1-.65.24"/><path class="cls-10" d="M987.23,420.41q-3-3.33-3-9.65t3-9.6q3-3.32,8.52-3.32c3.71,0,6.54,1.1,8.51,3.3s3,5.41,3,9.62-1,7.43-3,9.65-4.8,3.34-8.51,3.34-6.54-1.11-8.52-3.34m13.41-3c1.12-1.52,1.68-3.74,1.68-6.64s-.55-5.11-1.67-6.61a6.47,6.47,0,0,0-9.81,0c-1.13,1.5-1.69,3.71-1.69,6.61s.56,5.12,1.69,6.64a6.39,6.39,0,0,0,9.8,0"/><path class="cls-20" d="M1054.79,423.46a1,1,0,0,1-.75-.34,1,1,0,0,1,.1-1.41L1082,397.48a1,1,0,1,1,1.3,1.5l-27.86,24.23a1,1,0,0,1-.66.25"/><path class="cls-10" d="M1060.23,420.19q-3-3.35-3-9.66t3-9.59q3-3.33,8.53-3.33c3.7,0,6.53,1.1,8.51,3.31s3,5.4,3,9.61-1,7.43-3,9.66-4.81,3.34-8.51,3.34-6.55-1.12-8.53-3.34m13.41-3q1.68-2.28,1.68-6.64t-1.66-6.6a6.48,6.48,0,0,0-9.82,0q-1.69,2.25-1.69,6.6t1.69,6.64a6.39,6.39,0,0,0,9.8,0"/><path class="cls-19" d="M1294.71,408.25A13.72,13.72,0,1,1,1281,394.54a13.71,13.71,0,0,1,13.72,13.71"/><path class="cls-19" d="M660.32,292.16a13.71,13.71,0,1,1-13.71-13.71,13.71,13.71,0,0,1,13.71,13.71"/><path class="cls-19" d="M660.32,408.25a13.71,13.71,0,1,1-13.71-13.71,13.71,13.71,0,0,1,13.71,13.71"/><g class="cls-21"><g class="cls-22"><path class="cls-10" d="M1220.71,214.22V209a2,2,0,0,0-1-1.73l-4.55-2.62a2,2,0,0,0-2,0l-4.54,2.62a2,2,0,0,0-1,1.73v5.25a2,2,0,0,0,1,1.73l4.54,2.62a2,2,0,0,0,2,0l4.55-2.62a2,2,0,0,0,1-1.73"/></g></g><g class="cls-23"><g class="cls-24"><path class="cls-25" d="M1342.88,211.85V187.07a2,2,0,0,0-1-1.73L1320.42,173a2,2,0,0,0-2,0L1297,185.34a2,2,0,0,0-1,1.73v24.78a2,2,0,0,0,1,1.73L1318.42,226a2,2,0,0,0,2,0l21.46-12.39a2,2,0,0,0,1-1.73"/></g></g><g class="cls-26"><g class="cls-27"><path class="cls-10" d="M1155.25,228.4V210.66a2,2,0,0,0-1-1.74l-15.37-8.87a2,2,0,0,0-2,0l-15.36,8.87a2,2,0,0,0-1,1.74V228.4a2,2,0,0,0,1,1.73l15.36,8.87a2,2,0,0,0,2,0l15.37-8.87a2,2,0,0,0,1-1.73"/></g></g><g class="cls-21"><g class="cls-28"><path class="cls-10" d="M1589.6,528.5V508.31a2,2,0,0,0-1-1.73l-17.49-10.1a2,2,0,0,0-2,0l-17.48,10.1a2,2,0,0,0-1,1.73V528.5a2,2,0,0,0,1,1.73l17.48,10.1a2,2,0,0,0,2,0l17.49-10.1a2,2,0,0,0,1-1.73"/></g></g><path class="cls-10" d="M1296.08,477l1.84,9.9a.6.6,0,0,0,.51.46l10.21,2.06a.55.55,0,0,1,0,1.09l-10.21,2.07a.6.6,0,0,0-.51.46l-1.84,9.9a.73.73,0,0,1-1.36,0l-1.83-9.9a.61.61,0,0,0-.52-.46l-10.21-2.07a.55.55,0,0,1,0-1.09l10.21-2.06a.61.61,0,0,0,.52-.46l1.83-9.9a.73.73,0,0,1,1.36,0"/><rect class="cls-8" x="1247.41" y="856.95" width="174" height="4.89"/><rect class="cls-11" x="1247.41" y="861.95" width="174" height="14.19"/><rect class="cls-29" x="1247.54" y="876.38" width="14" height="18"/><rect class="cls-29" x="1407.29" y="876.38" width="14" height="18"/><rect class="cls-29" x="1327.41" y="876.38" width="14" height="18"/><g class="cls-30"><g class="cls-31"><path class="cls-32" d="M594.4,248.77l130.82-33.28a1.79,1.79,0,0,0,.89-3c-30.24-25.71-42-43.46-37.62-64.91C697.19,105,669,86,661,82.88a5.7,5.7,0,0,0-3.29-.28L532.85,108.73a2.31,2.31,0,0,0-.33,4.38c11.89,4.47,43,32.55,29.88,71.55-9.51,28.18,4.69,55.22,14.47,60.46,6.09,3.27,11,4.94,17.53,3.65"/></g></g><path class="cls-25" d="M647.63,103.32l-57.51,14c-1.48.37-3-.92-3.47-2.86l-.27-1.24c-.43-1.94.42-3.81,1.9-4.17l57.51-14c1.48-.36,3,.92,3.46,2.87l.28,1.24c.43,1.94-.42,3.81-1.9,4.17"/><path class="cls-25" d="M658.72,121.15l-68.57,16.53a2,2,0,0,1-2.38-1.56l-.16-.71a2.07,2.07,0,0,1,1.49-2.49l68.57-16.54a2,2,0,0,1,2.38,1.56l.16.72a2.08,2.08,0,0,1-1.49,2.49"/><polygon class="cls-25" points="675.73 199.24 647.63 206.01 647.03 203.31 675.13 196.54 675.73 199.24"/><path class="cls-25" d="M697.6,202.65,651,213.89a1.61,1.61,0,0,1-1.93-1.27L649,212a1.69,1.69,0,0,1,1.21-2l46.59-11.24a1.62,1.62,0,0,1,1.94,1.27l.12.58a1.69,1.69,0,0,1-1.21,2"/><path class="cls-25" d="M679.88,130.46,619.16,145.1a2,2,0,0,1-2.38-1.56l-.16-.71a2.1,2.1,0,0,1,1.49-2.5l60.72-14.64a2,2,0,0,1,2.38,1.56l.16.72a2.08,2.08,0,0,1-1.49,2.49"/><path class="cls-25" d="M609.12,147.45l-29.77,7.18a2,2,0,0,1-2.38-1.56l-.16-.72a2.09,2.09,0,0,1,1.5-2.49l29.76-7.18a2,2,0,0,1,2.38,1.56l.16.72a2.09,2.09,0,0,1-1.49,2.49"/><g class="cls-33"><g class="cls-34"><path class="cls-25" d="M580.62,169.08l60.66-14.88a2.08,2.08,0,0,0,1.48-2.5l-.16-.72a2,2,0,0,0-2.39-1.55l-60.66,14.89a2.08,2.08,0,0,0-1.48,2.5l.16.71a2,2,0,0,0,2.39,1.55"/><path class="cls-25" d="M651.29,151.67l29.73-7.3a2.08,2.08,0,0,0,1.48-2.5l-.16-.71a2,2,0,0,0-2.38-1.55l-29.74,7.29a2.08,2.08,0,0,0-1.48,2.5l.16.72a2,2,0,0,0,2.39,1.55"/></g></g><path class="cls-25" d="M681.09,159.05l-60.72,14.64a2,2,0,0,1-2.38-1.56l-.15-.71a2.09,2.09,0,0,1,1.49-2.5L680,154.28a2,2,0,0,1,2.39,1.56l.15.72a2.08,2.08,0,0,1-1.49,2.49"/><path class="cls-25" d="M610.33,176l-29.77,7.18a2,2,0,0,1-2.38-1.56l-.15-.72a2.08,2.08,0,0,1,1.49-2.49l29.76-7.18a2,2,0,0,1,2.38,1.56l.16.72a2.09,2.09,0,0,1-1.49,2.49"/><path class="cls-25" d="M581.83,197.67l60.66-14.88a2.09,2.09,0,0,0,1.48-2.5l-.16-.72a2,2,0,0,0-2.38-1.55l-60.67,14.89a2.08,2.08,0,0,0-1.48,2.5l.16.71a2,2,0,0,0,2.39,1.55"/><path class="cls-25" d="M652.5,180.26l29.73-7.3a2.09,2.09,0,0,0,1.49-2.5l-.16-.71a2,2,0,0,0-2.39-1.56l-29.74,7.3A2.08,2.08,0,0,0,650,178l.16.71a2,2,0,0,0,2.39,1.56"/><g class="cls-35"><g class="cls-36"><polygon class="cls-8" points="628.36 218.34 623.45 201.95 607.45 198.21 596.35 210.85 601.26 227.24 617.26 230.98 628.36 218.34"/></g></g><g class="cls-21"><g class="cls-37"><path class="cls-10" d="M1286.27,634.48a7,7,0,1,1-7-7,7,7,0,0,1,7,7"/></g></g><path class="cls-15" d="M1245.27,693.48h-204a2,2,0,0,1-2-2v-174a2,2,0,0,1,2-2h204a2,2,0,0,1,2,2v174a2,2,0,0,1-2,2"/><path class="cls-38" d="M1242.27,693.48h-204a2,2,0,0,1-2-2v-174a2,2,0,0,1,2-2h204a2,2,0,0,1,2,2v174a2,2,0,0,1-2,2"/><g class="cls-39"><g class="cls-40"><rect class="cls-41" x="1051.27" y="528.47" width="85" height="74"/></g></g><g class="cls-39"><g class="cls-42"><rect class="cls-41" x="1146.27" y="550.47" width="85" height="74"/></g></g><path class="cls-25" d="M1276.58,553.66h-37.14a3.1,3.1,0,1,1,0-6.18h37.14a3.1,3.1,0,1,1,0,6.18"/><path class="cls-25" d="M1304.88,568.51h-65.44a3.1,3.1,0,1,1,0-6.18h65.44a3.1,3.1,0,1,1,0,6.18"/><path class="cls-25" d="M1276.58,583.63h-37.14a3.11,3.11,0,1,1,0-6.19h37.14a3.11,3.11,0,1,1,0,6.19"/><path class="cls-25" d="M1304.88,598.48h-65.44a3.11,3.11,0,1,1,0-6.19h65.44a3.11,3.11,0,1,1,0,6.19"/><path class="cls-43" d="M1228.45,570.85a37.07,37.07,0,0,1-23,34.27h0a37.05,37.05,0,0,1-49.5-23.43v0a37,37,0,1,1,72.48-10.8"/><path class="cls-44" d="M1215.4,546.45l-22,22a2.52,2.52,0,0,1-3.85-.33l-17.92-25.48a2.53,2.53,0,0,1,.75-3.61,36.79,36.79,0,0,1,42.93,3.72,2.53,2.53,0,0,1,.11,3.69"/><path class="cls-10" d="M1189.21,575.88l-11.62,26.49a2.53,2.53,0,0,1-3.48,1.24A37.14,37.14,0,0,1,1156,581.69v0l30.18-9.2a2.53,2.53,0,0,1,3.06,3.43"/><path class="cls-18" d="M1220.84,588.68a2.53,2.53,0,0,1,.78,3.61,37.19,37.19,0,0,1-16.13,12.83h0l-11.14-27.19a2.53,2.53,0,0,1,3.65-3.12Z"/><path class="cls-45" d="M1049,603.7c0-.11,0,8.79,0,8.68-.51-2.55-6.42-35.34,31.21-47.3a1.68,1.68,0,0,1,.59-.07l30,2a1.54,1.54,0,0,1,1,.49c3.05,3.25,21.39,14.77,18.57,35.06"/><path class="cls-46" d="M1073.39,562.94a2.29,2.29,0,0,0-.28-.09c-1.21-.26-4.39-2.31-7-10.8-2.86-9.15,1-33.51,29.39-33.06,8.57.14,27.13,2.71,28.37,15.72s3.36,19.49-16.2,27.08c-18.47,7.17-32.69,1.78-34.23,1.15"/><path class="cls-47" d="M1116.15,538.41a1.56,1.56,0,0,1,2.21.75c2.06,5,6.73,18.34-.22,23.3-8.25,5.9-13.11,7.27-15.66,20.42a1.56,1.56,0,0,1-2,1.19c-4.5-1.42-16.59-5.68-18.59-11.16a23.07,23.07,0,0,1-1.51-6.27,6.69,6.69,0,0,1,0-1.3,1.58,1.58,0,0,0-.79-1.53c-1.79-1-4.94-3.8-1.67-9.51a1.54,1.54,0,0,1,.74-.64c2.48-1,1.59-15.18,17.54-13,.62.09.87-.9,1.5-.85,3.43.28,14.12.93,18.43-1.41"/><path class="cls-45" d="M1077.29,565.84s-18.13.92-26.73,25.5c-7.54,21.55,5.71,39.32,9.08,43.37a1.53,1.53,0,0,0,1.78.43l5.07-2.11a1.53,1.53,0,0,0,.9-1.81c-1.3-5-5-23.56,7.13-39.88"/><path class="cls-47" d="M1062.27,634.79a1.55,1.55,0,0,0-.54,2.49c1.64,1.82,4.63,4.22,7.88,2.6,3.86-1.93.52-5.38-1.1-6.77a1.53,1.53,0,0,0-1.6-.25Z"/><path class="cls-48" d="M1100.6,581.89c-3.32-4.94-10.82-14.53-20.33-17a1.57,1.57,0,0,0-.91,0l-1.86.66a1.56,1.56,0,0,0-.92,2.05c1.51,3.76,6.82,13.35,22.43,16.68a1.55,1.55,0,0,0,1.59-2.39"/><path class="cls-48" d="M1110.28,567c-1.81,1.82-9.27,7.11-10.92,14.68-.53,2.46,1.86,4,2.81,1.79,2-4.63,8.45-10.8,10.1-13.1a2.89,2.89,0,0,0,0-3,1.24,1.24,0,0,0-2-.33"/><polygon class="cls-10" points="1083.97 661.8 1082.58 659.15 1100.77 649.57 1100.77 631.48 1103.77 631.48 1103.77 651.38 1083.97 661.8"/><rect class="cls-10" x="1110.02" y="645.56" width="3" height="22.33" transform="matrix(0.56, -0.83, 0.83, 0.56, -54.93, 1210.05)"/><path class="cls-49" d="M1105.77,629.73a3.25,3.25,0,1,1-3.25-3.25,3.25,3.25,0,0,1,3.25,3.25"/><path class="cls-49" d="M1087.77,659.73a3.25,3.25,0,1,1-3.25-3.25,3.25,3.25,0,0,1,3.25,3.25"/><path class="cls-49" d="M1123.77,662.73a3.25,3.25,0,1,1-3.25-3.25,3.25,3.25,0,0,1,3.25,3.25"/><path class="cls-48" d="M1170.77,654a10,10,0,1,1-10-10,10,10,0,0,1,10,10"/><path class="cls-50" d="M1207.27,645a12.5,12.5,0,1,1-12.5-12.5,12.5,12.5,0,0,1,12.5,12.5"/><g class="cls-51"><g class="cls-52"><path class="cls-53" d="M1229.27,659.48a9,9,0,1,1-9-9,9,9,0,0,1,9,9"/></g></g><line class="cls-54" x1="1158.27" y1="656.48" x2="1150.27" y2="665.48"/><path class="cls-10" d="M1150.27,666.48a1,1,0,0,1-.74-1.67l8-9a1,1,0,0,1,1.49,1.33l-8,9a1,1,0,0,1-.75.34"/><line class="cls-54" x1="1156.27" y1="644.48" x2="1153.27" y2="638.48"/><path class="cls-10" d="M1156.27,645.48a1,1,0,0,1-.89-.56l-3-6a1,1,0,1,1,1.79-.89l3,6a1,1,0,0,1-.45,1.34,1,1,0,0,1-.45.11"/><line class="cls-54" x1="1189.09" y1="639.9" x2="1181.27" y2="633.47"/><path class="cls-10" d="M1189.09,640.9a1,1,0,0,1-.64-.23l-7.81-6.42a1,1,0,0,1,1.27-1.55l7.81,6.43a1,1,0,0,1,.14,1.41,1,1,0,0,1-.77.36"/><line class="cls-54" x1="1169.44" y1="659.63" x2="1179.27" y2="664.48"/><path class="cls-10" d="M1179.27,665.48a1,1,0,0,1-.44-.11l-9.83-4.84a1,1,0,0,1,.88-1.8l9.83,4.85a1,1,0,0,1-.44,1.9"/><line class="cls-54" x1="1188.2" y1="656.18" x2="1183.27" y2="661.48"/><path class="cls-10" d="M1183.27,662.48a1,1,0,0,1-.68-.27,1,1,0,0,1,0-1.42l4.93-5.29a1,1,0,1,1,1.46,1.36l-4.93,5.3a1,1,0,0,1-.73.32"/><line class="cls-54" x1="1204.27" y1="650.48" x2="1210.27" y2="652.48"/><path class="cls-10" d="M1210.27,653.48a.85.85,0,0,1-.31-.06l-6-2a1,1,0,1,1,.63-1.89l6,2a1,1,0,0,1,.63,1.26,1,1,0,0,1-1,.69"/><line class="cls-54" x1="1221.27" y1="652.48" x2="1223.27" y2="643.48"/><path class="cls-10" d="M1221.27,653.48l-.21,0a1,1,0,0,1-.76-1.19l2-9a1,1,0,1,1,2,.43l-2,9a1,1,0,0,1-1,.79"/><line class="cls-54" x1="1225.27" y1="663.48" x2="1239.27" y2="662.48"/><path class="cls-10" d="M1225.27,664.48a1,1,0,0,1-.07-2l14-1a1,1,0,0,1,1.07.92,1,1,0,0,1-.93,1.07l-14,1h-.07"/><line class="cls-54" x1="1217.3" y1="668.05" x2="1216.27" y2="674.47"/><path class="cls-10" d="M1216.27,675.48l-.15,0a1,1,0,0,1-.83-1.14l1-6.43a1,1,0,1,1,2,.32l-1,6.42a1,1,0,0,1-1,.85"/><line class="cls-54" x1="1211.27" y1="659.48" x2="1204.27" y2="658.48"/><path class="cls-10" d="M1211.27,660.48h-.14l-7-1a1,1,0,1,1,.28-2l7,1a1,1,0,0,1,.85,1.13,1,1,0,0,1-1,.86"/><path class="cls-50" d="M1156.27,637a3.5,3.5,0,1,1-3.5-3.5,3.5,3.5,0,0,1,3.5,3.5"/><path class="cls-50" d="M1153.27,666a3.5,3.5,0,1,1-3.5-3.5,3.5,3.5,0,0,1,3.5,3.5"/><path class="cls-50" d="M1182.27,665a3.5,3.5,0,1,1-3.5-3.5,3.5,3.5,0,0,1,3.5,3.5"/><path class="cls-48" d="M1187.27,660a3.5,3.5,0,1,1-3.5-3.5,3.5,3.5,0,0,1,3.5,3.5"/><path class="cls-48" d="M1183.27,632a3.5,3.5,0,1,1-3.5-3.5,3.5,3.5,0,0,1,3.5,3.5"/><path class="cls-50" d="M1227.27,641a3.5,3.5,0,1,1-3.5-3.5,3.5,3.5,0,0,1,3.5,3.5"/><path class="cls-50" d="M1207.27,659a3.5,3.5,0,1,1-3.5-3.5,3.5,3.5,0,0,1,3.5,3.5"/><path class="cls-50" d="M1219.27,675a3.5,3.5,0,1,1-3.5-3.5,3.5,3.5,0,0,1,3.5,3.5"/><path class="cls-50" d="M1243.27,663a3.5,3.5,0,1,1-3.5-3.5,3.5,3.5,0,0,1,3.5,3.5"/><path class="cls-48" d="M1215.27,653a3.5,3.5,0,1,1-3.5-3.5,3.5,3.5,0,0,1,3.5,3.5"/><g class="cls-55"><g class="cls-56"><path class="cls-57" d="M1077.61,541.25a1.34,1.34,0,0,1,.78-.29c3.76-.23,31.92-1.88,32.46-1.12.38.55,1.1-.24,1.53-.81a1.44,1.44,0,0,1,1-.58l8.55-1a1,1,0,0,1,1.23,1l.43,9.23a1.27,1.27,0,0,1-.15.65,9.68,9.68,0,0,1-4.88,4.45,18.87,18.87,0,0,1-3.91,1,1.05,1.05,0,0,1-1.2-.77l-.28-1.09c-.32-1.29-2.36-.88-2.46.48a1.43,1.43,0,0,1-1.24,1.26c-3.17.39-11.78,1.4-12.25.73s-6.12-7-7.12-8.16a.89.89,0,0,0-.37-.26c-1.47-.59-9.74-3.91-10.59-3.3s-2.81,2-3.39,1.16c-.44-.63,1.13-2,1.87-2.53"/></g></g><path class="cls-16" d="M1111.08,557a.6.6,0,0,1-.07-1.2c.6-.07,2.43-.44,2.91-1.25a.86.86,0,0,0,0-.86,2,2,0,0,0-2.64-1.13.6.6,0,1,1-.44-1.11,3.11,3.11,0,0,1,4.19,1.8,2.07,2.07,0,0,1-.1,1.92c-.87,1.46-3.51,1.79-3.8,1.82h-.07"/><path class="cls-49" d="M1111.27,704.48h-111v-77h36.5a2,2,0,0,1,0,4h-32.5v69h107a2,2,0,0,1,0,4"/><path class="cls-58" d="M1302.81,677.22l10.22-5.58s43.66,40,66.88,50.16L1340,743.17s-37.16-50.16-37.16-65.95"/><path class="cls-47" d="M1363.65,661s-19.5,8.36-22.29,22.3c0,0-9.29.92-8.36,6.5s3.72,4.64,3.72,4.64-.93,21.37,14.86,27.87c0,0,2.78,3.71,2.78,10.22a24,24,0,0,1,14.4-6s-3.71-4.65-2.78-8.36c0,0,9.28,0,9.28-7.43s-7.43-7.43-7.43-7.43-20.43-14.87-15.79-34.37Z"/><path class="cls-59" d="M1340.9,749.67l-.93-5.57s15.79-20.44,47.37-22.3c0,0,10.22,15.8,10.22,17.65,0,0-32.51-2.78-56.66,10.22"/><path class="cls-47" d="M1296.31,657.71s-2.79-10.22.93-8.36S1312.35,672,1312.35,672l-9.54,5.21s-10.22-1.86-11.15-7.43,4.65-12.08,4.65-12.08"/><path class="cls-48" d="M1409.89,829.22s8.1,34.71-20.69,36.56-24.15.93-35.3,2.79-44.59.93-69.67-21.36-34.37-35.3-29.72-49.24,33.06-9.77,33.06-9.77l119.28,33Z"/><path class="cls-60" d="M1297.24,855.57s-23.23,1.85-30.66-.93-13.93-9.29-13-13.94,4.64-6.5,13-4.64,15.8,3.72,15.8,3.72Z"/><path class="cls-16" d="M1346.88,761l-49.81,17.35a1.83,1.83,0,0,1-2.32-1.13l-23-66a1.84,1.84,0,0,1,1.12-2.33l49.81-17.34a1.81,1.81,0,0,1,2.32,1.12l23,66a1.83,1.83,0,0,1-1.12,2.33"/><path class="cls-48" d="M1303.52,695.78a6.89,6.89,0,1,0-4.24,8.77,6.89,6.89,0,0,0,4.24-8.77"/><path class="cls-61" d="M1299.89,697.05a3,3,0,1,0-1.87,3.87,3,3,0,0,0,1.87-3.87"/><path class="cls-48" d="M1311.28,704.2l-21.62,7.53a5.26,5.26,0,0,1-5.66-1.46l-3.29-3.68a2,2,0,0,1,.82-3.15l31-10.79a2,2,0,0,1,2.59,2l-.29,4.93a5.28,5.28,0,0,1-3.53,4.66"/><path class="cls-25" d="M1287.43,728.75a1,1,0,0,1-.77,0l-3.34-1.62a1,1,0,1,1,.87-1.8l2.31,1.12,1.81-5.55a1,1,0,1,1,1.9.62l-2.16,6.64a1.05,1.05,0,0,1-.56.61l-.06,0"/><path class="cls-25" d="M1324.27,713.25l-28.35,9.87a1.25,1.25,0,0,1-.82-2.37l28.34-9.87a1.26,1.26,0,1,1,.83,2.37"/><path class="cls-25" d="M1291.8,741.31a1,1,0,0,1-.76,0l-3.35-1.62a1,1,0,0,1,.87-1.79l2.32,1.12,1.81-5.55a1,1,0,0,1,1.9.61l-2.17,6.64a1,1,0,0,1-.55.61l-.07,0"/><path class="cls-25" d="M1328.65,725.81l-28.35,9.87a1.26,1.26,0,0,1-.83-2.37l28.35-9.87a1.26,1.26,0,1,1,.83,2.37"/><path class="cls-25" d="M1296.18,753.88a1,1,0,0,1-.76,0l-3.35-1.62a1,1,0,0,1,.87-1.79l2.32,1.12,1.81-5.55a1,1,0,1,1,1.89.62l-2.16,6.63a1,1,0,0,1-.56.61l-.06,0"/><path class="cls-25" d="M1333,738.37l-28.34,9.88a1.26,1.26,0,0,1-.83-2.37L1332.2,736a1.27,1.27,0,0,1,1.6.78,1.25,1.25,0,0,1-.78,1.59"/><path class="cls-25" d="M1300.56,766.44a1,1,0,0,1-.77,0l-3.34-1.62a1,1,0,1,1,.86-1.8l2.32,1.12,1.81-5.55a1,1,0,0,1,1.9.62l-2.16,6.64a1.05,1.05,0,0,1-.56.61l-.06,0"/><path class="cls-25" d="M1337.4,750.94l-28.35,9.87a1.25,1.25,0,1,1-.82-2.37l28.34-9.87a1.26,1.26,0,1,1,.83,2.37"/><path class="cls-47" d="M1288.69,759.32l-4.78-13.51s-9.89,4.79-4.32,16.87Z"/><path class="cls-44" d="M1397.56,739.45s19.09,34.34,13.93,79.89c0,0-.92,35.59-2.16,38.25C1404,869,1378.82,869,1378.82,869a229.33,229.33,0,0,1-49.22,1.63c-24.36-1.82-7.28-49.41-7.28-52.2V800.76s5.57-39,18.58-51.09,56.66-10.22,56.66-10.22"/><path class="cls-10" d="M1337.42,754c-5.4,6.25-16.52,17-29,17-17.65,0-18.57-11.15-18.57-11.15s-6.51-.93-10.22,2.79c0,0,1.86,30.65,22.29,37.15s31.43,2.76,37.16-4.64c3.07-4,5-14.41,5.14-19.44.62-20.14-5.61-23-6.76-21.71"/><path class="cls-38" d="M1367.83,656.78s-10.21-.93-14.86,5.57-4.34,26.47,14.55,40.64c0,0-9,17,6.82,29,0,0-4.65,5.58,2.78,12.08,0,0-7.43,4.64,1.86,12.07,0,0-3.72,9.29-4.64,14.87h0l11.14,1.85s-.93-13-2.78-16.72c0,0,7.43-1.85,2.78-10.21,0,0,5.58-4.65,0-12.08a11,11,0,0,0,4.65-9.29,16,16,0,0,0,6.5-1.86,12.19,12.19,0,0,0,13.93,4.65,7.92,7.92,0,0,0,8,6.49h.41s0,9.29,10.22,4.64l12.08,6.51a31.43,31.43,0,0,0,0-10.22l-10.22.93s-.93-5.58-5.57-5.58c0,0,0-9.28-7.44-8.36,0,0,1.86-8.36-7.43-10.21,0,0,11.15-34.37-10.21-47.38s-32.52-7.43-32.52-7.43"/><path class="cls-15" d="M1354.27,693l-11.65-13.69s-7.25.39-9.35,6.69-5.36,14.23-2.33,20.06,15.74,14.4,20.64,16.17c3,1.1,21.76-13.28,2.69-29.23"/><path class="cls-25" d="M743.81,605.61S702.39,583.13,683,595l-30.88,70.44s36.88-3.51,62.72,18.34Z"/><path class="cls-25" d="M631.8,560.69s46.12,14.51,50.84,36.17l-30.5,68.57S626,630.7,591.35,626.84Z"/><path class="cls-62" d="M636.89,556.24s42.45,15.43,47.28,37.63l-30.88,72.37S631.82,629,598.17,625.41Z"/><path class="cls-59" d="M743.61,603.46s-40-21-59.65-9.67L653.11,666.4s40.09-10.27,65.35,12.24Z"/><path class="cls-63" d="M1060.1,740.39s36.29-11.77,44.13-20.59c0,0,22.56,31.38,44.14,30.4,0,0-22.56,29.43-35.31,33.35,0,0-38.25-10.79-53-43.16"/><path class="cls-10" d="M1150.33,743.06s38.58-4.91,48.11-12.27c0,0,16.66,35.71,38.46,38.82,0,0-28.17,25.2-41.69,26.72,0,0-36.28-18.05-44.88-53.27"/><path class="cls-10" d="M1042.92,627.48l-15.75-39.7a2.72,2.72,0,0,0-3.34-1.6L967.05,603.7a2.73,2.73,0,0,0-1.57,3.95l22.22,39.58a2.72,2.72,0,0,0,2.38,1.39h.25a2.74,2.74,0,0,0,.9-.15l50-17.41a2.73,2.73,0,0,0,1.65-3.58"/><path class="cls-11" d="M971.53,606.15l20.81,41.62,54.71-18.5s-7.71-40.07-10-41.61l-35.45,10-7.7-6.17-20,6.17Z"/><g class="cls-35"><g class="cls-64"><path class="cls-10" d="M816.4,670.13a4.85,4.85,0,0,1-1.06-.12,4.59,4.59,0,0,1-3.41-5.52l9.78-41.55a4.58,4.58,0,0,1,9,1s.12,7.24,4.49,11.18c2.39,2.15,5.68,3,10.06,2.59a4.58,4.58,0,1,1,.85,9.13c-7,.65-12.77-1-17.12-5a18.78,18.78,0,0,1-1.9-2l-6.28,26.68a4.58,4.58,0,0,1-4.45,3.54"/></g></g><path class="cls-11" d="M755.89,701.6a3.14,3.14,0,0,1-1.26-.27l-6.73-3.06a3.05,3.05,0,0,1,2.53-5.56l4,1.81,6-12.58a3.06,3.06,0,1,1,5.51,2.65l-7.33,15.28a3.07,3.07,0,0,1-2.76,1.73"/><g class="cls-39"><g class="cls-65"><path class="cls-66" d="M819.45,665.54c0,16.21-15.32,29.34-34.23,29.34S751,681.75,751,665.54s15.32-29.33,34.22-29.33,34.23,13.13,34.23,29.33"/></g></g><path class="cls-48" d="M815.78,667.52c0,15.11-14.29,27.36-31.91,27.36S752,682.63,752,667.52s14.29-27.36,31.92-27.36,31.91,12.25,31.91,27.36"/><path class="cls-11" d="M800.5,704.05a3.06,3.06,0,0,1-.4-6.09l5.12-.68-5.68-12.77a3.06,3.06,0,1,1,5.59-2.48l7.33,16.5a3.05,3.05,0,0,1-2.39,4.27L800.91,704l-.41,0"/><path class="cls-10" d="M1243,244.77l2.07,13.71a.8.8,0,0,0,.58.64l11.53,2.86a.78.78,0,0,1,0,1.51l-11.53,2.85a.8.8,0,0,0-.58.64L1243,280.69a.78.78,0,0,1-1.54,0L1239.43,267a.8.8,0,0,0-.58-.64l-11.53-2.85a.78.78,0,0,1,0-1.51l11.53-2.86a.8.8,0,0,0,.58-.64l2.07-13.71a.78.78,0,0,1,1.54,0"/><path class="cls-10" d="M1648.28,305.82l3.83,25.36a1.42,1.42,0,0,0,1.07,1.18l21.32,5.28a1.44,1.44,0,0,1,0,2.8l-21.32,5.28a1.43,1.43,0,0,0-1.07,1.18l-3.83,25.36a1.44,1.44,0,0,1-2.85,0l-3.83-25.36a1.43,1.43,0,0,0-1.07-1.18l-21.32-5.28a1.44,1.44,0,0,1,0-2.8l21.32-5.28a1.42,1.42,0,0,0,1.07-1.18l3.83-25.36a1.44,1.44,0,0,1,2.85,0"/><g class="cls-67"><g class="cls-68"><polygon class="cls-69" points="1504.32 391.4 1504.32 335.76 1456.13 307.93 1407.94 335.76 1407.94 391.4 1456.13 419.23 1504.32 391.4"/></g></g><path class="cls-44" d="M1464.18,360.52l-11.71-7.77,14.35-21.64a7,7,0,0,1,11.72,7.77Z"/><path class="cls-10" d="M1454.33,353.26l-14,21.13a4,4,0,0,0,1.12,5.51l.32.21-1.69,2.55a1.22,1.22,0,0,0,2,1.35l1.7-2.57a4,4,0,0,0,5.18-1.31L1463,359Z"/><path class="cls-11" d="M1469.89,365l-10.4-6.89L1447,349.84a4.58,4.58,0,0,1,5.07-7.64L1475,357.4a4.58,4.58,0,0,1-5.07,7.64"/><path class="cls-70" d="M1452.91,359.29l-11.15,16.81c-1,1.45-.83,3.23.29,4l.19.13-1.34,2a.88.88,0,0,0,.09,1.23.89.89,0,0,0,1.16-.4l1.35-2a3,3,0,0,0,3.58-1.4l11.14-16.8Z"/><path class="cls-70" d="M1446.19,394.53c0,4.42-3.24,6.4-5.5,6.4a6.36,6.36,0,0,1-5.5-6.4c0-4.41,5.5-9.6,5.5-9.6s5.5,5.19,5.5,9.6"/><path class="cls-15" d="M1461.85,585.78l-22.78,19.44-117-125.8a.93.93,0,0,1-.06-1.33l33.36-28.46Z"/><path class="cls-38" d="M1458.85,585.78l-22.78,19.44-117-125.8a.93.93,0,0,1-.06-1.33l33.36-28.46Z"/><path class="cls-16" d="M1473.66,607.25a18.5,18.5,0,1,0-21.5,18.23v33.27h6V625.48a18.5,18.5,0,0,0,15.5-18.23"/><polygon class="cls-15" points="1469.27 655.75 1472.99 655.75 1472.99 651.75 1437.99 651.75 1437.99 655.75 1442.71 655.75 1429.6 713.25 1433.49 714.14 1446.81 655.75 1465.17 655.75 1478.48 714.14 1482.38 713.25 1469.27 655.75"/><g class="cls-71"><g class="cls-72"><path class="cls-59" d="M1382.29,594.47a30.5,30.5,0,1,1-30.5-30.5,30.51,30.51,0,0,1,30.5,30.5"/></g></g><rect class="cls-8" x="891.73" y="793.8" width="174" height="4.89"/><rect class="cls-11" x="891.73" y="798.8" width="174" height="14.2"/><rect class="cls-29" x="891.86" y="813.23" width="14" height="18"/><rect class="cls-29" x="1051.61" y="813.23" width="14" height="18"/><rect class="cls-29" x="971.73" y="813.23" width="14" height="18"/><rect class="cls-8" x="835.51" y="734.58" width="174" height="4.89"/><rect class="cls-11" x="835.51" y="739.58" width="174" height="14.2"/><rect class="cls-29" x="835.64" y="754.01" width="14" height="18"/><rect class="cls-29" x="995.39" y="754.01" width="14" height="18"/><rect class="cls-29" x="915.51" y="754.01" width="14" height="18"/><path class="cls-7" d="M1065.81,796.74H897.48a8.3,8.3,0,0,1-6.07-2.66l-55.36-60.15a2.8,2.8,0,0,1,2.05-4.69h170.36a2.82,2.82,0,0,1,2.06.9l57.23,62.18a2.63,2.63,0,0,1-1.94,4.42"/><path class="cls-70" d="M1069.12,789.84H900.79a8.24,8.24,0,0,1-6.07-2.67L839.35,727a2.79,2.79,0,0,1,2.06-4.68h170.35a2.77,2.77,0,0,1,2.06.9l57.23,62.18a2.63,2.63,0,0,1-1.93,4.42"/><path class="cls-73" d="M1018.05,759.69c-2.07,19.19-32.92,31.59-68.89,27.7s-63.44-22.61-61.36-41.81,32.92-31.59,68.89-27.7,63.44,22.61,61.36,41.81"/><path class="cls-8" d="M972.72,752.1c-.83,7.58-10.91,12.71-22.52,11.46s-20.36-8.43-19.54-16,10.9-12.72,22.52-11.46,20.36,8.42,19.54,16"/><path class="cls-74" d="M887.37,718.79a3.75,3.75,0,0,1-2.23-.72,3.83,3.83,0,0,1-.89-5.35,59.9,59.9,0,0,1,74.57-17.67,3.84,3.84,0,0,1-3.57,6.79,52.22,52.22,0,0,0-64.76,15.35,3.85,3.85,0,0,1-3.12,1.6"/><path class="cls-75" d="M855.92,703.45a3.84,3.84,0,0,1-2.91-6.34c12.44-14.45,30.93-25.16,52.06-30.17s42.47-3.73,60.07,3.6a3.84,3.84,0,0,1-2.95,7.08c-16.12-6.71-35.78-7.85-55.35-3.22s-36.62,14.48-48,27.72a3.83,3.83,0,0,1-2.91,1.33"/><path class="cls-49" d="M831.8,689.69a3.77,3.77,0,0,1-2.21-.71,3.83,3.83,0,0,1-.92-5.34c15.08-21.37,38.4-37.06,65.68-44.18s55.3-4.82,78.9,6.46a3.84,3.84,0,0,1-3.31,6.92c-22-10.5-48.12-12.62-73.65-6S849,668.17,834.93,688.06a3.82,3.82,0,0,1-3.13,1.63"/><polygon class="cls-76" points="760.03 469.89 782.71 447.12 737.36 447.12 760.03 469.89"/><polygon class="cls-77" points="642.67 469.89 665.35 447.12 620 447.12 642.67 469.89"/><polygon class="cls-78" points="853.39 469.89 876.07 447.12 830.72 447.12 853.39 469.89"/><polygon class="cls-79" points="958.76 469.89 981.43 447.12 936.08 447.12 958.76 469.89"/><polygon class="cls-77" points="1064.12 469.89 1086.79 447.12 1041.44 447.12 1064.12 469.89"/><polygon class="cls-76" points="1169.48 469.89 1192.15 447.12 1146.8 447.12 1169.48 469.89"/><polygon class="cls-78" points="1274.84 469.89 1297.51 447.12 1252.16 447.12 1274.84 469.89"/><rect class="cls-80" x="589.6" y="444.17" width="710.62" height="3.93"/><path class="cls-81" d="M1480.46,471.09a18.5,18.5,0,1,1-18.5-18.5,18.5,18.5,0,0,1,18.5,18.5"/><g class="cls-82"><g class="cls-83"><path class="cls-8" d="M1337.27,463.48a8,8,0,1,1-8-8,8,8,0,0,1,8,8"/></g></g><path class="cls-11" d="M1365.27,710.88h-.09l-5.5-.64a.8.8,0,0,1-.71-.88.81.81,0,0,1,.89-.7l5.5.63a.8.8,0,0,1-.09,1.6"/><path class="cls-11" d="M1357.65,701.77a.79.79,0,0,1-.71-.43.81.81,0,0,1,.34-1.08l4.87-2.54a.8.8,0,0,1,.74,1.42l-4.87,2.54a.81.81,0,0,1-.37.09"/><path class="cls-7" d="M1579.27,966.24c0,5-14.55,9-32.5,9s-32.5-4-32.5-9,14.55-9,32.5-9,32.5,4,32.5,9"/><path class="cls-48" d="M1573.91,966.39s-3.91,2.85-25.43,2.85-27.39-2.85-27.39-2.85v-362s5.87-2.13,25.43-2.13c17.61,0,27.39,2.13,27.39,2.13Z"/><path class="cls-11" d="M1558.23,602.57a111.51,111.51,0,0,1,15.68,1.81v362s-2.39,1.74-13.72,2.5"/><path class="cls-10" d="M1642.49,890.55l-85.5-3.7c-7.11-.31-12.74-6.91-12.74-15V834.07c0-7.52,4.94-13.87,11.54-14.84l85.49-12.59c7.93-1.17,15,5.8,15,14.84v54.11c0,8.5-6.25,15.29-13.76,15"/><path class="cls-50" d="M1643,893.57l-.65,0-85.5-3.7c-8.75-.38-15.61-8.27-15.61-18V834.07c0-9,6.06-16.62,14.1-17.81l85.49-12.59a15,15,0,0,1,12.16,3.64,18.61,18.61,0,0,1,6.25,14.17v54.11a18.82,18.82,0,0,1-5.61,13.59,15.33,15.33,0,0,1-10.63,4.39m0-84.06a9.32,9.32,0,0,0-1.29.09l-85.5,12.6c-5.11.75-9,5.86-9,11.87v37.82c0,6.47,4.34,11.72,9.87,12l85.5,3.71a9.41,9.41,0,0,0,6.87-2.71,12.8,12.8,0,0,0,3.76-9.26V821.48a12.62,12.62,0,0,0-4.17-9.63,9.27,9.27,0,0,0-6.07-2.34"/><path class="cls-18" d="M1573.89,865.34l-12.16-13.08a1.93,1.93,0,0,1,.19-2.71l13.6-12.7,2.52,2.7-12.15,11.37,10.9,11.71Z"/><path class="cls-18" d="M1573.89,865.84h0a.48.48,0,0,1-.35-.16l-12.16-13.08a2.43,2.43,0,0,1,.22-3.41l13.6-12.71a.46.46,0,0,1,.36-.13.48.48,0,0,1,.35.16l2.51,2.7a.5.5,0,0,1,0,.71l-11.78,11,10.56,11.35a.51.51,0,0,1,0,.71l-2.9,2.71a.51.51,0,0,1-.34.13m1.61-28.29-13.24,12.37a1.42,1.42,0,0,0-.16,2l11.82,12.71,2.16-2-10.56-11.35a.51.51,0,0,1,0-.71l11.78-11Z"/><path class="cls-18" d="M1620,866l-2.52-2.71,12.83-12-11.16-12,2.9-2.71,12.42,13.35a1.79,1.79,0,0,1,.46,1.35,2,2,0,0,1-.65,1.36Z"/><path class="cls-18" d="M1620,866.48h0a.57.57,0,0,1-.35-.16l-2.52-2.71a.5.5,0,0,1,0-.71l12.48-11.65-10.82-11.63a.5.5,0,0,1,0-.71l2.9-2.71a.47.47,0,0,1,.36-.13.48.48,0,0,1,.35.16l12.42,13.35a2.29,2.29,0,0,1,.59,1.73,2.46,2.46,0,0,1-.82,1.69l-14.27,13.34a.49.49,0,0,1-.34.14m-1.82-3.19,1.84,2,13.91-13a1.49,1.49,0,0,0,.5-1,1.28,1.28,0,0,0-.32-1l-12.08-13-2.17,2,10.82,11.63a.5.5,0,0,1,0,.71Z"/><polygon class="cls-18" points="1588.68 875.1 1585.29 873.55 1609.18 827.08 1612.57 828.64 1588.68 875.1"/><path class="cls-18" d="M1588.68,875.6a.52.52,0,0,1-.21,0l-3.39-1.56a.47.47,0,0,1-.26-.29.48.48,0,0,1,0-.39l23.9-46.46a.5.5,0,0,1,.65-.23l3.39,1.56a.51.51,0,0,1,.27.29.53.53,0,0,1,0,.39l-23.9,46.46a.49.49,0,0,1-.44.27m-2.71-2.29,2.48,1.14,23.44-45.57-2.48-1.14Z"/><path class="cls-10" d="M1469.83,796.75l84.79-3.21a13,13,0,0,0,12.65-12.95V747.85A13,13,0,0,0,1555.82,735L1471,724.1A13.09,13.09,0,0,0,1456.18,737V783.8a13.07,13.07,0,0,0,13.65,13"/><path class="cls-50" d="M1469.31,799.76a16.07,16.07,0,0,1-11.25-4.53,15.73,15.73,0,0,1-4.88-11.43V737a15.88,15.88,0,0,1,5.41-11.92,16.26,16.26,0,0,1,12.82-3.9L1556.2,732a16.06,16.06,0,0,1,14.07,15.82v32.74a16,16,0,0,1-15.53,15.95l-84.8,3.21h-.63m.41-6,.11,3-.11-3,84.79-3.2a10,10,0,0,0,9.76-10V747.85a10.05,10.05,0,0,0-8.83-9.87l-84.8-10.9a10.26,10.26,0,0,0-8.08,2.45,9.77,9.77,0,0,0-3.38,7.42V783.8a9.8,9.8,0,0,0,3,7.11,10.13,10.13,0,0,0,7.5,2.84"/><path class="cls-84" d="M1489.42,739.36l-18.91,7.12a1,1,0,0,0-.3.94l11.14,17.11Z"/><polygon class="cls-15" points="1481.38 764.54 1489.44 739.37 1548.39 759 1540.33 784.17 1481.38 764.54"/><polygon class="cls-44" points="1487.25 746.2 1489.44 739.37 1548.39 759 1546.2 765.83 1487.25 746.2"/><polygon class="cls-44" points="1481.38 764.54 1483.56 757.72 1542.51 777.35 1540.33 784.17 1481.38 764.54"/><path class="cls-46" d="M1553,774.46h0c2.23-7,2.06-13.24-.37-14.05l-4.22-1.41-8.07,25.17,4.23,1.41c2.43.81,6.2-4.17,8.43-11.12"/><polygon class="cls-84" points="1535.81 782.67 1543.87 757.5 1548.39 759 1540.33 784.17 1535.81 782.67"/><path class="cls-7" d="M1470.21,747.42l4.49,6.89c1.06-3.35,2.32-7.32,3.4-10.69l-7.59,2.86a1,1,0,0,0-.3.94"/><g class="cls-85"><g class="cls-86"><path class="cls-10" d="M1601.27,708.7l-85.49-3.34A13.39,13.39,0,0,1,1503,691.87v-34.1a13.41,13.41,0,0,1,11.54-13.38l85.5-11.36a13.35,13.35,0,0,1,15,13.39v48.79a13.37,13.37,0,0,1-13.77,13.49"/><path class="cls-50" d="M1601.8,711.71h-.64l-85.5-3.34A16.34,16.34,0,0,1,1500,691.87v-34.1a16.47,16.47,0,0,1,14.15-16.36l85.49-11.35a16.12,16.12,0,0,1,12.73,3.86,16.63,16.63,0,0,1,5.64,12.5v48.79a16.48,16.48,0,0,1-5.08,12,16,16,0,0,1-11.16,4.52m-.41-6a10.11,10.11,0,0,0,7.41-2.83,10.53,10.53,0,0,0,3.24-7.66V646.42a10.59,10.59,0,0,0-3.59-8,10,10,0,0,0-8-2.44L1515,647.36a10.44,10.44,0,0,0-8.94,10.41v34.1a10.36,10.36,0,0,0,9.87,10.49Z"/></g></g><g class="cls-87"><g class="cls-88"><path class="cls-50" d="M1581.37,691.49a20.46,20.46,0,1,0-26.49-31.19A20.13,20.13,0,0,0,1549,669a23.35,23.35,0,0,0-1.13,5.23c-.19,1.7.21,3.42,0,5.11-.22,1.46-1.17,2.41-1.88,3.63a4.07,4.07,0,0,0,.41,4.69l6.67,7.86a4.07,4.07,0,0,0,4.54,1.17,18.82,18.82,0,0,1,3.53-1.31c1.45-.22,3,.68,4.5.83a22.08,22.08,0,0,0,5.57-.08,20.85,20.85,0,0,0,10.24-4.64"/></g></g><path class="cls-10" d="M1581.85,672.32a1.51,1.51,0,0,1-.31-.57,14.59,14.59,0,0,0-.53-1.44,1.61,1.61,0,1,1,3-1.27c.24.57.46,1.17.65,1.77a1.61,1.61,0,0,1-2.76,1.51"/><path class="cls-10" d="M1577,688.85a1.6,1.6,0,0,1,.18-2.26,13.89,13.89,0,0,0,4.92-10,1.61,1.61,0,1,1,3.21.18,17.32,17.32,0,0,1-6,12.22,1.6,1.6,0,0,1-2.26-.19"/><path class="cls-89" d="M1560.1,676.67a3.71,3.71,0,0,1-.86-2l-.25-2.19a.86.86,0,0,1,.76-1,.88.88,0,0,1,1,.76l.25,2.19a2,2,0,0,0,1.47,1.68l1.61.42a3.69,3.69,0,0,1,2.77,3.3l.12,1.56a2,2,0,0,0,1.42,1.73l2.29.67a.87.87,0,0,1,.6,1.07.88.88,0,0,1-1.08.59l-2.29-.66a3.71,3.71,0,0,1-2.66-3.27l-.13-1.56a2,2,0,0,0-1.47-1.75l-1.61-.42a3.69,3.69,0,0,1-1.9-1.19"/><path class="cls-89" d="M1545.54,689.16a.86.86,0,0,1,0-1.12l14.3-17a.88.88,0,0,1,1.23-.1.87.87,0,0,1,.1,1.22l-14.31,17a.86.86,0,0,1-1.22.11.94.94,0,0,1-.1-.1"/><path class="cls-89" d="M1551.41,696.07a.47.47,0,0,1-.09-.12.87.87,0,0,1,.31-1.19l19.08-11.26a.87.87,0,0,1,.88,1.5l-19.08,11.25a.87.87,0,0,1-1.1-.18"/><path class="cls-90" d="M1545.29,700l-4.64-5.46a3.8,3.8,0,0,1,.43-5.36l.9-.76a3.8,3.8,0,0,1,5.35.44l4.64,5.46a3.8,3.8,0,0,1-.44,5.36l-.89.75a3.79,3.79,0,0,1-5.35-.43"/><path class="cls-7" d="M1540.4,699.43h0a4.56,4.56,0,0,1,.53-6.42l2.3-2a4.55,4.55,0,0,1,5.9,6.94l-2.31,2a4.56,4.56,0,0,1-6.42-.53"/><rect class="cls-15" x="1546.74" y="685.93" width="1.73" height="14.76" transform="translate(-80.8 1166.66) rotate(-40.34)"/><rect class="cls-15" x="1544.16" y="688.13" width="1.73" height="14.76" transform="translate(-82.83 1165.51) rotate(-40.34)"/><path class="cls-44" d="M1586.9,660.06a.93.93,0,0,1,.11-1.32l4.74-4a.94.94,0,1,1,1.21,1.43l-4.74,4a.94.94,0,0,1-1.32-.11"/><path class="cls-44" d="M1596,687.53l-5.8-2.24a1,1,0,0,1-.54-1.22.93.93,0,0,1,1.21-.53l5.8,2.24a.94.94,0,1,1-.67,1.75"/><path class="cls-44" d="M1561.48,646.88l1.27,6.09a.94.94,0,0,0,1.83-.39l-1.27-6.08a.93.93,0,1,0-1.83.38"/><path class="cls-44" d="M1541.26,659.86l4.57,4.21a1,1,0,0,0,1.33-.06.93.93,0,0,0-.06-1.32l-4.58-4.21a.93.93,0,1,0-1.26,1.38"/><path class="cls-44" d="M1578.76,697.36l4.57,4.21a1,1,0,0,0,1.33-.06.93.93,0,0,0-.06-1.32L1580,696a.93.93,0,1,0-1.26,1.38"/><path class="cls-70" d="M1461.74,902.75a4.37,4.37,0,0,0,4.24-5.36l-9.29-39.52a4.36,4.36,0,0,0-8.6,1s-.12,6.89-4.27,10.63c-2.27,2-5.4,2.86-9.57,2.47a4.36,4.36,0,0,0-.81,8.68c6.67.62,12.15-1,16.28-4.73a19,19,0,0,0,1.81-1.9l6,25.37a4.36,4.36,0,0,0,4.24,3.36"/><path class="cls-49" d="M1519.27,932.68a3,3,0,0,0,1.21-.26l6.39-2.91a2.91,2.91,0,0,0-2.41-5.29l-3.8,1.73-5.74-12a2.91,2.91,0,0,0-5.24,2.52l7,14.53a2.91,2.91,0,0,0,2.62,1.65"/><g class="cls-39"><g class="cls-91"><path class="cls-10" d="M1458.84,898.39c0,15.4,14.57,27.89,32.54,27.89s32.54-12.49,32.54-27.89-14.57-27.89-32.54-27.89-32.54,12.48-32.54,27.89"/></g></g><path class="cls-18" d="M1462.32,899.9c0,14.57,13.78,26.38,30.78,26.38s30.79-11.81,30.79-26.38-13.79-26.39-30.79-26.39-30.78,11.82-30.78,26.39"/><path class="cls-49" d="M1476.85,935a2.91,2.91,0,0,0,.38-5.79l-4.86-.64,5.39-12.15a2.91,2.91,0,0,0-5.31-2.36l-7,15.69a2.91,2.91,0,0,0,2.27,4.06l8.72,1.16.38,0"/><path class="cls-10" d="M1643.1,603.2l2.21,12a.74.74,0,0,0,.63.55l12.34,2.5a.66.66,0,0,1,0,1.31l-12.34,2.5a.74.74,0,0,0-.63.55l-2.21,12a.88.88,0,0,1-1.65,0l-2.22-12a.73.73,0,0,0-.62-.55l-12.34-2.5a.66.66,0,0,1,0-1.31l12.34-2.5a.73.73,0,0,0,.62-.55l2.22-12a.88.88,0,0,1,1.65,0"/><path class="cls-77" d="M190.08,602.9l38,7.44,2.31-40.72s-37.32,24.3-40.31,33.28"/><g class="cls-92"><g class="cls-93"><path class="cls-57" d="M475.13,423.65h0a7,7,0,0,1-7-7v-50c0-3.87,14-3.87,14,0v50a7,7,0,0,1-7,7"/></g></g><g class="cls-92"><g class="cls-94"><path class="cls-57" d="M444.13,423.65h0a7,7,0,0,1-7-7v-50c0-3.87,14-3.87,14,0v50a7,7,0,0,1-7,7"/></g></g><g class="cls-92"><g class="cls-95"><path class="cls-57" d="M413.13,423.65h0a7,7,0,0,1-7-7v-50c0-3.87,14-3.87,14,0v50a7,7,0,0,1-7,7"/></g></g><g class="cls-92"><g class="cls-96"><path class="cls-57" d="M382.13,423.65h0a7,7,0,0,1-7-7v-50c0-3.87,14-3.87,14,0v50a7,7,0,0,1-7,7"/></g></g><rect class="cls-8" x="380.95" y="792.83" width="174" height="4.89"/><rect class="cls-11" x="380.95" y="797.83" width="174" height="14.2"/><rect class="cls-29" x="381.07" y="812.26" width="14" height="18"/><rect class="cls-29" x="540.82" y="812.26" width="14" height="18"/><rect class="cls-29" x="460.95" y="812.26" width="14" height="18"/><rect class="cls-8" x="380.95" y="868.83" width="174" height="4.89"/><rect class="cls-11" x="380.95" y="873.82" width="174" height="14.19"/><rect class="cls-29" x="381.07" y="888.26" width="14" height="18"/><rect class="cls-29" x="540.82" y="888.26" width="14" height="18"/><rect class="cls-29" x="460.95" y="888.26" width="14" height="18"/><rect class="cls-8" x="380.95" y="830.83" width="174" height="4.89"/><rect class="cls-11" x="380.95" y="835.83" width="174" height="14.2"/><rect class="cls-29" x="381.07" y="850.26" width="14" height="18"/><rect class="cls-29" x="540.82" y="850.26" width="14" height="18"/><rect class="cls-29" x="460.95" y="850.26" width="14" height="18"/><rect class="cls-8" x="552.95" y="792.83" width="174" height="4.89"/><rect class="cls-11" x="552.95" y="797.83" width="174" height="14.2"/><rect class="cls-29" x="553.07" y="812.26" width="14" height="18"/><rect class="cls-29" x="712.82" y="812.26" width="14" height="18"/><rect class="cls-29" x="632.95" y="812.26" width="14" height="18"/><rect class="cls-8" x="552.95" y="868.83" width="174" height="4.89"/><rect class="cls-11" x="552.95" y="873.82" width="174" height="14.19"/><rect class="cls-29" x="553.07" y="888.26" width="14" height="18"/><rect class="cls-29" x="712.82" y="888.26" width="14" height="18"/><rect class="cls-29" x="632.95" y="888.26" width="14" height="18"/><rect class="cls-8" x="552.95" y="830.83" width="174" height="4.89"/><rect class="cls-11" x="552.95" y="835.83" width="174" height="14.2"/><rect class="cls-29" x="553.07" y="850.26" width="14" height="18"/><rect class="cls-29" x="712.82" y="850.26" width="14" height="18"/><rect class="cls-29" x="632.95" y="850.26" width="14" height="18"/><path class="cls-10" d="M301.34,155.29l2.78,18.36a1,1,0,0,0,.78.86l15.44,3.83a1,1,0,0,1,0,2l-15.44,3.83a1,1,0,0,0-.78.85l-2.78,18.37a1,1,0,0,1-2.06,0L296.51,185a1,1,0,0,0-.78-.85l-15.44-3.83a1,1,0,0,1,0-2l15.44-3.83a1,1,0,0,0,.78-.86l2.77-18.36a1,1,0,0,1,2.06,0"/><path class="cls-10" d="M618.31,406l2.07,13.71a.78.78,0,0,0,.58.64l11.53,2.85a.78.78,0,0,1,0,1.51L621,427.6a.77.77,0,0,0-.58.64L618.31,442a.78.78,0,0,1-1.54,0l-2.07-13.71a.78.78,0,0,0-.58-.64l-11.53-2.86a.78.78,0,0,1,0-1.51l11.53-2.85a.8.8,0,0,0,.58-.64L616.77,406a.78.78,0,0,1,1.54,0"/><path class="cls-10" d="M169.93,502.48l2.62,17.3a1,1,0,0,0,.73.81l14.55,3.6a1,1,0,0,1,0,1.91l-14.55,3.6a1,1,0,0,0-.73.81l-2.62,17.3a1,1,0,0,1-1.94,0l-2.61-17.3a1,1,0,0,0-.73-.81l-14.55-3.6a1,1,0,0,1,0-1.91l14.55-3.6a1,1,0,0,0,.73-.81l2.61-17.3a1,1,0,0,1,1.94,0"/><path class="cls-16" d="M641.48,778.94l-220,11.38a6,6,0,0,1-6.31-6V643.27a6,6,0,0,1,5.62-6l221-12.22a6,6,0,0,1,6.39,6L647.17,773a6,6,0,0,1-5.69,6"/><path class="cls-62" d="M707.33,900.24l-234,14.15a6,6,0,0,1-5.85-3.56l-48.8-110.25a6,6,0,0,1,5.15-8.42l218.7-12.31a6,6,0,0,1,5.5,2.94l64.14,108.4a6,6,0,0,1-4.8,9"/><g class="cls-97"><g class="cls-98"><path class="cls-99" d="M471.05,773.08l162.78-8.28a4.58,4.58,0,0,0,4.37-4.51l.68-103.84A1.82,1.82,0,0,0,636,655L469.91,769.83a1.78,1.78,0,0,0,1.14,3.25"/></g></g><polygon class="cls-100" points="648.72 895.93 542.91 902.32 521.93 858.82 627.74 852.43 648.72 895.93"/><g class="cls-30"><g class="cls-101"><path class="cls-102" d="M421.89,681.77h-1V647.58a6.1,6.1,0,0,1,5.73-6.05l207.15-11.34a6.2,6.2,0,0,1,4.62,1.66,6,6,0,0,1,1.89,4.43h-1a5,5,0,0,0-1.58-3.69,5.14,5.14,0,0,0-3.87-1.39L426.68,642.52a5.1,5.1,0,0,0-4.79,5.06Z"/><path class="cls-102" d="M427,784.43a6.13,6.13,0,0,1-4.23-1.68,6,6,0,0,1-1.88-4.38V748.86h1v29.51a5,5,0,0,0,1.57,3.65,5.09,5.09,0,0,0,3.82,1.41l169.23-8.66,0,1-169.23,8.66H427"/></g></g><g class="cls-103"><g class="cls-104"><path class="cls-105" d="M734.51,745.46H614.86a2,2,0,0,1-2-2V672a2,2,0,0,1,2-2H734.51a2,2,0,0,1,2,2v71.45a2,2,0,0,1-2,2"/></g></g><path class="cls-10" d="M633.42,731.4h0a4.06,4.06,0,0,1-4.06-4.06V702.15a4.06,4.06,0,0,1,8.11,0v25.19a4.05,4.05,0,0,1-4.05,4.06"/><path class="cls-10" d="M660.93,731.4h0a4.05,4.05,0,0,1-4-4.06V684a4.05,4.05,0,0,1,8.1,0v43.34a4.05,4.05,0,0,1-4.05,4.06"/><path class="cls-10" d="M688.45,731.4h0a4.06,4.06,0,0,1-4.06-4.06V712.26a4.06,4.06,0,0,1,8.11,0v15.08a4.06,4.06,0,0,1-4,4.06"/><path class="cls-10" d="M716,731.4h0a4.05,4.05,0,0,1-4.05-4.06V703.66a4.05,4.05,0,1,1,8.1,0v23.68a4.05,4.05,0,0,1-4,4.06"/><rect class="cls-106" x="624.89" y="708.53" width="16.87" height="3.95"/><rect class="cls-106" x="652.86" y="693.96" width="16.87" height="3.95"/><rect class="cls-106" x="680.62" y="721.72" width="16.87" height="3.95"/><rect class="cls-106" x="707.49" y="711.72" width="16.87" height="3.95"/><path class="cls-49" d="M503.13,758.57a2,2,0,0,1-2-2V267.65a2,2,0,0,1,4,0V756.57a2,2,0,0,1-2,2"/><path class="cls-49" d="M530.13,585.84h-93a2,2,0,0,1,0-4h93a2,2,0,0,1,0,4"/><path class="cls-49" d="M568.23,634.65h-81.1a2,2,0,0,1,0-4h81.1a2,2,0,0,1,0,4"/><path class="cls-49" d="M518.13,373h-144a2,2,0,0,1,0-4h144a2,2,0,0,1,0,4"/><g class="cls-35"><g class="cls-107"><path class="cls-10" d="M506.77,376.89h-6.7a2,2,0,0,1-2-2V367a2,2,0,0,1,2-2h6.7a2,2,0,0,1,2,2v7.83a2,2,0,0,1-2,2"/></g></g><path class="cls-48" d="M468.1,367.13h15.42a3.6,3.6,0,0,1,3.61,3.6v0a3.6,3.6,0,0,1-3.61,3.61H468.1a3.6,3.6,0,0,1-3.61-3.61v0a3.6,3.6,0,0,1,3.61-3.6"/><path class="cls-48" d="M437.1,367.13h15.42a3.6,3.6,0,0,1,3.61,3.6v0a3.6,3.6,0,0,1-3.61,3.61H437.1a3.6,3.6,0,0,1-3.61-3.61v0a3.6,3.6,0,0,1,3.61-3.6"/><path class="cls-48" d="M406.1,367.13h15.42a3.6,3.6,0,0,1,3.61,3.6v0a3.6,3.6,0,0,1-3.61,3.61H406.1a3.6,3.6,0,0,1-3.61-3.61v0a3.6,3.6,0,0,1,3.61-3.6"/><path class="cls-48" d="M375.1,367.13h15.42a3.6,3.6,0,0,1,3.61,3.6v0a3.6,3.6,0,0,1-3.61,3.61H375.1a3.6,3.6,0,0,1-3.61-3.61v0a3.6,3.6,0,0,1,3.61-3.6"/><path class="cls-49" d="M518.13,459h-144a2,2,0,0,1,0-4h144a2,2,0,0,1,0,4"/><path class="cls-49" d="M518.13,294.34h-31a2,2,0,0,1,0-4h31a2,2,0,0,1,0,4"/><path class="cls-49" d="M564.13,507.15h-77a2,2,0,0,1,0-4h77a2,2,0,0,1,0,4"/><path class="cls-75" d="M438.63,686.52a.44.44,0,0,0-.69-.37L330,759.52a.44.44,0,0,0,.25.81H439a.45.45,0,0,0,.45-.45ZM425.7,745.73H376.42a1.28,1.28,0,0,1-.73-2.34l48.92-34a1.29,1.29,0,0,1,2,1.05l.36,34a1.28,1.28,0,0,1-1.29,1.3"/><rect class="cls-108" x="370.16" y="753.49" width="1.89" height="6.8"/><rect class="cls-108" x="387.09" y="753.49" width="1.89" height="6.8"/><rect class="cls-108" x="404.01" y="753.49" width="1.89" height="6.8"/><rect class="cls-108" x="420.94" y="753.49" width="1.89" height="6.8"/><g class="cls-109"><g class="cls-110"><path class="cls-111" d="M279.13,564.45a.79.79,0,0,1-.44-.14.8.8,0,0,1-.23-1.11l6-9a.8.8,0,0,1,1.11-.22.81.81,0,0,1,.23,1.11l-6,9a.82.82,0,0,1-.67.36"/></g></g><g class="cls-109"><g class="cls-112"><path class="cls-111" d="M283.13,566.45a.72.72,0,0,1-.42-.13.8.8,0,0,1-.26-1.1l5-8a.8.8,0,0,1,1.36.85l-5,8a.8.8,0,0,1-.68.38"/></g></g><path class="cls-113" d="M291.14,605.26s-3.84,6.6-2.62,8.92h0l3.93.94a1.19,1.19,0,0,0,1.45-.93l1.53-7.66a.91.91,0,0,0-.76-1.08c-1.25-.18-3.39-.31-4.07.79"/><rect class="cls-114" x="482.02" y="755.58" width="107.71" height="3.5" transform="translate(-34.68 25.77) rotate(-2.67)"/><rect class="cls-113" x="477.21" y="759.12" width="116" height="3.5" transform="translate(-34.85 25.75) rotate(-2.67)"/><g class="cls-35"><g class="cls-115"><path class="cls-10" d="M506.77,638.85h-6.7a2,2,0,0,1-2-2V629a2,2,0,0,1,2-2h6.7a2,2,0,0,1,2,2v7.83a2,2,0,0,1-2,2"/></g></g><g class="cls-35"><g class="cls-116"><path class="cls-10" d="M506.77,589.69h-6.7a2,2,0,0,1-2-2v-7.83a2,2,0,0,1,2-2h6.7a2,2,0,0,1,2,2v7.83a2,2,0,0,1-2,2"/></g></g><g class="cls-35"><g class="cls-117"><path class="cls-10" d="M506.77,511.1h-6.7a2,2,0,0,1-2-2v-7.83a2,2,0,0,1,2-2h6.7a2,2,0,0,1,2,2v7.83a2,2,0,0,1-2,2"/></g></g><g class="cls-35"><g class="cls-107"><path class="cls-10" d="M506.77,376.89h-6.7a2,2,0,0,1-2-2V367a2,2,0,0,1,2-2h6.7a2,2,0,0,1,2,2v7.83a2,2,0,0,1-2,2"/></g></g><g class="cls-35"><g class="cls-118"><path class="cls-10" d="M506.77,298.07h-6.7a2,2,0,0,1-2-2v-7.83a2,2,0,0,1,2-2h6.7a2,2,0,0,1,2,2V296a2,2,0,0,1-2,2"/></g></g><g class="cls-35"><g class="cls-119"><path class="cls-120" d="M569.22,648.36V630.84a7.15,7.15,0,0,0,6.21-7.08v1a7.15,7.15,0,0,0-7.15-7.15H542.66a7.14,7.14,0,0,0-7.14,7.15v-1a7.14,7.14,0,0,0,6.2,7.08v17.52A50.11,50.11,0,0,0,520,732c9.07,9.07,61.8,9.07,70.87,0a50.11,50.11,0,0,0-21.69-83.62"/></g></g><path class="cls-19" d="M595.42,707.67c0,14.63-17.79,26.49-39.73,26.49S516,722.3,516,707.67c0-7.32,4.45-13.94,11.64-18.73s19.77,4.6,30.75,4.6c11.66,0,19.51-9,26.78-3.67,6.4,4.7,10.3,10.94,10.3,17.8"/><path class="cls-20" d="M541.75,724.09a1.62,1.62,0,0,1-1.06-2.85l24.89-21.65a1.64,1.64,0,0,1,2.29.16,1.62,1.62,0,0,1-.16,2.29l-24.89,21.65a1.62,1.62,0,0,1-1.07.4"/><path class="cls-16" d="M546.61,720.43c-1.78-2-2.66-4.86-2.66-8.62s.88-6.6,2.66-8.58,4.31-3,7.61-3,5.84,1,7.61,3,2.64,4.83,2.64,8.59-.88,6.63-2.64,8.62-4.3,3-7.61,3-5.84-1-7.61-3m12-2.69a12.41,12.41,0,0,0,0-11.83,5.1,5.1,0,0,0-4.38-2,5.16,5.16,0,0,0-4.39,2,9.76,9.76,0,0,0-1.51,5.9,9.92,9.92,0,0,0,1.51,5.93,5.13,5.13,0,0,0,4.39,2,5.07,5.07,0,0,0,4.36-2"/><path class="cls-48" d="M568.09,636.53h-25a3.61,3.61,0,0,1-3.61-3.61v0a3.6,3.6,0,0,1,3.61-3.61h25a3.61,3.61,0,0,1,3.61,3.61v0a3.61,3.61,0,0,1-3.61,3.61"/><g class="cls-67"><g class="cls-121"><path class="cls-69" d="M568.13,508.11,569.76,498a2,2,0,0,0-2-2.31H542.5a2,2,0,0,0-2,2.33l1.6,9.45c-13.42,4.12-23,15-23,27.72,0,16.29,15.67,29.5,35,29.5s35-13.21,35-29.5c0-12.1-8.64-22.49-21-27"/></g></g><path class="cls-122" d="M568.09,508.53h-25a3.61,3.61,0,0,1-3.61-3.61v0a3.6,3.6,0,0,1,3.61-3.61h25a3.61,3.61,0,0,1,3.61,3.61v0a3.61,3.61,0,0,1-3.61,3.61"/><polygon class="cls-123" points="437.41 616.54 437.41 551.14 380.77 518.44 324.13 551.14 324.13 616.54 380.77 649.24 437.41 616.54"/><polygon class="cls-90" points="388.71 595.83 364.07 580.36 344.27 595.48 341.24 591.5 363.8 574.28 387.81 589.36 416.96 556.98 420.67 560.32 388.71 595.83"/><polygon class="cls-90" points="420.85 573.8 412.24 567 403.62 560.19 413.82 556.13 424.02 552.08 422.43 562.94 420.85 573.8"/><path class="cls-124" d="M306,633s22-39,22-54l-11-5s-31,42-50,49,39,10,39,10"/><path class="cls-47" d="M275.46,539.46s16,5,23,18c0,0,8.5-1.5,9.5,3.5s-4,7-4,7,9,19-5,30-9,15-9,15-14,12-26,13-14-13-14-13Z"/><path class="cls-38" d="M223.55,565.16c.86-1.29,2.4-1.94,2.56-3.48.68-6.23,4-19.68,19.85-25.72,21-8,33.6.69,39.6,3.69,0,0,2.4,3.31-15.6,25.31,0,0,4,9,2,13a11.25,11.25,0,0,0-4,5c-1,3,3.6,8.69,8.6,8.69,0,0-3,11-6,14S261,617,255,616s-29.5-10.6-35-32c-2.4-9.31.6-14.31,3.59-18.8"/><path class="cls-47" d="M317,575s0-11,3-17,10-5,11-2,0,12,0,12,5-4,5-1-9,13-9,13Z"/><path class="cls-47" d="M367.09,583.45S365,571,370,569s8-1,9,4-1.85,12.81-1.85,12.81Z"/><path class="cls-48" d="M309.67,734.47S308,830,302,873l-20,3-19-94s-5,71-9,89l-20,1S216.62,764.84,220.79,738.9Z"/><path class="cls-10" d="M282.13,874v13l36-3s3-15-5-17-17-5-31,7"/><path class="cls-10" d="M291,621s9,8,31,3,43-41,43-41l13,3s-5,64-56,89c0,0-11,5-12,15s11.87,72.76,7.87,80.76-95.09,22.95-97.16,14C218.05,773.34,220,722,221,712s-1-64,12-81Z"/><path class="cls-10" d="M234.13,869v13l36-3s3-15-5-17-17-5-31,7"/><path class="cls-122" d="M436.87,596.13V571.35a3.6,3.6,0,0,1,3.6-3.6h0a3.6,3.6,0,0,1,3.6,3.6v24.78a3.61,3.61,0,0,1-3.6,3.61h0a3.61,3.61,0,0,1-3.6-3.61"/><g class="cls-125"><g class="cls-126"><polygon class="cls-70" points="373.41 497.29 373.41 414.65 301.84 373.32 230.26 414.65 230.26 497.29 301.84 538.62 373.41 497.29"/></g></g><path class="cls-10" d="M431.89,273.77a18.38,18.38,0,0,0-6.56,0,18.33,18.33,0,0,0,.08,36.09,18.1,18.1,0,0,0,6.23,0,18.33,18.33,0,0,0,.25-36.1m-1.13,30.89a12.73,12.73,0,0,1-4.44,0,13,13,0,0,1-.06-25.69,12.89,12.89,0,0,1,2.34-.21,13.73,13.73,0,0,1,2.33.21,13.05,13.05,0,0,1-.17,25.7"/><path class="cls-10" d="M458.86,304.16l5.54,1.15,2.42-11.7-5.55-1.15a32.58,32.58,0,0,0-2.54-13.33l4.73-3.11-6.56-10-4.74,3.12a32.28,32.28,0,0,0-8.55-6.4c-.83-.43-1.7-.83-2.58-1.2l-.1,0,1.15-5.54-11.69-2.42-1.15,5.55a34,34,0,0,0-3.65.12,32.9,32.9,0,0,0-9.7,2.42l-3.11-4.73-10,6.56,3.1,4.73a32.71,32.71,0,0,0-7.63,11.24l-5.54-1.15L390.32,290l5.54,1.14a32.52,32.52,0,0,0,2.55,13.35l-4.73,3.1,6.56,10,4.73-3.1a32.71,32.71,0,0,0,11.24,7.63l-1.15,5.54,11.69,2.42,1.15-5.54c1.23,0,2.45,0,3.65-.12a32.54,32.54,0,0,0,9.69-2.43l3.11,4.73,10-6.56-3.11-4.73a32.69,32.69,0,0,0,7.64-11.24m-28.09,11.7a24.16,24.16,0,1,1,2.69-47.71,24.62,24.62,0,0,1,4,1.18,21.55,21.55,0,0,1,2.58,1.19,24.16,24.16,0,0,1-9.24,45.34"/><g class="cls-67"><g class="cls-127"><polygon class="cls-69" points="485.21 324.5 485.21 259.1 428.57 226.4 371.93 259.1 371.93 324.5 428.57 357.2 485.21 324.5"/></g></g><path class="cls-70" d="M534.13,525.65c10.61-3.54,13,5,23,11s21,4,26,1,7,9-8,17-36.55,4.83-43,0c-8-6-16-23,2-29"/><g class="cls-82"><g class="cls-128"><path class="cls-8" d="M550.13,477.65a6.52,6.52,0,1,1-6.5-6,6.27,6.27,0,0,1,6.5,6"/></g></g><path class="cls-57" d="M573.13,425.15a18.5,18.5,0,1,1-18.5-18.5,18.5,18.5,0,0,1,18.5,18.5"/><g class="cls-82"><g class="cls-129"><path class="cls-8" d="M561.13,405.15a18.5,18.5,0,1,1-18.5-18.5,18.5,18.5,0,0,1,18.5,18.5"/></g></g><g class="cls-87"><g class="cls-130"><path class="cls-59" d="M574.13,343.65a10,10,0,1,1-10-10,10,10,0,0,1,10,10"/></g></g><path class="cls-10" d="M307,500.34l-62.73-33.91,54.71-58,61.34,56.36Zm-53-35.48,52.69,28.48,44-29.3-51.36-47.18Z"/><rect class="cls-10" x="299.65" y="415.05" width="6" height="81.84" transform="translate(-48.13 35.9) rotate(-6.29)"/><polygon class="cls-10" points="249.53 467.61 248.73 463.69 286.47 455.94 294.18 422.2 298.08 423.09 289.79 459.35 249.53 467.61"/><rect class="cls-10" x="317.13" y="429.95" width="4" height="62.39" transform="translate(-174.91 726.53) rotate(-83.56)"/><path class="cls-113" d="M304.13,411.65a6,6,0,1,1-6-6,6,6,0,0,1,6,6"/><path class="cls-113" d="M253.13,465.65a6,6,0,1,1-6-6,6,6,0,0,1,6,6"/><path class="cls-113" d="M313.13,497.65a6,6,0,1,1-6-6,6,6,0,0,1,6,6"/><path class="cls-113" d="M364.13,464.65a6,6,0,1,1-6-6,6,6,0,0,1,6,6"/><path class="cls-50" d="M295.13,457.65a6,6,0,1,1-6-6,6,6,0,0,1,6,6"/><path class="cls-75" d="M180.09,767.09a3.79,3.79,0,0,1-.81-.09,3.53,3.53,0,0,1-2.62-4.23l7.51-31.91a3.52,3.52,0,0,1,7,.81s.09,5.56,3.44,8.58c1.83,1.65,4.36,2.3,7.72,2a3.52,3.52,0,0,1,.66,7c-5.39.5-9.81-.78-13.15-3.82a15.07,15.07,0,0,1-1.46-1.54l-4.82,20.49a3.51,3.51,0,0,1-3.42,2.71"/><path class="cls-50" d="M133.64,791.26a2.22,2.22,0,0,1-1-.22l-5.16-2.34a2.35,2.35,0,1,1,1.94-4.27l3.07,1.39,4.63-9.66a2.35,2.35,0,0,1,4.23,2l-5.63,11.73a2.35,2.35,0,0,1-2.11,1.34"/><g class="cls-39"><g class="cls-131"><path class="cls-10" d="M182.44,763.57c0,12.44-11.77,22.52-26.28,22.52S129.88,776,129.88,763.57s11.77-22.52,26.28-22.52,26.28,10.08,26.28,22.52"/></g></g><g class="cls-39"><g class="cls-132"><path class="cls-66" d="M179.62,764.88c0,11.72-11.08,21.21-24.74,21.21s-24.75-9.49-24.75-21.21,11.08-21.21,24.75-21.21,24.74,9.5,24.74,21.21"/></g></g><path class="cls-50" d="M167.89,793.13a2.34,2.34,0,0,1-.31-4.67l3.93-.52-4.36-9.81a2.35,2.35,0,1,1,4.29-1.9l5.63,12.66a2.34,2.34,0,0,1-1.83,3.28l-7,.94-.31,0"/><path class="cls-44" d="M471.13,379.65c4,4.8,7.36,6.4,8.54,6.84a.72.72,0,0,1,.46.67v29.49s-1,4-5,4a4.93,4.93,0,0,1-5-4v-38Z"/><path class="cls-48" d="M378.13,379.65c4,4.8,7.36,6.4,8.54,6.84a.72.72,0,0,1,.46.67v29.49s-1,4-5,4a4.93,4.93,0,0,1-5-4v-38Z"/><path class="cls-10" d="M478.13,392.65a1,1,0,1,1-1-1,1,1,0,0,1,1,1"/><path class="cls-10" d="M476.13,405.65a2,2,0,1,1-2-2,2,2,0,0,1,2,2"/><path class="cls-10" d="M480.13,359.65a2,2,0,1,1-2-2,2,2,0,0,1,2,2"/><path class="cls-10" d="M476.13,348.15a1.5,1.5,0,1,1-1.5-1.5,1.5,1.5,0,0,1,1.5,1.5"/><path class="cls-133" d="M444.13,421.65h0a5,5,0,0,1-5-5v-31h10v31a5,5,0,0,1-5,5"/><path class="cls-11" d="M413.13,421.65h0a5,5,0,0,1-5-5v-31h10v31a5,5,0,0,1-5,5"/><path class="cls-10" d="M386.13,405.65a2,2,0,1,1-2-2,2,2,0,0,1,2,2"/><path class="cls-10" d="M384.13,392.15a1.5,1.5,0,1,1-1.5-1.5,1.5,1.5,0,0,1,1.5,1.5"/><path class="cls-10" d="M379.13,378.15a2.5,2.5,0,1,1-2.5-2.5,2.5,2.5,0,0,1,2.5,2.5"/><path class="cls-10" d="M385.13,363.15a1.5,1.5,0,1,1-1.5-1.5,1.5,1.5,0,0,1,1.5,1.5"/><path class="cls-10" d="M390.13,355.15a2.5,2.5,0,1,1-2.5-2.5,2.5,2.5,0,0,1,2.5,2.5"/><path class="cls-10" d="M413.13,389.15a1.5,1.5,0,1,1-1.5-1.5,1.5,1.5,0,0,1,1.5,1.5"/><path class="cls-10" d="M412.13,407.65a1,1,0,1,1-1-1,1,1,0,0,1,1,1"/><path class="cls-10" d="M419.13,400.65a2,2,0,1,1-2-2,2,2,0,0,1,2,2"/><path class="cls-10" d="M416.13,420.65a1,1,0,1,1-1-1,1,1,0,0,1,1,1"/><path class="cls-10" d="M414.13,357.65a1,1,0,1,1-1-1,1,1,0,0,1,1,1"/><path class="cls-10" d="M423.13,365.65a2,2,0,1,1-2-2,2,2,0,0,1,2,2"/><path class="cls-10" d="M450.13,361.15a1.5,1.5,0,1,1-1.5-1.5,1.5,1.5,0,0,1,1.5,1.5"/><path class="cls-10" d="M444.13,355.65a2,2,0,1,1-2-2,2,2,0,0,1,2,2"/><path class="cls-10" d="M448.13,377.15a2.5,2.5,0,1,1-2.5-2.5,2.5,2.5,0,0,1,2.5,2.5"/><path class="cls-10" d="M443.13,390.15a1.5,1.5,0,1,1-1.5-1.5,1.5,1.5,0,0,1,1.5,1.5"/><path class="cls-10" d="M449.13,412.65a2,2,0,1,1-2-2,2,2,0,0,1,2,2"/><path class="cls-10" d="M447.13,402.65a1,1,0,1,1-1-1,1,1,0,0,1,1,1"/><path class="cls-134" d="M362.44,787.26l28.24,11.25a7,7,0,0,1,3.92,9.09l-23.51,59a7,7,0,0,1-9.1,3.91l-28.24-11.25a7,7,0,0,1-3.92-9.1l23.51-59a7,7,0,0,1,9.1-3.91"/><rect class="cls-102" x="331.76" y="809.35" width="60.68" height="39.67" transform="translate(-542.22 858.67) rotate(-68.28)"/><path class="cls-135" d="M350.44,858.45a2.78,2.78,0,1,1-3.61,1.55,2.79,2.79,0,0,1,3.61-1.55"/><path class="cls-135" d="M380.07,800.09l-11-4.39a.79.79,0,0,1-.45-1v0a.8.8,0,0,1,1-.45l11,4.39a.8.8,0,0,1,.45,1h0a.81.81,0,0,1-1,.45"/><polygon class="cls-18" points="320.37 836.85 320.37 814.85 334.51 825.85 320.37 836.85"/><polygon class="cls-18" points="342.76 836.85 342.76 814.85 356.9 825.85 342.76 836.85"/><polygon class="cls-18" points="365.15 836.85 365.15 814.85 379.3 825.85 365.15 836.85"/><path class="cls-113" d="M243.61,611.57s20.58,10.8,33.2,6.43l11.78-4.09,2.31,5.3a1.1,1.1,0,0,1-.8,1.52s-15.21,5.86-25.13,7.51c-7.81,1.3-31.48,3.52-31.48,3.52a.57.57,0,0,1-.63-.79c1.13-2.55,4.1-9.32,5-11.69,3.43-8.88,5.74-7.71,5.74-7.71"/><path class="cls-113" d="M291.14,605.26,288.56,614a46.23,46.23,0,0,0,6.59,1.59,1,1,0,0,0,1.13-.87c.53-3.5,2.13-15.17-.15-14-2,1-5,4.61-5,4.61"/><path class="cls-122" d="M484.47,304.3V279.52a3.61,3.61,0,0,1,3.6-3.61h0a3.61,3.61,0,0,1,3.6,3.61V304.3a3.6,3.6,0,0,1-3.6,3.6h0a3.6,3.6,0,0,1-3.6-3.6"/><path class="cls-122" d="M372.89,468.89V444.11a3.61,3.61,0,0,1,3.61-3.61h0a3.61,3.61,0,0,1,3.61,3.61v24.78a3.6,3.6,0,0,1-3.61,3.6h0a3.61,3.61,0,0,1-3.61-3.6"/><path class="cls-7" d="M830.7,865.22a15.07,15.07,0,0,1-2.3,4q-2.31,3.12-2.71,3.78-3.12,5.75-9.85,17.08c-1.59,2.41-3.86,5.41-6.82,9q-5.65,7-7,8.78a70.36,70.36,0,0,0,20.12-5.83q6.48-3,6.57-3c.11,0,.16.11.16.32,0,.61-.74,1.23-2.22,1.89q-3.12,1.65-9.36,4.85a51.66,51.66,0,0,1-8.21,3.28q-1.64.5-12.31,4.76a237,237,0,0,1-20.11,19.29q-16.26,14.2-21.43,14.21a2.83,2.83,0,0,1-2.42-1.36,4.86,4.86,0,0,1-1-2.83q0-1.73,2-5.83a86.75,86.75,0,0,1,4.52-8.54,29.19,29.19,0,0,1,6.15-7.39q4.51-3.76,17.16-9.27,3.95-1.73,14-3.62,8.79-8,19.13-23-8.21,5.34-13.46,5.33c-4.16,0-6.24-.84-6.24-2.54q0-3.21,4.1-9.28t4.11-11.41a3.35,3.35,0,0,0-1.81-2.87,6.69,6.69,0,0,0-3.45-.91c-.49,0-1.27.06-2.34.17s-1.87.16-2.42.16a11.26,11.26,0,0,0-6.73,2.71c-2.58,1.86-3.86,3.83-3.86,5.91a2.64,2.64,0,0,0,1.72,2.3,6.11,6.11,0,0,0,2.88.74c.43,0,1.24-.79,2.42-2.38s2.06-2.38,2.67-2.38c.33,0,.49.24.49.74a8.69,8.69,0,0,1-1.81,4.35q-1.89,3-3.45,2.95a8.56,8.56,0,0,1-5.17-2.09c-1.8-1.4-2.71-2.89-2.71-4.47,0-1.86,1.18-4,3.53-6.49q4.85-5.08,13.8-5.09,11.24,0,11.24,6.16,0,2.7-4.27,9.44t-4.26,8.21c0,1,1.17,1.56,3.53,1.56q6,0,13.21-7.06A49,49,0,0,0,826,866.45c.87-1.8,1.58-2.71,2.13-2.71,2,0,2.87.5,2.55,1.48m-42.53,51.23a22.29,22.29,0,0,0-12.23,3.61c-1.54.88-5,3.4-10.35,7.56q-8.94,6.89-9,15.76a181.74,181.74,0,0,0,17.82-13.55,132.67,132.67,0,0,0,13.79-13.38"/><path class="cls-7" d="M849.25,900.44a.51.51,0,0,1-.16.33q-.83,1.56-5.59,2.3a10.2,10.2,0,0,0-3.61,1.23l-2.95,2.3a24.43,24.43,0,0,1-7.15,3.12,23.32,23.32,0,0,1-3.94,1q-3,0-3-3.46,0-2.31,3.61-6.43a7.17,7.17,0,0,0,1.15-1.4,11.81,11.81,0,0,1,.9-2.4,8.58,8.58,0,0,1,2-2,6.88,6.88,0,0,1,3.45-1,11.54,11.54,0,0,1,5.75-1.65,3.44,3.44,0,0,1,2.54,1.24,6.28,6.28,0,0,1,3.53-1.24q.66,0,.66,1a13.32,13.32,0,0,1-1,4.27,7.75,7.75,0,0,1-2,3.45l-.65.49h.24c.33,0,.77,0,1.32-.08a12.26,12.26,0,0,1,1.35-.08,3.78,3.78,0,0,0,1.64-.66,3.78,3.78,0,0,1,1.69-.66.51.51,0,0,1,.16.33m-7.88-2c0-.44-.55-1-1.65-1.78a5.5,5.5,0,0,0-2.32-1.12c-.6,0-1.73.58-3.38,1.74a27,27,0,0,0-3.14,2.56q-4,3.81-4,6.37c0,.88.52,1.32,1.57,1.32a7,7,0,0,0,1.81-.33,32.25,32.25,0,0,0,6.28-2.23,12.6,12.6,0,0,0,4.38-5,3.13,3.13,0,0,0,.41-1.49"/><path class="cls-7" d="M882.25,900c.06,0,0,.22-.08.49-.44.88-2.13,1.75-5.09,2.63a22.92,22.92,0,0,1-6,1.23c-.88,0-1.39-.07-1.52-.21s-.21-.58-.21-1.35a1.93,1.93,0,0,0-.41-1.15h-.33a2.75,2.75,0,0,0-1.31.53c-.55.36-1,.7-1.48,1a29.11,29.11,0,0,1-7.26,2.13,44.73,44.73,0,0,1-7.93,1.15c-2.4,0-3.61-.93-3.61-2.79a5,5,0,0,1,.41-2.21q.91-1.73,7.72-5.55t8.87-3.81c.33,0,.49.22.49.65q0,1.49-6.57,5t-6.57,5.83c0,1,.63,1.48,1.89,1.48q7.47,0,15-6.24,2.3-4.11,6-4.11c1.48,0,2.22.28,2.22.82a50.5,50.5,0,0,0-5.09,5.18q0,1.56,1.47,1.56,5.58,0,8.87-2.3Z"/><path class="cls-7" d="M900.89,843.38c0,.61-.66,1.75-2,3.45q-2.71,3.28-2.71,3.37-1.32,2.13-2.71,4.35a15.73,15.73,0,0,1-3.37,3.69,1.29,1.29,0,0,1-.82.33c-.44,0-.65-.13-.65-.41,0,0,.52-.81,1.56-2.26s1.61-2.28,1.72-2.5c.49-1,1.26-2.49,2.3-4.52.33-.76.87-1.94,1.64-3.53a7.36,7.36,0,0,1,1.77-2.09,3.61,3.61,0,0,1,2.17-1.11c.71,0,1.07.41,1.07,1.23"/><path class="cls-7" d="M927.65,899.46q0,1.06-6.07,4.35-1.16.24-3.45.9c-1.59.66-3.15,1.31-4.68,2a14.09,14.09,0,0,1-4.93,1.07,1.16,1.16,0,0,1-1.31-1.32q0-1.23,6.24-8.95l.16-.57a1.67,1.67,0,0,0-1.88-1.89q-1.15,0-4.56,3.29t-5.3,3.61c-.11.05-.21,0-.32-.25s.05-.33.32-.65c.88-.61,2.22-1.56,4-2.88,1.69-1.69,3.36-3.42,5-5.17,2.08-2,4.16-3,6.24-3a2.13,2.13,0,0,1,1.52.7,2.2,2.2,0,0,1,.7,1.6q0,2.38-2.54,6.12t-2.55,4.55c-.16.5-.16.77,0,.83a6.94,6.94,0,0,0,1.4.08q3.86,0,9.11-3.37c1-.6,1.75-1,2.3-1.31a2.48,2.48,0,0,1,.49-.17s.08.17.08.5"/><path class="cls-7" d="M949.16,900.11q0,.42-.9,1c-.82.6-1.29,1-1.4,1.06a3.69,3.69,0,0,1-.82.5,20.27,20.27,0,0,1-11.49,3.45c-3.5,0-5.37-2.41-5.58-7.23q-2.72,2.72-4.52,3c-.16,0-.25-.06-.25-.17s.41-.6,1.24-1.31q1.72-1.4,3.94-3.37a11.11,11.11,0,0,0,1.31-2.79,7.16,7.16,0,0,1,1.64-2.62,28.5,28.5,0,0,1,4.19-3.45,9.51,9.51,0,0,1,5.17-1.4q5.34,0,5.34,3.12c0,1.26-1.32,3-3.94,5.09a24.35,24.35,0,0,1-5.75,3.78,50.07,50.07,0,0,0-5.17,2.38,1.28,1.28,0,0,0-.17.82c0,.55.47,1,1.4,1.4a5.58,5.58,0,0,0,2.13.49,20.72,20.72,0,0,0,9.36-2.3,24.36,24.36,0,0,1,4-1.81q.24,0,.24.33m-6.32-8.45a1.1,1.1,0,0,0-.41-1.28,2.32,2.32,0,0,0-1.48-.53,7,7,0,0,0-3.4.74,10.63,10.63,0,0,0-3.08,3c-1.15,1.53-1.73,2.71-1.73,3.53,0,.22.22.43.66.65a4.43,4.43,0,0,0,2.63-1,29,29,0,0,0,5-3,12.23,12.23,0,0,0,1.81-2.21"/><path class="cls-7" d="M1095.13,858.9q0,2.29-2.71,5.79c-1.8,2.32-3.45,3.49-4.92,3.49-.44,0-.66-.17-.66-.49q0-1.23,2.79-3.55t2.79-4.28c0-2.56-2.43-3.83-7.31-3.83q-17.47,0-39.73,13.93a143.2,143.2,0,0,0-32.76,27.8q-3,3.45-3.28,3.94a16.59,16.59,0,0,0-1.48,5,33.09,33.09,0,0,1-.82,3.85,23.09,23.09,0,0,1-3.2,6.4c-2,3-3.61,4.51-4.93,4.51-1.53,0-2.3-.9-2.3-2.71a16.05,16.05,0,0,1,2.71-8.46c1.64-2.51,3.31-5,5-7.47a18.62,18.62,0,0,0,2.71-9.44,30,30,0,0,0-.49-6.4q-4,3.36-13.21,11.66-4.77,4.49-14.79,12.89a1.81,1.81,0,0,1-1,.32c-.93,0-1.4-.62-1.4-1.88a2.18,2.18,0,0,1,1.11-1.87c.74-.49,1.49-1,2.26-1.39a38.47,38.47,0,0,0,4-3q4.92-4.1,8.79-7.43,6-5.26,8.29-7.48,5.58-5.25,7.22-8a12.53,12.53,0,0,0,1.23-4.11q1.73-9.43,10.68-17.65,2.29-2.13,4-2.13a2.77,2.77,0,0,1,2,.78,2.48,2.48,0,0,1,.82,1.84q0,2.88-6.24,11.09-7.8,10.17-8.37,11.24-1.49,2.72-1.48,7.8v5.83c1-.6,2.82-2.43,5.5-5.5a106.64,106.64,0,0,1,14.69-13.87q9-7.14,25-15.11a96.39,96.39,0,0,1,13.39-5.66,49.78,49.78,0,0,1,14.45-2.06q11.57,0,11.57,5.67m-91.87,52.21a.91.91,0,0,0-.74-.9c-.54.11-1.2,1.12-2,3s-1,3-.73,3.12c.49-.11,1.19-.88,2.09-2.3a7.25,7.25,0,0,0,1.35-3m17-46a1,1,0,0,0-1.07-1.07c-.82,0-1.56.8-2.22,2.38a19.31,19.31,0,0,1-1.64,3.37,3.23,3.23,0,0,0-1.07,2c0,.87.28,1.31.83,1.31.16,0,.62-.57,1.39-1.72a21.44,21.44,0,0,1,2.18-3.57,10.16,10.16,0,0,0,1.6-2.67"/><path class="cls-7" d="M1057.2,900.11q0,.42-.9,1c-.82.6-1.29,1-1.4,1.06a3.69,3.69,0,0,1-.82.5,20.27,20.27,0,0,1-11.49,3.45q-5.27,0-5.58-7.23-2.71,2.72-4.52,3c-.16,0-.25-.06-.25-.17s.41-.6,1.24-1.31c1.14-.93,2.46-2.05,3.94-3.37a11.11,11.11,0,0,0,1.31-2.79,7.16,7.16,0,0,1,1.64-2.62,28.5,28.5,0,0,1,4.19-3.45,9.51,9.51,0,0,1,5.17-1.4q5.34,0,5.34,3.12c0,1.26-1.32,3-3.94,5.09a24.35,24.35,0,0,1-5.75,3.78,49.12,49.12,0,0,0-5.17,2.38,1.28,1.28,0,0,0-.17.82c0,.55.47,1,1.4,1.4a5.58,5.58,0,0,0,2.13.49,20.72,20.72,0,0,0,9.36-2.3,24.91,24.91,0,0,1,4-1.81c.17,0,.25.11.25.33m-6.32-8.45a1.1,1.1,0,0,0-.41-1.28,2.32,2.32,0,0,0-1.48-.53,7.11,7.11,0,0,0-3.41.74,10.62,10.62,0,0,0-3.07,3c-1.15,1.53-1.73,2.71-1.73,3.53,0,.22.22.43.66.65a4.43,4.43,0,0,0,2.63-1,29,29,0,0,0,5-3,12.23,12.23,0,0,0,1.81-2.21"/><path class="cls-7" d="M1091.44,897.32c0,2.14-2,4-6,5.67a24,24,0,0,1-8.87,2,12.48,12.48,0,0,1-5.5-1.23q-3.12-1.56-3.12-4.19a33.45,33.45,0,0,1-5.09,5.91q-6,5.91-9.44,5.91c-.38,0-.57-.24-.57-.74a1.16,1.16,0,0,1,.74-1.15,18.59,18.59,0,0,0,5.42-3.28,41.63,41.63,0,0,0,5-5.67q3.21-4.35,3.21-6.48a1,1,0,0,0-.09-.49,49.67,49.67,0,0,0-6.48,4.76c-3.12,2.52-5.12,3.77-6,3.77a.51.51,0,0,1-.58-.57c0-.22.08-.33.25-.33a15.21,15.21,0,0,0,3.94-2.46l3.61-2.88a30.1,30.1,0,0,0,3.45-2.29c.44-.5.91-1.06,1.43-1.69a2.07,2.07,0,0,1,1.44-.94,3.56,3.56,0,0,1,1.81,3.28v.82a8.15,8.15,0,0,1,2.13-2.09,10.39,10.39,0,0,1,2.94-.78c.27-.05.79-.18,1.54-.37a7.76,7.76,0,0,1,1.77-.29c.38,0,.57.36.57,1.07,0,.93-.61,2.05-1.81,3.37s-2.27,2-3.2,2-1.48-.44-1.48-1.32c0-.27.63-.65,1.89-1.15a3.83,3.83,0,0,0,2.38-2,4.9,4.9,0,0,0-1-.08q-1.51,0-5.72,3.37v.49a5.16,5.16,0,0,0,2.31,4.43,8.38,8.38,0,0,0,5,1.4,9.35,9.35,0,0,0,3.06-.7,13.16,13.16,0,0,1,2.82-.78,11.66,11.66,0,0,0,1.65-.16,8.09,8.09,0,0,0,3.36-2,4.87,4.87,0,0,0,1.94-3.12c0-.44-.35-.66-1.07-.66a1.63,1.63,0,0,0-1.31.82c-.38.55-.68.82-.9.82a.51.51,0,0,1-.58-.57c0-.44.34-.91,1-1.4a3.17,3.17,0,0,1,1.68-.74,3.09,3.09,0,0,1,1.73.74c.43.33.62.61.57.82a4.71,4.71,0,0,1,.17,1.07"/><path class="cls-7" d="M1229.77,868.67c-.22.66-.82,1-1.81,1.15q-2.62.4-7.88,1.31a283,283,0,0,1-33.16,3.12q-5.67.25-19.13,1.81a171.49,171.49,0,0,1-19.13,1.48c-2.58,0-5.86-.2-9.85-.58l-9.86-1a37.27,37.27,0,0,0-9.19,8l-7.88,9.36a112.94,112.94,0,0,1-10.1,9.44l-6.32,6.16q-4.93,4.68-6.49,4.68c-1.09,0-1.64-.47-1.64-1.4a4.74,4.74,0,0,1,2-3.37,97.79,97.79,0,0,1,8.87-7.47,18.17,18.17,0,0,0,3.69-3.44l3.37-3.78q1.63-1.39,4.6-4.35,1.88-2.13,5.29-6.78t5.3-6.77q-13-3.29-20.78-3.28a63.52,63.52,0,0,1-6.48-.5c-2.9-.32-5.06-.49-6.49-.49q-23.14,0-23.15,4.6c0,.6.59,1.18,1.77,1.72s1.82,1.13,1.93,1.73a1.27,1.27,0,0,1-1.07.57,13.57,13.57,0,0,1-5.09-1.64q-3.78-1.73-3.78-3.12,0-2.13,10.67-4.35a68.51,68.51,0,0,1,13.39-1.07h4q3.45,0,10.47.5c4.68.32,8.19.49,10.55.49a47.63,47.63,0,0,1,8.45,1c4.44.88,7.25,1.4,8.46,1.56l8.87-6.4q3.43-3,7-5.83c2.9-2.24,5.61-3.37,8.13-3.37,2,0,3,.55,3,1.65q0,2.37-8.38,7.63-5.42,3.21-10.91,6.41c1.75,0,4.57.3,8.45.73a74.53,74.53,0,0,0,8.46.66,92.32,92.32,0,0,0,11-.82l11.08-1.31q5.74-.16,17.16-.58,5.41-.24,16.42-1.72,4.93-.57,14.86-2.06l4.43-1a18.75,18.75,0,0,1,4.44-.66c2,0,2.79.47,2.46,1.4"/><g class="cls-92"><g class="cls-136"><path class="cls-137" d="M265.14,578.66a1.43,1.43,0,0,1,.21-.81c2-3.2,16.85-27.17,17.78-27.17.67,0,.44-1,.22-1.72a1.48,1.48,0,0,1,.09-1.15l4.12-7.55a1,1,0,0,1,1.51-.45l7.8,5a1.24,1.24,0,0,1,.43.5,9.57,9.57,0,0,1,.83,6.56,19,19,0,0,1-1.46,3.75,1.06,1.06,0,0,1-1.32.53l-1.06-.4c-1.23-.47-2.08,1.43-1,2.29a1.42,1.42,0,0,1,.31,1.74c-1.5,2.82-5.63,10.44-6.45,10.44s-9.28,1-10.77,1.12a.86.86,0,0,0-.43.15c-1.33.86-8.8,5.71-8.8,6.75s0,3.45-1,3.45c-.77,0-.95-2.06-1-3"/></g></g></svg>