<svg id="圖層_1" data-name="圖層 1" xmlns="http://www.w3.org/2000/svg" xmlns:xlink="http://www.w3.org/1999/xlink" viewBox="0 0 1920 1080"><defs><style>.cls-1{fill:#0b2e43;}.cls-2,.cls-29,.cls-62{fill:#fff;}.cls-3{fill:#fcd0d3;}.cls-4{fill:#3151c2;}.cls-5{fill:#0074b1;}.cls-6{fill:#c0d0f3;}.cls-7{fill:url(#未命名漸層);}.cls-8{fill:url(#未命名漸層_2);}.cls-9{fill:url(#未命名漸層_3);}.cls-10{opacity:0.57;}.cls-11{fill:#f9d0d5;}.cls-12{fill:#fdb917;}.cls-13{fill:#fc761b;}.cls-14{fill:#ef7785;}.cls-15{fill:#ed332a;}.cls-16{opacity:0.68;}.cls-17,.cls-24,.cls-30,.cls-32,.cls-46,.cls-58,.cls-60,.cls-61{fill:none;stroke-miterlimit:10;}.cls-17,.cls-46{stroke:#ee0f19;}.cls-17,.cls-24,.cls-46{stroke-linecap:round;}.cls-17{stroke-width:1.99px;}.cls-18{fill:#0094fd;}.cls-19{fill:#fd5481;}.cls-20{fill:#6ad4ff;}.cls-21{fill:#fc9616;}.cls-22{fill:url(#未命名漸層_4);}.cls-23{fill:url(#未命名漸層_5);}.cls-24{stroke:#0b2e43;stroke-width:2px;}.cls-25{opacity:0.62;}.cls-26{fill:#ffead0;}.cls-27{fill:url(#未命名漸層_6);}.cls-28{fill:#ff9e1c;}.cls-29{opacity:0.6;}.cls-29,.cls-49,.cls-53{isolation:isolate;}.cls-30,.cls-58,.cls-60{stroke:#fc9616;}.cls-30{stroke-width:3px;}.cls-31{fill:#2d69c0;}.cls-32{stroke:#fff;stroke-width:2.51px;}.cls-33{fill:url(#未命名漸層_7);}.cls-34{fill:#fff1e2;}.cls-35{fill:#fddaab;}.cls-36{fill:#ffe6c7;}.cls-37{fill:#4a4a4a;}.cls-38{fill:#6e6e6e;}.cls-39{fill:#fdc377;}.cls-40{fill:url(#未命名漸層_8);}.cls-41{fill:#144b4f;}.cls-42{fill:url(#未命名漸層_9);}.cls-43{fill:url(#未命名漸層_10);}.cls-44{fill:url(#未命名漸層_11);}.cls-45{fill:url(#未命名漸層_12);}.cls-46{stroke-width:6.09px;}.cls-47{fill:url(#未命名漸層_13);}.cls-48{fill:url(#未命名漸層_14);}.cls-49,.cls-56{fill:#e1eafd;}.cls-49{opacity:0.56;}.cls-50{fill:url(#未命名漸層_15);}.cls-51{fill:url(#未命名漸層_16);}.cls-52{fill:url(#未命名漸層_17);}.cls-53{opacity:0.91;fill:url(#未命名漸層_18);}.cls-54{fill:url(#未命名漸層_19);}.cls-55{fill:url(#未命名漸層_20);}.cls-57{fill:#c6eefd;}.cls-58{stroke-width:2.34px;}.cls-59{fill:url(#未命名漸層_21);}.cls-60{stroke-width:5.68px;}.cls-61{stroke:#fff2e8;stroke-width:4.24px;}.cls-62{fill-rule:evenodd;}.cls-63{fill:#111f55;}</style><linearGradient id="未命名漸層" x1="813" y1="855.39" x2="863.42" y2="855.39" gradientTransform="matrix(1, 0, 0, -1, 0, 1077.89)" gradientUnits="userSpaceOnUse"><stop offset="0" stop-color="#fbcb06"/><stop offset="1" stop-color="#fc621d"/></linearGradient><linearGradient id="未命名漸層_2" x1="757.2" y1="882.32" x2="869.59" y2="882.32" gradientTransform="matrix(1, 0, 0, -1, 0, 1077.89)" gradientUnits="userSpaceOnUse"><stop offset="0" stop-color="#0ba1cf"/><stop offset="1" stop-color="#0074b1"/></linearGradient><linearGradient id="未命名漸層_3" x1="1190.87" y1="648.89" x2="665.43" y2="573.06" gradientTransform="matrix(1, 0, 0, -1, 0, 1077.89)" gradientUnits="userSpaceOnUse"><stop offset="0" stop-color="#fcd0d3"/><stop offset="1" stop-color="#dc7580"/></linearGradient><linearGradient id="未命名漸層_4" x1="1092.45" y1="520.85" x2="1507.32" y2="386.42" gradientTransform="matrix(1, 0, 0, -1, 0, 1077.89)" gradientUnits="userSpaceOnUse"><stop offset="0" stop-color="#1d4c62"/><stop offset="1" stop-color="#0b2e43"/></linearGradient><linearGradient id="未命名漸層_5" x1="1247.74" y1="701.8" x2="1324.85" y2="647.16" xlink:href="#未命名漸層_2"/><linearGradient id="未命名漸層_6" x1="1310" y1="590.39" x2="1357.22" y2="590.39" gradientTransform="matrix(1, 0, 0, -1, 0, 1077.89)" gradientUnits="userSpaceOnUse"><stop offset="0" stop-color="#fc9616"/><stop offset="1" stop-color="#fc621d"/></linearGradient><linearGradient id="未命名漸層_7" x1="880.18" y1="604.4" x2="941.46" y2="497.16" xlink:href="#未命名漸層"/><linearGradient id="未命名漸層_8" x1="681.84" y1="522.61" x2="770.82" y2="522.61" xlink:href="#未命名漸層_6"/><linearGradient id="未命名漸層_9" x1="731.05" y1="551.32" x2="746.95" y2="551.32" gradientTransform="matrix(1, -0.03, -0.03, -1, -48.23, 1116.03)" xlink:href="#未命名漸層_6"/><linearGradient id="未命名漸層_10" x1="719.36" y1="546.31" x2="759.97" y2="546.31" gradientTransform="matrix(1, -0.03, -0.03, -1, -48.38, 1115.93)" xlink:href="#未命名漸層_6"/><linearGradient id="未命名漸層_11" x1="710.79" y1="443.75" x2="640.99" y2="441.28" xlink:href="#未命名漸層_6"/><linearGradient id="未命名漸層_12" x1="736.86" y1="514.73" x2="842.07" y2="514.73" xlink:href="#未命名漸層_2"/><linearGradient id="未命名漸層_13" x1="459.01" y1="636.5" x2="523.83" y2="636.5" gradientTransform="matrix(1, 0, 0, -1, 0, 1077.89)" gradientUnits="userSpaceOnUse"><stop offset="0" stop-color="#fc9616"/><stop offset="1" stop-color="#fc3220"/></linearGradient><linearGradient id="未命名漸層_14" x1="443.29" y1="696.03" x2="454.01" y2="617.91" xlink:href="#未命名漸層_2"/><linearGradient id="未命名漸層_15" x1="483.65" y1="370.93" x2="454.04" y2="492.97" gradientTransform="matrix(1, 0, 0, -1, 0, 1077.89)" gradientUnits="userSpaceOnUse"><stop offset="0" stop-color="#d82b25"/><stop offset="1" stop-color="#fc6800"/></linearGradient><linearGradient id="未命名漸層_16" x1="520" y1="398.57" x2="610" y2="398.57" gradientTransform="matrix(1, 0, 0, -1, 0, 1077.89)" gradientUnits="userSpaceOnUse"><stop offset="0.46" stop-color="#fff"/><stop offset="1" stop-color="#c0d0f3"/></linearGradient><linearGradient id="未命名漸層_17" x1="1045" y1="924.57" x2="1135" y2="924.57" gradientTransform="matrix(1, 0, 0, -1, 0, 1077.89)" gradientUnits="userSpaceOnUse"><stop offset="0" stop-color="#fcd0d3"/><stop offset="1" stop-color="#e39199"/></linearGradient><linearGradient id="未命名漸層_18" x1="425.23" y1="563.98" x2="246.42" y2="668.28" xlink:href="#未命名漸層_4"/><linearGradient id="未命名漸層_19" x1="1211.06" y1="391.06" x2="1300.19" y2="391.06" gradientTransform="matrix(1, 0, 0, -1, 0, 1077.89)" gradientUnits="userSpaceOnUse"><stop offset="0" stop-color="#fff"/><stop offset="1" stop-color="#c0d0f3"/></linearGradient><linearGradient id="未命名漸層_20" x1="1263.89" y1="348.86" x2="1228.71" y2="363.08" gradientTransform="matrix(1, 0.03, 0.03, -1, 46.82, 1024.98)" xlink:href="#未命名漸層_16"/><linearGradient id="未命名漸層_21" x1="1411.13" y1="842.72" x2="1444.45" y2="842.72" xlink:href="#未命名漸層"/></defs><title>main_1920x1080_f</title><path class="cls-1" d="M562,561.4s-4,52.16,0,78.88S592,672,622,671s772,0,772,0V581Z"/><rect class="cls-2" x="583.19" y="239.77" width="734.8" height="411.51" rx="33.59"/><rect class="cls-2" x="583.19" y="239.77" width="734.8" height="411.51" rx="33.59"/><rect class="cls-3" x="598.77" y="255.34" width="703.66" height="380.37" rx="18.02"/><rect class="cls-2" x="595.53" y="248.64" width="44.17" height="393.78"/><rect class="cls-2" x="1260.69" y="248.64" width="44.17" height="393.78"/><path class="cls-3" d="M606,517.81V373.24a8.16,8.16,0,0,1,8.16-8.16h0a8.16,8.16,0,0,1,8.16,8.16V517.81a8.16,8.16,0,0,1-8.16,8.16h0A8.16,8.16,0,0,1,606,517.81Z"/><path class="cls-4" d="M1539.38,374.68c-.19,5-1.81,9.63-3.72,14.23-1,2.3-2.14,4.56-3.38,6.8a36.92,36.92,0,0,1-4.4,6.59c-3.61,4.26-9.32,8.07-13.24,12.27a19.81,19.81,0,0,0-5.41,13.88,31.22,31.22,0,0,0,1,7.7c.66,2.63,1.56,5.32,2.36,8a47.42,47.42,0,0,1,1.88,7.89,21.38,21.38,0,0,1-.29,7.44A19.68,19.68,0,0,1,1513,463a13,13,0,0,1-1.94,3.35c-1.77,2.13-4.8,4-8.71,5.7-8,3.35-18.65,6.15-23,10.26a9.44,9.44,0,0,0-3.23,6.83,17.18,17.18,0,0,0,1.28,7.76,25.76,25.76,0,0,0,2,4.17c.42.71.79,1.41,1.27,2.14l1.49,2.18c1.91,2.89,4.12,5.85,6.12,8.76a48.35,48.35,0,0,1,4.76,8.48,21.42,21.42,0,0,1,1.68,7.85c.1,5-2.57,9.47-6.82,13.59-4.08,4.16-8.65,8.21-10,12.93a17.62,17.62,0,0,0-.48,7.4,56.54,56.54,0,0,0,1.27,7.76,63.75,63.75,0,0,0,6.36,16.32,75.9,75.9,0,0,0,13.44,17.77,17.72,17.72,0,0,0,19,3.91,76.21,76.21,0,0,0,19.39-11,64,64,0,0,0,12.3-12.46,59.49,59.49,0,0,0,4.24-6.62,17.57,17.57,0,0,0,2.49-7c.63-4.87-2-10.4-4.07-15.84-2.27-5.47-2.95-10.61-.87-15.17a21.15,21.15,0,0,1,4.65-6.54,47.66,47.66,0,0,1,7.73-5.91c3-1.88,6.19-3.72,9.09-5.62l2.23-1.41c.72-.48,1.34-1,2-1.46a27.12,27.12,0,0,0,3.51-3,17.21,17.21,0,0,0,4.25-6.62,9.45,9.45,0,0,0-.26-7.55c-2.33-5.48-11-12.27-17-18.51-2.92-3.1-5-6-5.74-8.69a12.44,12.44,0,0,1-.46-3.84,19.76,19.76,0,0,1,.34-3.68,21.21,21.21,0,0,1,2.68-6.94,46.47,46.47,0,0,1,4.84-6.5c1.8-2.13,3.69-4.24,5.34-6.4a31.63,31.63,0,0,0,4-6.68,19.79,19.79,0,0,0,.53-14.89c-1.94-5.4-5.68-11.17-7.3-16.51a37.51,37.51,0,0,1-1.43-7.79c-.25-2.55-.41-5.08-.41-7.58.07-5,.43-9.91,2.22-14.54a16.76,16.76,0,0,0-31.27-12.05A17,17,0,0,0,1539.38,374.68Z"/><path class="cls-1" d="M1526.42,508.45l-15-22.83a2.17,2.17,0,0,1,3.63-2.39h0l12.63,19.21,13.26-64.22-11.48-17.46a2.17,2.17,0,1,1,3.63-2.38h0l9.09,13.83,4.88-23.6a2.17,2.17,0,1,1,4.25.88l-6.67,32.3,18.47-12.14a2.17,2.17,0,0,1,2.38,3.62l-22.09,14.54-13.22,64,26.26-17.27a2.17,2.17,0,1,1,2.38,3.63h0l-29.88,19.65-12.79,61.95L1538,565.4a2.17,2.17,0,1,1,2.39,3.63l-25.49,16.76-23.45,113.58a2.17,2.17,0,0,1-4.26-.88l25-121-13.57-20.63a2.17,2.17,0,0,1,3.63-2.39l11.18,17Z"/><path class="cls-5" d="M1639.66,461.5a33.42,33.42,0,0,1-4.11,11.18c-1,1.78-2.08,3.51-3.25,5.23a31.48,31.48,0,0,1-4.06,5c-3.24,3.15-8.15,5.79-11.63,8.86a16,16,0,0,0-5.44,10.78,25.89,25.89,0,0,0,.19,6.28c.33,2.18.85,4.41,1.29,6.63a39.56,39.56,0,0,1,.9,6.5,17.21,17.21,0,0,1-.81,6,15.92,15.92,0,0,1-1.2,2.74,10.22,10.22,0,0,1-1.82,2.55c-1.6,1.59-4.18,2.86-7.47,3.92-6.71,2.08-15.52,3.51-19.31,6.49a7.68,7.68,0,0,0-3.14,5.26,14,14,0,0,0,.43,6.36,22.87,22.87,0,0,0,1.31,3.52c.29.61.54,1.2.87,1.82l1,1.88c1.32,2.48,2.88,5,4.26,7.54a38.93,38.93,0,0,1,3.18,7.21,17,17,0,0,1,.75,6.46c-.31,4-2.8,7.44-6.55,10.43s-7.62,6-9.07,9.65a14.29,14.29,0,0,0-1,5.93,48.3,48.3,0,0,0,.43,6.36,51.43,51.43,0,0,0,3.86,13.65,61.56,61.56,0,0,0,9.46,15.37,14.34,14.34,0,0,0,15,4.63,62.28,62.28,0,0,0,16.49-7.36,51.59,51.59,0,0,0,10.88-9.1,44.19,44.19,0,0,0,3.94-5,14.17,14.17,0,0,0,2.55-5.44c.88-3.88-.77-8.54-2-13.09s-1.56-8.78.47-12.3a17,17,0,0,1,4.26-4.92,39.52,39.52,0,0,1,6.69-4.16c2.56-1.28,5.28-2.52,7.77-3.83l1.9-1c.63-.33,1.16-.68,1.75-1a21.73,21.73,0,0,0,3.06-2.17,13.83,13.83,0,0,0,3.94-5,7.65,7.65,0,0,0,.38-6.11c-1.45-4.6-7.93-10.75-12.29-16.25a19.73,19.73,0,0,1-4-7.45,10.59,10.59,0,0,1-.07-3.13,16,16,0,0,1,.56-3,17.09,17.09,0,0,1,2.71-5.39,38.24,38.24,0,0,1,4.4-4.86c1.62-1.58,3.31-3.13,4.8-4.75a25.37,25.37,0,0,0,3.71-5.08,16.06,16.06,0,0,0,1.58-12c-1.14-4.5-3.71-9.45-4.61-13.87a31.21,31.21,0,0,1-.55-6.4c0-2.08.07-4.13.26-6.15a33.78,33.78,0,0,1,2.92-11.55,13.57,13.57,0,1,0-23.48-13.61,13.12,13.12,0,0,0-.75,1.5A13.71,13.71,0,0,0,1639.66,461.5Z"/><path class="cls-1" d="M1618.83,568.37l-10.34-19.58a1.76,1.76,0,0,1,3.11-1.64l8.7,16.47,15.7-50.76-7.91-15a1.76,1.76,0,0,1,3-1.79,1.09,1.09,0,0,1,.08.15l6.27,11.86,5.76-18.66a1.76,1.76,0,0,1,3.36,1L1638.68,516l15.83-8.36a1.76,1.76,0,0,1,1.79,3l-.15.08-18.94,10-15.63,50.59,22.52-11.89a1.76,1.76,0,0,1,1.64,3.11l-25.63,13.54-15.12,49,18.75-9.9a1.76,1.76,0,0,1,1.79,3l-.15.08-21.85,11.55-27.73,89.77a1.76,1.76,0,1,1-3.45-.7,1.71,1.71,0,0,1,.09-.3L1602,622.92l-9.34-17.69a1.76,1.76,0,0,1,3.11-1.64l7.7,14.58Z"/><path class="cls-5" d="M305.79,471.33a30.53,30.53,0,0,1,2.09,10.6c.08,1.84,0,3.7-.06,5.58a27.38,27.38,0,0,1-.8,5.77c-1,4-3.58,8.33-4.83,12.35a14.55,14.55,0,0,0,.87,10.91,22.81,22.81,0,0,0,3.11,4.78c1.28,1.54,2.74,3,4.12,4.53a35.36,35.36,0,0,1,3.76,4.61,15.55,15.55,0,0,1,2.2,5,15.13,15.13,0,0,1,.36,2.69,9,9,0,0,1-.21,2.83,17.08,17.08,0,0,1-3.94,6.56c-4.21,4.77-10.36,10-11.9,14.13a7,7,0,0,0,.05,5.56A12.6,12.6,0,0,0,304,572a20.13,20.13,0,0,0,2.67,2.11c.51.33,1,.68,1.53,1l1.68,1c2.19,1.3,4.6,2.55,6.85,3.84A36,36,0,0,1,322.6,584a15.74,15.74,0,0,1,3.62,4.65c1.67,3.29,1.34,7.09-.16,11.17s-3.09,8.21-2.47,11.76a12.82,12.82,0,0,0,2,5,43.06,43.06,0,0,0,3.32,4.72,47.18,47.18,0,0,0,9.43,8.75,55.68,55.68,0,0,0,14.58,7.46,13,13,0,0,0,13.79-3.48,56.06,56.06,0,0,0,9.3-13.48,47.24,47.24,0,0,0,4.14-12.18,42.62,42.62,0,0,0,.69-5.74,12.9,12.9,0,0,0-.59-5.41c-1.14-3.42-4.63-6.26-7.76-9.17s-5.35-6.08-5.44-9.76a15.61,15.61,0,0,1,1-5.82,34.7,34.7,0,0,1,3.22-6.38c1.37-2.2,2.9-4.44,4.21-6.62l1-1.65c.33-.55.58-1.08.87-1.61a19.7,19.7,0,0,0,1.35-3.13,12.59,12.59,0,0,0,.69-5.74,6.91,6.91,0,0,0-2.59-4.91c-3.29-2.88-11.2-4.59-17.18-6.79a17.29,17.29,0,0,1-6.58-3.91,9.83,9.83,0,0,1-1.53-2.39,15.31,15.31,0,0,1-.95-2.55,15.65,15.65,0,0,1-.45-5.45,34.14,34.14,0,0,1,1.12-5.85c.51-2,1.08-4,1.48-5.93a23.12,23.12,0,0,0,.47-5.69,14.58,14.58,0,0,0-4.41-10c-3-2.95-7.33-5.57-10.12-8.57a28.35,28.35,0,0,1-3.44-4.7,52.12,52.12,0,0,1-2.69-4.89,30.23,30.23,0,0,1-3.19-10.32,12.31,12.31,0,0,0-24.54,2h0A12.62,12.62,0,0,0,305.79,471.33Z"/><path class="cls-1" d="M340,564l-17.2-10.34a1.59,1.59,0,1,1,1.63-2.74l14.51,8.66-11.79-46.72L314,505a1.6,1.6,0,0,1,1.64-2.74L326,508.49l-4.33-17.17a1.6,1.6,0,0,1,3.06-.92.57.57,0,0,1,0,.14L330.7,514,339,500.09a1.6,1.6,0,0,1,2.74,1.64l-10,16.68L343.59,565l11.84-19.83a1.6,1.6,0,0,1,2.74,1.64L344.7,569.35l11.37,45.07,9.85-16.51a1.59,1.59,0,0,1,2.75,1.61v0l-11.49,19.25L378,701.41a1.59,1.59,0,0,1-3.09.78h0l-22.22-88-15.58-9.3a1.6,1.6,0,0,1,1.64-2.74l12.84,7.66Z"/><circle class="cls-4" cx="731" cy="127" r="10"/><polygon class="cls-4" points="722 135 691 192 684 187 717.7 129.58 722 135"/><polygon class="cls-4" points="743 135 712 192 705 187 738.7 129.58 743 135"/><polygon class="cls-6" points="721.42 124.12 714 135 728 144 744 139 721.42 124.12"/><path class="cls-4" d="M767.73,135.32l-21.35-16.63a7.11,7.11,0,0,0-9.66.88l-.92,1a7.11,7.11,0,0,0,.56,10l.11.09L756.58,148a7.09,7.09,0,0,0,8.9.26l2.18-1.64a7.09,7.09,0,0,0,1.41-9.94A6.9,6.9,0,0,0,767.73,135.32Z"/><path class="cls-5" d="M782.87,142.65s-7.23-9.83-9.21-8.79-21.67,14.51-20.6,17.49,8.28,11.81,8.28,11.81Z"/><path class="cls-7" d="M852,199s14,3,11,20-19,27-33,27c-11,0-17-13-17-13Z"/><path class="cls-8" d="M760.31,159.34c5.92-3.68,14.76-9.81,20.79-16.88a6.54,6.54,0,0,1,9.13-.86c10.78,8.8,37.5,27.27,73,28.43a6.52,6.52,0,0,1,6.16,8.13c-4.27,16.63-19.84,54.37-74.8,72.52a6.53,6.53,0,0,1-8.23-4.17,6.39,6.39,0,0,1-.26-1.15C784,230,777.42,194.7,758.41,168.65a6.48,6.48,0,0,1,1.49-9A4.81,4.81,0,0,1,760.31,159.34Z"/><path class="cls-9" d="M640,441s141.59,11.68,252-185.66h368.69V635.71H970.35S933,507,640,534Z"/><g class="cls-10"><rect class="cls-2" x="1014" y="283.01" width="200.1" height="154.47" rx="11.37"/><path class="cls-6" d="M1042.57,305.76h99.61a5.83,5.83,0,0,1,5.82,5.82h0a5.83,5.83,0,0,1-5.82,5.82h-99.61a5.83,5.83,0,0,1-5.82-5.82h0A5.83,5.83,0,0,1,1042.57,305.76Z"/><path class="cls-6" d="M1185.44,341H1042.57a5.84,5.84,0,0,1-5.82-5.82h0a5.83,5.83,0,0,1,5.82-5.82h142.87a5.81,5.81,0,0,1,5.82,5.8v0h0A5.83,5.83,0,0,1,1185.44,341Z"/><path class="cls-6" d="M1185.44,364.5H1042.57a5.83,5.83,0,0,1-5.82-5.83h0a5.84,5.84,0,0,1,5.82-5.82h142.87a5.83,5.83,0,0,1,5.82,5.82h0a5.83,5.83,0,0,1-5.81,5.83Z"/><path class="cls-6" d="M1185.44,388H1042.57a5.83,5.83,0,0,1-5.82-5.82h0a5.84,5.84,0,0,1,5.82-5.82h142.87a5.83,5.83,0,0,1,5.82,5.82h0a5.81,5.81,0,0,1-5.8,5.82Z"/><path class="cls-6" d="M1185.44,411.59H1042.57a5.83,5.83,0,0,1-5.82-5.82h0a5.84,5.84,0,0,1,5.82-5.82h142.87a5.83,5.83,0,0,1,5.82,5.82h0a5.81,5.81,0,0,1-5.8,5.82Z"/></g><path class="cls-11" d="M973.78,689.29l-75.16,20.83a.85.85,0,0,0-.6,1,.86.86,0,0,0,.6.6l75,21.51Z"/><rect class="cls-12" x="1099.06" y="564.69" width="43.98" height="294.53" transform="translate(404.01 1829.76) rotate(-89.74)"/><rect class="cls-13" x="1115.16" y="548.66" width="11.93" height="294.53" transform="translate(420.12 1813.88) rotate(-89.74)"/><rect class="cls-13" x="1115.01" y="580.72" width="11.93" height="294.53" transform="translate(387.92 1845.64) rotate(-89.74)"/><path class="cls-14" d="M1311.38,712.82h0a22,22,0,0,0-21.89-22.09l-21.08-.1-.2,44,21.08.09A22,22,0,0,0,1311.38,712.82Z"/><rect class="cls-11" x="1235.05" y="701.29" width="43.98" height="22.57" transform="translate(538.77 1966.37) rotate(-89.74)"/><path class="cls-15" d="M898.62,711.76l30.2,8.66c0-5.85-.07-12.78,0-18.66l-30.16,8.36a.85.85,0,0,0,0,1.64Z"/><g class="cls-16"><rect class="cls-2" x="797" y="284.01" width="200.1" height="154.47" rx="11.37"/><path class="cls-6" d="M825.57,306.76h99.61a5.83,5.83,0,0,1,5.82,5.82h0a5.83,5.83,0,0,1-5.82,5.82H825.57a5.83,5.83,0,0,1-5.82-5.82h0A5.83,5.83,0,0,1,825.57,306.76Z"/><path class="cls-6" d="M968.44,342H825.57a5.84,5.84,0,0,1-5.82-5.82h0a5.83,5.83,0,0,1,5.82-5.82H968.44a5.81,5.81,0,0,1,5.82,5.8v0h0a5.83,5.83,0,0,1-5.82,5.82Z"/><path class="cls-6" d="M968.44,365.5H825.57a5.83,5.83,0,0,1-5.82-5.83h0a5.84,5.84,0,0,1,5.82-5.82H968.44a5.83,5.83,0,0,1,5.82,5.82h0a5.83,5.83,0,0,1-5.81,5.83Z"/><path class="cls-6" d="M968.44,389H825.57a5.83,5.83,0,0,1-5.82-5.82h0a5.84,5.84,0,0,1,5.82-5.82H968.44a5.83,5.83,0,0,1,5.82,5.82h0a5.81,5.81,0,0,1-5.8,5.82Z"/><path class="cls-6" d="M968.44,412.59H825.57a5.83,5.83,0,0,1-5.82-5.82h0a5.84,5.84,0,0,1,5.82-5.82H968.44a5.83,5.83,0,0,1,5.82,5.82h0a5.81,5.81,0,0,1-5.8,5.82Z"/></g><rect class="cls-1" x="765" y="273" width="390" height="103"/><circle class="cls-15" cx="1134.5" cy="293.5" r="7.5"/><circle class="cls-3" cx="1136.25" cy="292" r="7.5"/><circle class="cls-15" cx="1134.5" cy="356.5" r="7.5"/><circle class="cls-15" cx="787.5" cy="293.5" r="7.5"/><circle class="cls-15" cx="787.5" cy="356.5" r="7.5"/><path class="cls-2" d="M841.3,309.24a4,4,0,0,1,3.2-.5c1.08.3,1.53.52,1.35.67s.18.58,1.23,1.07a140.53,140.53,0,0,0,21,5.16c1.24.23,1.59.79,1.07,1.69a2.06,2.06,0,0,1-2.53,1.18c-2.62-.53-5.26-1.14-7.92-1.85-1-.27-1.51,0-1.51.95s-.56,1.35-1.69,1.35H833.1q-1.68,0-1.68-1.35c0-1-.51-1.24-1.52-.79q-3.48,1.24-7,2.25a2,2,0,0,1-2.58-.9c-.49-.86-.11-1.46,1.12-1.8A87.22,87.22,0,0,0,841.3,309.24ZM823.39,289c0-.9.52-1.35,1.57-1.35h38.91q1.68,0,1.68,1.29t-1.68,1.29h-16q-1.41,0-1.41,1.8c0,1.2.47,1.79,1.41,1.79h19.2a1.49,1.49,0,0,1,1.68,1.69v3.87a1.5,1.5,0,0,1-1.26,1.69,1.48,1.48,0,0,1-.42,0,1.51,1.51,0,0,1-1.73-1.25,1.29,1.29,0,0,1,0-.44v-1.63a1.24,1.24,0,0,0-1.06-1.4,1,1,0,0,0-.34,0H847.87a1.24,1.24,0,0,0-1.41,1,1.09,1.09,0,0,0,0,.36v7a1.52,1.52,0,0,1-1.31,1.69,1.55,1.55,0,0,1-.43,0c-1.19,0-1.79-.56-1.79-1.68v-7a1.23,1.23,0,0,0-1-1.4,1.09,1.09,0,0,0-.36,0h-16a1.24,1.24,0,0,0-1.41,1,1.09,1.09,0,0,0,0,.36V300a1.69,1.69,0,0,1-3.37,0v-4.49a1.5,1.5,0,0,1,1.28-1.69,1.41,1.41,0,0,1,.41,0h19.14c.94,0,1.41-.59,1.41-1.79s-.47-1.8-1.41-1.8h-16.5Q823.39,290.22,823.39,289Zm1.29,35.26c0-1,.52-1.46,1.57-1.46h34.53c1.13,0,1.69.48,1.69,1.46a2.69,2.69,0,0,1-1.69,2.41,108.58,108.58,0,0,1-12,5.67c-.12.15.39.39,1.51.73.71.15,1.48.36,2.3.62,1.43.41,1.93,1.12,1.52,2.13a1.68,1.68,0,0,1-2.12,1.07l-.18-.07q-9.27-2.86-17.57-4.61c-1.24-.26-1.65-.78-1.24-1.57a2,2,0,0,1,2.36-1q3.87.78,7.91,1.74a5.29,5.29,0,0,0,2.25-.51q3.71-1.46,7.86-3.59c1-.71,1.5-1.16,1.46-1.35a4.9,4.9,0,0,0-2-.33H826.36c-1.12-.05-1.68-.5-1.68-1.36Zm2.64-16.74a87.74,87.74,0,0,0,9.38-1.68c1.12-.26,1.85,0,2.19.73s0,1.31-1.13,1.57c-3.25.75-6.44,1.35-9.54,1.8-1.13.19-1.8-.11-2-.9a1.14,1.14,0,0,1,1.1-1.54Zm-.23-7.52a1.67,1.67,0,0,1,2-1q4.15.5,8.31,1.4c1.42.26,2,.82,1.57,1.68a2,2,0,0,1-2.52,1c-2.63-.67-5.26-1.21-7.87-1.63-1.26-.2-1.75-.68-1.49-1.45Zm17.58,12.07c-1.39-.52-2.44-.58-3.15-.17-2.09,1.05-4.21,2-6.34,2.92-1,.34-1.5.77-1.46,1.29a7.1,7.1,0,0,0,2,.28h16.9c1.27-.11,1.89-.28,1.85-.5a5.86,5.86,0,0,0-2-1.07Zm5.16-5.05c.26-.79,1-1.12,2.08-1q5,.62,10.67,1.74,1.9.33,1.35,1.74a1.61,1.61,0,0,1-2.07.95l-.12-.05q-6.47-1.47-11.74-2.19c-.37-.07-.43-.46-.17-1.21Zm1.46-5.84a58.82,58.82,0,0,0,8.59-2c1.13-.33,1.87-.13,2.25.62s-.06,1.35-1.18,1.69a67.33,67.33,0,0,1-9.1,2.07c-1.12.19-1.81-.15-2.07-1s.28-1.21,1.51-1.4Z"/><path class="cls-2" d="M878.13,291.67c0-1.2.52-1.8,1.57-1.8h12a1.49,1.49,0,0,1,1.68,1.69V330.8a1.5,1.5,0,0,1-1.26,1.69,1.48,1.48,0,0,1-.42,0c-1.12,0-1.69-.39-1.69-1.18s-.46-1.29-1.4-1.29H882.9c-.93,0-1.4.48-1.4,1.46s-.56,1.46-1.68,1.46a1.49,1.49,0,0,1-1.69-1.26,1.55,1.55,0,0,1,0-.43Zm11.9,3c0-1-.43-1.51-1.29-1.51H882.9a1.24,1.24,0,0,0-1.4,1.06,1,1,0,0,0,0,.34v11.57a1.24,1.24,0,0,0,1.06,1.4,1,1,0,0,0,.34,0h5.73a1.25,1.25,0,0,0,1.4-1.06,1,1,0,0,0,0-.34Zm0,17.69c0-1-.45-1.46-1.34-1.46H882.9a1.25,1.25,0,0,0-1.4,1.06,1,1,0,0,0,0,.34v13a1.24,1.24,0,0,0,1,1.41,1.09,1.09,0,0,0,.36,0h5.73a1.23,1.23,0,0,0,1.4-1,1.09,1.09,0,0,0,0-.36Zm27.35-1.29a1.54,1.54,0,0,1,1.74-1.74c1.23,0,1.85.56,1.85,1.68v1.85a1.24,1.24,0,0,0,1,1.41,1.09,1.09,0,0,0,.36,0h3.2a1.69,1.69,0,0,1,.26,3.37h-3.46a1.25,1.25,0,0,0-1.4,1.06,1,1,0,0,0,0,.34v12.8a11.44,11.44,0,0,1-.34,2.25q-.39,2.3-3.87,2.64a41.3,41.3,0,0,1-5.33-.29,2.49,2.49,0,0,1-2.19-1.9l-.06-.45c-.22-1.24.28-1.71,1.52-1.41a19.28,19.28,0,0,0,5.72.34,2.26,2.26,0,0,0,1-1.68V319a1.23,1.23,0,0,0-1-1.4,1.09,1.09,0,0,0-.36,0H897.73a1.69,1.69,0,0,1-.26-3.37H916a1.25,1.25,0,0,0,1.41-1.07,1,1,0,0,0,0-.34Zm-7.58-23.3a1.58,1.58,0,0,1,1.74-1.8c1.23,0,1.85.56,1.85,1.68v2.81a1.24,1.24,0,0,0,1,1.41,1.09,1.09,0,0,0,.36,0h9.83q1.68,0,1.68,1.62a1.47,1.47,0,0,1-1.26,1.64,2,2,0,0,1-.42,0h-9.83a1.23,1.23,0,0,0-1.4,1.05,1.09,1.09,0,0,0,0,.36v5.1a1.24,1.24,0,0,0,1,1.41,1.09,1.09,0,0,0,.36,0h8.31c1.13,0,1.69.54,1.69,1.63a1.49,1.49,0,0,1-1.69,1.68H900.7a1.45,1.45,0,0,1-1.67-1.21,1.19,1.19,0,0,1,0-.42,1.48,1.48,0,0,1,1.25-1.68,1.55,1.55,0,0,1,.43,0h7.69A1.25,1.25,0,0,0,909.8,302a1,1,0,0,0,0-.34v-5.1a1.25,1.25,0,0,0-1.07-1.41,1,1,0,0,0-.34,0h-9.26a1.45,1.45,0,0,1-1.67-1.21,1.19,1.19,0,0,1,0-.42q0-1.62,1.68-1.62h9.26a1.25,1.25,0,0,0,1.41-1.07,1,1,0,0,0,0-.34Zm-9.21,32.9a1.83,1.83,0,0,1,2.51.58,2.1,2.1,0,0,1,.13.26,40.32,40.32,0,0,1,2.41,4.55,1.56,1.56,0,0,1-.38,2.17,1.64,1.64,0,0,1-.52.24c-1.31.6-2.17.23-2.58-1.12a46.78,46.78,0,0,0-2.08-4.49,1.4,1.4,0,0,1,.51-2.16Z"/><path class="cls-2" d="M944.44,299.25c.26-1.2.93-1.59,2-1.18a1.79,1.79,0,0,1,1.33,2.15.83.83,0,0,1,0,.15,126.76,126.76,0,0,1-7.35,24,1.45,1.45,0,0,1-1.73,1.11,1.51,1.51,0,0,1-.63-.32c-1.39-.79-1.82-1.76-1.29-2.92A117.92,117.92,0,0,0,944.44,299.25ZM958.59,288c0-1.2.52-1.8,1.57-1.8h.73a1.49,1.49,0,0,1,1.68,1.69v44.58a3.67,3.67,0,0,1-2.52,3.87,27.14,27.14,0,0,1-10.28-.17,2.29,2.29,0,0,1-2.07-2l-.12-.51c-.18-1.12.28-1.55,1.41-1.29a41.12,41.12,0,0,0,6.73.73c1.54.41,2.49-.28,2.87-2.07Zm14.76,13c-.56-1.31-.3-2.23.79-2.75s1.83-.21,2.36.95a154,154,0,0,1,8.19,23.14,1.83,1.83,0,0,1-.93,2.42l-.13.05-.45.22c-1.31.6-2.12.32-2.42-.84A148.29,148.29,0,0,0,973.35,301Z"/><path class="cls-2" d="M1004.68,287.07c1.42-.49,2.38-.3,2.87.56s.16,1.55-1.07,2a36.23,36.23,0,0,1-6,1.29c-.9.16-1.33.83-1.29,2s.64,1.9,1.57,1.9h6c1.13,0,1.69.44,1.69,1.3s-.56,1.29-1.69,1.29H1001a1.23,1.23,0,0,0-1.4,1.06,1,1,0,0,0,0,.34v.56c.07,1.24.58,1.86,1.51,1.86h5.67c1.13,0,1.69.44,1.69,1.34s-.56,1.35-1.69,1.35h-5.5q-1.39,0-1.35,1.74v1.12a1.29,1.29,0,0,0,1.17,1.41h31.17c.94,0,1.43-.58,1.46-1.74a2.28,2.28,0,0,0,.06-.9q.11-1.41-1.29-1.41h-5.34c-1.12,0-1.68-.42-1.68-1.29s.56-1.29,1.68-1.29h5.34a1.32,1.32,0,0,0,1.46-1.16,1.5,1.5,0,0,0,0-.3v-1.29a1.24,1.24,0,0,0-1.06-1.4,1,1,0,0,0-.34,0h-5.45q-1.68,0-1.68-1.29c0-.86.56-1.3,1.68-1.3h5.62c.93,0,1.44-.59,1.52-1.79l.11-1.85a1.25,1.25,0,0,0-1.07-1.41,1,1,0,0,0-.34,0h-5.11c-1.12,0-1.68-.48-1.68-1.46s.56-1.46,1.68-1.46h8.31c1,0,1.56.58,1.52,1.74l-.62,18.19a1.25,1.25,0,0,0,1.07,1.41,1,1,0,0,0,.34,0h.73a1.48,1.48,0,0,1,1.68,1.25,1.55,1.55,0,0,1,0,.43v4.33a1.45,1.45,0,0,1-1.21,1.67,1.19,1.19,0,0,1-.42,0,1.48,1.48,0,0,1-1.68-1.25,1.55,1.55,0,0,1,0-.43v-1.63a1.24,1.24,0,0,0-1.07-1.41,1,1,0,0,0-.34,0H996.88a1.23,1.23,0,0,0-1.4,1,1.09,1.09,0,0,0,0,.36v1.63a1.47,1.47,0,0,1-1.23,1.67,1.34,1.34,0,0,1-.4,0,1.5,1.5,0,0,1-1.69-1.26,1.48,1.48,0,0,1,0-.42v-4.33a1.49,1.49,0,0,1,1.69-1.68h1.46c.93,0,1.4-.19,1.4-.56l-.79-17a1.67,1.67,0,0,1,1.52-2A42.65,42.65,0,0,0,1004.68,287.07Zm-4,29.53c0-.94.52-1.4,1.57-1.4h28.63c1.13,0,1.69.52,1.69,1.57a2.4,2.4,0,0,1-1.69,2.3q-6.06,2.7-10.27,4.1c-1.2,0-1.63.54-1.29,1.51.11.23.61.34,1.51.34H1039c1.13,0,1.69.49,1.69,1.46s-.56,1.52-1.69,1.52h-18.36a1.24,1.24,0,0,0-1.4,1.06,1,1,0,0,0,0,.34v4a3.06,3.06,0,0,1-2.41,2.7q-1.92.67-7,.22a2.45,2.45,0,0,1-2.3-2.08c-.15-1,.4-1.4,1.63-1.17a29.63,29.63,0,0,0,4.1.28c1.68.45,2.49-.28,2.41-2.19v-1.8a1.24,1.24,0,0,0-1.06-1.4,1,1,0,0,0-.34,0H994.58c-1.13,0-1.69-.49-1.69-1.46s.56-1.52,1.69-1.52h19.76c.94,0,1.4-.5,1.4-1.51a2.09,2.09,0,0,1,1.69-2c2.06-.63,4.11-1.34,6.17-2.13,1.09-.26,1.59-.65,1.52-1.18a3.32,3.32,0,0,0-1.07-.28h-21.67c-1.12,0-1.68-.42-1.68-1.28Zm19.09-28.47c1.19-1.12,2.09-1.44,2.69-.95s.37,1.22-.67,2.19a8.49,8.49,0,0,1-1.13.95c-1,.79-1,1.52-.16,2.19l.73.51c1.23,1,1.6,1.74,1.12,2.3s-1.56.45-2.87-.67l-.89-.68a2.55,2.55,0,0,0-3,0l-2.69,1.46c-1.12.49-1.83.43-2.13-.17s0-1.27,1.06-1.79a17.25,17.25,0,0,0,1.63-.9c1-.75,1-1.5-.11-2.25-1.46-.82-2-1.51-1.57-2.07s1.25-.58,2.41.05l1.12.68a2.84,2.84,0,0,0,3.37.11,8.5,8.5,0,0,0,1.11-1Zm-.17,10.78c1.16-1.08,1.94-1.32,2.36-.73s.22,1.45-.9,2.53-1.14,1.89,0,2.64,1.63,1.59,1.07,2.19-1.35.39-2.58-.51l-.73-.5a3,3,0,0,0-3.37.05,15.78,15.78,0,0,1-2.25,1.13c-1.23.48-2,.47-2.41-.06s0-1.14,1-1.63a12.39,12.39,0,0,0,1.91-1c.82-.56.65-1.2-.51-1.91l-.73-.39q-1.85-1-1.23-1.74c.48-.6,1.33-.6,2.52,0l2,1.07c.89.45,1.94.24,3.14-.62Z"/><path class="cls-2" d="M1057.18,288c0-1.2.52-1.8,1.57-1.8a1.51,1.51,0,0,1,1.73,1.27,1.19,1.19,0,0,1,0,.42v7.52a1.24,1.24,0,0,0,1,1.41,1.09,1.09,0,0,0,.36,0h3.71c1.12,0,1.68.5,1.68,1.51s-.56,1.52-1.68,1.52h-3.71c-.93,0-1.4.54-1.4,1.63a5.16,5.16,0,0,0,1.46,3.31,60.71,60.71,0,0,1,4,5q1.52,2.15.45,3.76c-.82,1.13-1.57,1.09-2.24-.11a13.36,13.36,0,0,0-3-4.15c-.64.07-.88.75-.73,2V335a1.46,1.46,0,0,1-1.22,1.68,1.41,1.41,0,0,1-.41,0,1.49,1.49,0,0,1-1.68-1.69V313c0-.71-.23-1-.68-.95a6.26,6.26,0,0,0-1,2,35.54,35.54,0,0,1-3.48,7.41c-.78,1.2-1.55,1.46-2.3.79a2.16,2.16,0,0,1-.06-3,54.3,54.3,0,0,0,7.19-18c.08-1-.32-1.46-1.18-1.46h-4c-1.13,0-1.69-.51-1.69-1.52s.56-1.51,1.69-1.51h4.1a1.23,1.23,0,0,0,1.4-1.05,1.09,1.09,0,0,0,0-.36Zm32.17,22.68c.52-1.38,1.31-1.7,2.36-.95a2.19,2.19,0,0,1,.73,2.92,51.53,51.53,0,0,1-5.06,9.32c-.56.86-.26,1.91.9,3.14a41.11,41.11,0,0,0,10,7c1.13.53,1.35,1.37.68,2.53a1.83,1.83,0,0,1-2.87.84,51.79,51.79,0,0,1-10.38-8.08c-.9-.9-1.88-.79-2.92.33a50.24,50.24,0,0,1-11.91,8.31,1.76,1.76,0,0,1-2.43-.56l-.09-.17a1.57,1.57,0,0,1,.33-2.2,1.53,1.53,0,0,1,.4-.21,43.82,43.82,0,0,0,12.69-9.6,7.29,7.29,0,0,0-1.29-2,66.37,66.37,0,0,1-5.11-8.43,1.88,1.88,0,0,1,.52-2.61l0,0q1.35-1,2.19.78a55.1,55.1,0,0,0,4.66,7.86c.86,1,1.68.86,2.47-.34a52.59,52.59,0,0,0,4.09-7.84Zm-14.65-9.82c1.08-1.39,2.07-1.78,3-1.18s.86,1.55,0,2.75a37.88,37.88,0,0,1-5.56,5.9c-1.16.82-2.13.78-2.92-.12s-.5-1.77.62-2.63a40,40,0,0,0,4.86-4.7Zm7.91-14.09a1.46,1.46,0,0,0,.68-.17c1-.19,1.77.33,2.19,1.57a32.49,32.49,0,0,1,1.12,4,1.6,1.6,0,0,0,1.63,1.46h10c1.12,0,1.69.5,1.69,1.51s-.57,1.57-1.69,1.57h-27c-1.12,0-1.68-.5-1.68-1.51s.56-1.57,1.68-1.57h10.22c.93,0,1.27-.6,1-1.8l-.84-2.7c-.55-1.3-.23-2.08,1-2.34Zm8.31,15.55q-1.68-1.8-.45-2.64c.94-.67,2.12-.29,3.54,1.12a50.26,50.26,0,0,1,4,4.49c1,1.16,1.06,2.18.28,3s-1.78.78-2.64-.34c-1.43-1.81-3-3.7-4.73-5.61Z"/><path class="cls-2" d="M862.63,363.72A4.87,4.87,0,0,1,861,363c-.33-.25-.49-.48-.49-.68a1.82,1.82,0,0,1,.39-.94q.4-.57.66-.57a1.45,1.45,0,0,1,.49.22,7.71,7.71,0,0,0,1.22.52,4.31,4.31,0,0,0,1.38.2,2.5,2.5,0,0,0,1.5-.43,1.44,1.44,0,0,0,.61-1.28,1.33,1.33,0,0,0-.31-.9,2.69,2.69,0,0,0-.76-.62c-.31-.16-.73-.36-1.27-.58l-.7-.3a8.17,8.17,0,0,1-1.53-.85,3.41,3.41,0,0,1-1-1.2,4.14,4.14,0,0,1-.4-1.9,3.63,3.63,0,0,1,.63-2.14,4,4,0,0,1,1.68-1.32,6,6,0,0,1,2.3-.43,7.24,7.24,0,0,1,1.73.2,3.56,3.56,0,0,1,1.29.53.81.81,0,0,1,.41.6,2,2,0,0,1-.33.92q-.35.57-.6.57a1.19,1.19,0,0,1-.32-.1l-.33-.16a4.25,4.25,0,0,0-1.69-.34,2.4,2.4,0,0,0-1.58.43,1.34,1.34,0,0,0-.51,1.08,1.45,1.45,0,0,0,.3.94,2.13,2.13,0,0,0,.74.59c.29.14.72.33,1.29.55a15.93,15.93,0,0,1,1.86.9,3.83,3.83,0,0,1,1.26,1.24,3.7,3.7,0,0,1,.53,2.05,3.8,3.8,0,0,1-1.27,3.13,4.87,4.87,0,0,1-3.18,1A9,9,0,0,1,862.63,363.72Z"/><path class="cls-2" d="M897.86,362.27c-1.05-1.15-1.58-2.94-1.57-5.38q0-7.06,6.57-7.06a9.64,9.64,0,0,1,2,.21,5.35,5.35,0,0,1,1.55.52c.33.19.49.39.49.6a1.65,1.65,0,0,1-.18.62,3.52,3.52,0,0,1-.44.69c-.17.2-.31.3-.45.3a2.76,2.76,0,0,1-.47-.2,5.66,5.66,0,0,0-1.05-.36,5.42,5.42,0,0,0-1.45-.16,3.51,3.51,0,0,0-2.91,1.19,7.63,7.63,0,0,0,0,7.33,3.42,3.42,0,0,0,2.87,1.21,5.62,5.62,0,0,0,1.58-.2,8.4,8.4,0,0,0,1.29-.5,1.46,1.46,0,0,1,.44-.16.61.61,0,0,1,.45.29,2.47,2.47,0,0,1,.38.67,1.7,1.7,0,0,1,.16.53c0,.31-.22.58-.67.84a5.73,5.73,0,0,1-1.65.55,10.36,10.36,0,0,1-2,.2A6.35,6.35,0,0,1,897.86,362.27Z"/><path class="cls-2" d="M934.67,363.32V350.5c0-.38.35-.57,1.06-.57h.51c.7,0,1,.19,1,.57v5.14h6V350.5q0-.57,1-.57h.52c.67,0,1,.19,1,.57v12.82c0,.39-.35.58-1,.58h-.52c-.7,0-1-.19-1-.58v-5.43h-6v5.43c0,.39-.35.58-1,.58h-.51C935,363.9,934.67,363.71,934.67,363.32Z"/><path class="cls-2" d="M1054,363.66a1.23,1.23,0,0,1-.13-.65v-.3a1.24,1.24,0,0,1,.13-.66.44.44,0,0,1,.41-.19h2.91v-9.55l-3,.47c-.2,0-.35-.15-.43-.47a3.76,3.76,0,0,1-.13-1c0-.27.15-.43.46-.5l4.82-.93a1,1,0,0,1,.51.14c.16.09.24.19.24.31v11.5h2.27a.45.45,0,0,1,.4.19,1.24,1.24,0,0,1,.13.66v.3a1.23,1.23,0,0,1-.13.65.41.41,0,0,1-.4.2h-7.68A.43.43,0,0,1,1054,363.66Z"/><line class="cls-17" x1="987.83" y1="350.14" x2="972.59" y2="363.4"/><path class="cls-2" d="M975.56,362.15a7.73,7.73,0,0,1-1.62-5.28,7.65,7.65,0,0,1,1.62-5.25,6.91,6.91,0,0,1,9.32,0,9.38,9.38,0,0,1,0,10.54,6.85,6.85,0,0,1-9.32,0Zm7.34-1.65a6.1,6.1,0,0,0,.92-3.63,6,6,0,0,0-.91-3.61,3.55,3.55,0,0,0-5-.36,3.06,3.06,0,0,0-.36.36,5.9,5.9,0,0,0-.92,3.61,6,6,0,0,0,.92,3.63,3.5,3.5,0,0,0,4.93.43A2.91,2.91,0,0,0,982.9,360.5Z"/><line class="cls-17" x1="1027.76" y1="350.02" x2="1012.52" y2="363.27"/><path class="cls-2" d="M1015.49,362a7.73,7.73,0,0,1-1.62-5.28,7.65,7.65,0,0,1,1.62-5.25,6,6,0,0,1,4.67-1.82,5.89,5.89,0,0,1,4.65,1.81,7.63,7.63,0,0,1,1.62,5.26,7.73,7.73,0,0,1-1.62,5.28,6.89,6.89,0,0,1-9.32,0Zm7.34-1.65a6.1,6.1,0,0,0,.92-3.63,6,6,0,0,0-.91-3.61,3.55,3.55,0,0,0-5-.36,3.06,3.06,0,0,0-.36.36,5.9,5.9,0,0,0-.92,3.61,6,6,0,0,0,.92,3.63,3.5,3.5,0,0,0,4.93.43A2.91,2.91,0,0,0,1022.83,360.35Z"/><circle class="cls-3" cx="1136.25" cy="355.5" r="7.5"/><circle class="cls-3" cx="789.25" cy="292" r="7.5"/><circle class="cls-3" cx="789.25" cy="355.5" r="7.5"/><g class="cls-10"><rect class="cls-2" x="871.56" y="455.46" width="342.44" height="91.9" rx="9.84"/><rect class="cls-6" x="896.15" y="479.44" width="93.7" height="10.07" rx="5.03"/><path class="cls-6" d="M1024.74,509.88H901.18a5,5,0,0,1-5-5h0a5,5,0,0,1,5-5h123.56a5,5,0,0,1,5,5h0A5,5,0,0,1,1024.74,509.88Z"/><path class="cls-6" d="M1024.74,530.24H901.18a5,5,0,0,1-5-5h0a5,5,0,0,1,5-5h123.56a5,5,0,0,1,5,5h0A5,5,0,0,1,1024.74,530.24Z"/><path class="cls-18" d="M1075.08,498.53l-18.89,32.72a3.2,3.2,0,0,0,1.17,4.37,3.26,3.26,0,0,0,1.61.43h37.77a3.2,3.2,0,0,0,2.77-4.8l-18.88-32.72a3.21,3.21,0,0,0-5.55,0Z"/><path class="cls-19" d="M1115.77,470.83l-34.88,60.42a3.2,3.2,0,0,0,2.77,4.8h69.77a3.2,3.2,0,0,0,2.77-4.8l-34.88-60.42a3.2,3.2,0,0,0-5.55,0Z"/><path class="cls-20" d="M1165.22,483.06l-27.82,48.19a3.2,3.2,0,0,0,1.17,4.37,3.26,3.26,0,0,0,1.61.43h55.64a3.2,3.2,0,0,0,2.77-4.8l-27.82-48.19a3.2,3.2,0,0,0-5.55,0Z"/></g><path class="cls-21" d="M1255.39,433a2.47,2.47,0,0,0-1.67.79c-5,5.28-34.81,38.68-30.22,71.71a481.38,481.38,0,0,0,14.36,65.88,2.52,2.52,0,0,0,2.82,1.77l113.67-18.3a2.54,2.54,0,0,0,2.13-2.53l-.5-45a4.86,4.86,0,0,1,0-.54c.85-4.14,10.46-57.51-50.79-77a2.26,2.26,0,0,0-1-.11Z"/><path class="cls-5" d="M1357.25,565.69a2.53,2.53,0,0,1,3.41,1h0c3.84,7.27,16.3,29.75,23.84,29.75s37.06-18.84,45.64-24.44a2.5,2.5,0,0,1,3.47.73,2.4,2.4,0,0,1,.16.27l7.09,14.17a2.53,2.53,0,0,1-.14,2.51c-5.57,8.53-39.59,59.2-65.22,63.78-24.88,4.44-58.45-48-65.62-59.7a2.52,2.52,0,0,1,.86-3.47l.14-.08Z"/><path class="cls-22" d="M1001.64,572.59a2.9,2.9,0,0,1-1.78-5.42c40.3-22.23,167.61-70.75,317.38,13.06,144.72,81,220,49.85,238.7,33.88a2.9,2.9,0,0,1,4.8,2.2s-.62,19.34-17.74,59.69c-14,33-149,117-278,16.21C1127.79,585,1099.31,560.22,1001.64,572.59Z"/><path class="cls-2" d="M1432.81,570.18l16.4-9.37a2.53,2.53,0,0,1,3.46.92l0,.08,16.69,32.51a2.51,2.51,0,0,1-1.06,3.39l-.07,0c-4.9,2.34-17.14,5.56-28.77-12.28l-7.56-11.76a2.53,2.53,0,0,1,.81-3.48Z"/><path class="cls-23" d="M1306.28,432.61a2.41,2.41,0,0,1,.45-.16,28.5,28.5,0,0,0,20.13-20.06c4.64-16.89,3.64-36.89-15.36-44.89s-16.5-22.5-41-16c-13.43,3.56-44,5-46,29s-5.46,36,26.27,50C1280.72,443.71,1303.78,433.76,1306.28,432.61Z"/><path class="cls-2" d="M1246.75,386.36a2.54,2.54,0,0,0-3.47.95c0,.09-.09.18-.13.27-3.35,8.08-11,29.85.35,37.92,13.44,9.6,21.35,11.83,25.5,33.23a2.54,2.54,0,0,0,3,2l.28-.07c7.33-2.31,27-9.26,30.25-18.18a37.38,37.38,0,0,0,2.47-10.2,12.51,12.51,0,0,0,0-2.12,2.56,2.56,0,0,1,1.28-2.49c2.92-1.68,8-6.17,2.71-15.47a2.53,2.53,0,0,0-1.19-1c-4-1.72-23-10.23-28.55-21.14a2.51,2.51,0,0,0-2.45-1.38C1271.16,389.11,1253.76,390.16,1246.75,386.36Z"/><path class="cls-24" d="M1255,413.42s-4-1.59-5.56,2.38,5.56,4.77,5.56,4.77"/><rect class="cls-15" x="1151.5" y="506.5" width="212" height="100" rx="15.07"/><g class="cls-25"><path class="cls-26" d="M1308,533.1h-43.4a4,4,0,0,1-4-4h0a4,4,0,0,1,4-4H1308a4,4,0,0,1,4,4h0A4,4,0,0,1,1308,533.1Z"/><path class="cls-26" d="M1341,552.15h-76.48a4,4,0,0,1-4-4h0a4,4,0,0,1,4-4H1341a4,4,0,0,1,4,4h0A4,4,0,0,1,1341,552.15Z"/><path class="cls-26" d="M1308,571.54h-43.4a4,4,0,0,1-4-4h0a4,4,0,0,1,4-4H1308a4,4,0,0,1,4,4h0A4,4,0,0,1,1308,571.54Z"/><path class="cls-26" d="M1341,590.6h-76.48a4,4,0,0,1-4-4h0a4,4,0,0,1,4-4H1341a4,4,0,0,1,4,4h0A4,4,0,0,1,1341,590.6Z"/></g><path class="cls-27" d="M1310,431s29.5,1.5,43.5,41.5c12.28,35.08-9.29,64-14.78,70.59a2.5,2.5,0,0,1-2.9.71l-8.24-3.43a2.53,2.53,0,0,1-1.48-3c2.12-8.12,8.11-38.35-11.6-64.91"/><path class="cls-2" d="M1334.44,543.23a2.53,2.53,0,0,1,1.31,3.33,2.64,2.64,0,0,1-.43.67c-2.68,3-7.53,6.86-12.82,4.22-6.28-3.14-.85-8.75,1.78-11a2.49,2.49,0,0,1,2.61-.41Z"/><path class="cls-3" d="M1247,556.73A37,37,0,0,1,1224,591h0a37.06,37.06,0,0,1-48.35-20.2c-.43-1.06-.82-2.14-1.15-3.23h0a37,37,0,1,1,72.47-10.8Z"/><path class="cls-19" d="M1233.94,532.32l-22,22a2.51,2.51,0,0,1-3.56,0,2.37,2.37,0,0,1-.29-.34l-17.92-25.47a2.53,2.53,0,0,1,.61-3.53l.14-.09a36.8,36.8,0,0,1,42.92,3.73,2.5,2.5,0,0,1,.25,3.54Z"/><path class="cls-2" d="M1207.74,561.76l-11.61,26.49a2.53,2.53,0,0,1-3.33,1.31l-.15-.07a37.14,37.14,0,0,1-18.13-21.92h0l30.18-9.2a2.53,2.53,0,0,1,3.13,1.73A2.49,2.49,0,0,1,1207.74,561.76Z"/><path class="cls-28" d="M1239.38,574.56a2.51,2.51,0,0,1,.87,3.44,1.4,1.4,0,0,1-.1.16A37.12,37.12,0,0,1,1224,591h0l-11.13-27.19a2.53,2.53,0,0,1,3.65-3.12Z"/><path class="cls-13" d="M1272.05,457.13c5.41-8.05,17.61-23.65,33.09-27.74a2.49,2.49,0,0,1,1.48.07l3,1.06a2.52,2.52,0,0,1,1.55,3.22.56.56,0,0,1,0,.12c-2.46,6.12-11.1,21.74-36.5,27.15a2.52,2.52,0,0,1-3-2A2.55,2.55,0,0,1,1272.05,457.13Z"/><path class="cls-13" d="M1256.3,434.25a30,30,0,0,1,11.26,15.62,2.53,2.53,0,0,1-4.57,2.05c-3.3-5.29-7.24-11.2-9.92-13.82a2.51,2.51,0,0,1-.08-3.48h0A2.52,2.52,0,0,1,1256.3,434.25Z"/><rect class="cls-15" x="497" y="191.5" width="246.5" height="228" rx="18.7"/><rect class="cls-3" x="639" y="175.5" width="79" height="31.5" rx="9.92"/><rect class="cls-29" x="657.79" y="456.7" width="200.1" height="154.47" rx="11.37"/><rect class="cls-30" x="526" y="221" width="190" height="117"/><line class="cls-30" x1="527.5" y1="336.5" x2="715.5" y2="222.5"/><line class="cls-30" x1="527.5" y1="222.5" x2="714.5" y2="336.5"/><path class="cls-15" d="M1284,625.66h247.6a28,28,0,0,1,28,28h0a28,28,0,0,1-28,28H1284a28,28,0,0,1-28-28h0A28,28,0,0,1,1284,625.66Z"/><path class="cls-31" d="M1531.06,671.66h0a18,18,0,0,1-18-18h0a18,18,0,0,1,18-18h0a18,18,0,0,1,18,18h0A18,18,0,0,1,1531.06,671.66Z"/><circle class="cls-32" cx="1529.51" cy="652.05" r="7.43" transform="translate(-114.36 901.56) rotate(-31.72)"/><path class="cls-2" d="M1540,663.89a1.3,1.3,0,0,1-.89-.37l-5.25-5.26a1.25,1.25,0,1,1,1.77-1.77l5.25,5.26a1.26,1.26,0,0,1-.88,2.14Z"/><path class="cls-21" d="M528.5,353.5h184a5,5,0,0,1,5,5h0a5,5,0,0,1-5,5h-184a5,5,0,0,1-5-5h0A5,5,0,0,1,528.5,353.5Z"/><path class="cls-21" d="M529,372.75H713a5,5,0,0,1,5,5h0a5,5,0,0,1-5,5H529a5,5,0,0,1-5-5h0A5,5,0,0,1,529,372.75Z"/><path class="cls-21" d="M529,392H713a5,5,0,0,1,5,5h0a5,5,0,0,1-5,5H529a5,5,0,0,1-5-5h0A5,5,0,0,1,529,392Z"/><circle class="cls-4" cx="731.17" cy="414.36" r="55.36" transform="translate(-78.84 638.38) rotate(-45)"/><circle class="cls-2" cx="731.17" cy="414.36" r="40.34" transform="translate(-108.64 446.32) rotate(-31.72)"/><path class="cls-4" d="M809.42,502a9.33,9.33,0,0,1-6.6-2.74L763.7,460.12a9.33,9.33,0,1,1,13.2-13.19L816,486.05A9.34,9.34,0,0,1,809.4,502Z"/><path class="cls-33" d="M965,540.56a59.21,59.21,0,0,0-109.33-45.48,58.39,58.39,0,0,0-3.78,30.23,68.27,68.27,0,0,0,4,14.94c1.76,4.64,5.06,8.55,6.62,13.24,1.34,4,.16,7.76-.08,11.83a11.76,11.76,0,0,0,7.23,11.53l27.55,11.47a11.78,11.78,0,0,0,13.24-3c2.3-2.53,4.6-6,7.36-8,3.44-2.47,8.75-2.26,12.7-3.78A62.67,62.67,0,0,0,944.78,566,60.14,60.14,0,0,0,965,540.56Z"/><path class="cls-34" d="M941,490.54a4.54,4.54,0,0,1-1.54-1.05,40.22,40.22,0,0,0-3.26-3,4.65,4.65,0,0,1,5.91-7.17,50,50,0,0,1,4,3.71,4.65,4.65,0,0,1-5.13,7.52Z"/><path class="cls-34" d="M950.38,539.49a4.65,4.65,0,0,1-2.51-6.07,40.21,40.21,0,0,0-.41-32.11,4.65,4.65,0,0,1,8.35-4.1c.05.11.1.21.14.32a50.13,50.13,0,0,1,.51,39.46A4.65,4.65,0,0,1,950.38,539.49Z"/><path class="cls-35" d="M890.72,530.4a10.69,10.69,0,0,1-4.8-3.94l-3.54-5.31a2.51,2.51,0,0,1,4-3c.06.08.11.16.16.24l3.54,5.31a5.74,5.74,0,0,0,6,2.4l4.7-1.06a10.73,10.73,0,0,1,11.49,4.85l2.36,3.86a5.73,5.73,0,0,0,5.94,2.61l6.78-1.31a2.51,2.51,0,1,1,1,4.92l-6.78,1.32a10.76,10.76,0,0,1-11.17-4.92L908,532.49a5.7,5.7,0,0,0-6.11-2.57l-4.7,1.05A10.71,10.71,0,0,1,890.72,530.4Z"/><path class="cls-36" d="M869.64,581.75a2.5,2.5,0,0,1-1.47-2.88l14.52-62.56a2.51,2.51,0,1,1,4.89,1.14L873.05,580a2.5,2.5,0,0,1-3,1.88A2.8,2.8,0,0,1,869.64,581.75Z"/><path class="cls-36" d="M893.87,591.83c-.14-.06-.26-.13-.39-.2a2.52,2.52,0,0,1-.77-3.47L927.05,534a2.51,2.51,0,0,1,4.24,2.69L897,590.85A2.51,2.51,0,0,1,893.87,591.83Z"/><rect class="cls-37" x="865.81" y="572.97" width="25.38" height="42.72" rx="4.55" transform="translate(-7.69 1177.12) rotate(-67.41)"/><path class="cls-37" d="M870,615h0a13.17,13.17,0,0,1-7.11-17.22h0l3.36-8.08a13.17,13.17,0,0,1,17.22-7.11h0a13.17,13.17,0,0,1,7.11,17.22h0l-3.36,8.07A13.18,13.18,0,0,1,870,615Z"/><rect class="cls-38" x="877.99" y="568.44" width="5.02" height="42.72" transform="translate(-2.28 1176.18) rotate(-67.41)"/><rect class="cls-38" x="874.22" y="577.47" width="5.02" height="42.72" transform="translate(-12.94 1178.27) rotate(-67.41)"/><path class="cls-39" d="M937.89,452.31a2.71,2.71,0,0,1-1.46-3.54l6.91-16.62a2.71,2.71,0,0,1,5,2.08l-6.91,16.62A2.73,2.73,0,0,1,937.89,452.31Z"/><path class="cls-39" d="M969.66,478.54a2.71,2.71,0,0,1-1-4.9l14.88-10.12a2.71,2.71,0,0,1,3.1,4.45l0,0-14.88,10.12A2.71,2.71,0,0,1,969.66,478.54Z"/><path class="cls-39" d="M997.52,511.1l-17.9,1.9a2.71,2.71,0,1,1-.66-5.38h.1l17.9-1.86a2.71,2.71,0,0,1,.56,5.39Z"/><path class="cls-39" d="M897.76,448.63a2.63,2.63,0,0,0,2,.43A2.7,2.7,0,0,0,902,446s0-.05,0-.08l-3.3-17.69a2.71,2.71,0,1,0-5.33,1h0l3.31,17.69A2.69,2.69,0,0,0,897.76,448.63Z"/><path class="cls-39" d="M855,451.83l11.3,14a2.71,2.71,0,0,0,4.22-3.4l-11.3-14a2.71,2.71,0,0,0-4.28,3.33Z"/><path class="cls-40" d="M681.84,520.42,693.63,514s50.39,46.1,77.19,57.9l-46.1,24.66S681.84,538.64,681.84,520.42Z"/><path class="cls-2" d="M752.06,501.66s-22.51,9.64-25.73,25.73c0,0-10.72,1.07-9.65,7.5s4.29,5.36,4.29,5.36-1.07,24.66,17.15,32.16c0,0,3.22,4.29,3.22,11.8a27.75,27.75,0,0,1,16.62-7s-4.29-5.36-3.22-9.65c0,0,10.72,0,10.72-8.58s-8.57-8.57-8.57-8.57-23.59-17.16-18.23-39.67Z"/><path class="cls-13" d="M725.8,604l-1.08-6.43S743,574,779.4,571.88c0,0,11.79,18.22,11.79,20.37C791.19,592.25,753.67,589,725.8,604Z"/><path class="cls-2" d="M674.33,497.9s-3.21-11.79,1.08-9.65,17.44,26.16,17.44,26.16l-11,6s-11.79-2.15-12.87-8.58S674.33,497.9,674.33,497.9Z"/><path class="cls-15" d="M805.43,695.85s9.35,40.06-23.89,42.2-27.87,1.08-40.74,3.22-51.46,1.07-80.4-24.66-39.67-40.74-34.31-56.82,38.16-11.28,38.16-11.28l137.67,38.08Z"/><path class="cls-2" d="M675.41,726.26s-26.81,2.15-35.38-1.07-16-10.72-15-16.08,5.36-7.51,15-5.36S658.25,708,658.25,708Z"/><rect class="cls-41" x="657.43" y="544.72" width="65.08" height="84.87" rx="1.82" transform="translate(-154.72 259.57) rotate(-19.2)"/><circle class="cls-42" cx="675.16" cy="544.42" r="7.95"/><circle class="cls-41" cx="675.16" cy="544.42" r="3.51"/><path class="cls-43" d="M691.62,551.56l-25,8.69a6.07,6.07,0,0,1-6.53-1.69l-3.8-4.25a2.25,2.25,0,0,1,.19-3.18,2.35,2.35,0,0,1,.75-.44L693,538.23a2.24,2.24,0,0,1,2.87,1.37,2.07,2.07,0,0,1,.13.89l-.33,5.69A6.1,6.1,0,0,1,691.62,551.56Z"/><path class="cls-3" d="M664.08,579.89a1.12,1.12,0,0,1-.88,0L659.34,578a1.15,1.15,0,0,1,1-2.08l2.68,1.3,2.09-6.41a1.14,1.14,0,0,1,1.43-.75h0a1.16,1.16,0,0,1,.74,1.45l-2.5,7.66a1.13,1.13,0,0,1-.64.71Z"/><path class="cls-3" d="M672.92,570.72l32.71-11.39a1.46,1.46,0,0,1,1.85.89h0a1.45,1.45,0,0,1-.9,1.85l-32.71,11.39a1.45,1.45,0,0,1-1.85-.89h0A1.46,1.46,0,0,1,672.92,570.72Z"/><path class="cls-3" d="M669.13,594.39a1.12,1.12,0,0,1-.88,0l-3.86-1.86a1.15,1.15,0,0,1,1-2.08h0l2.68,1.3,2.09-6.41a1.15,1.15,0,0,1,2.19.71l-2.5,7.66a1.13,1.13,0,0,1-.64.71Z"/><path class="cls-3" d="M711.66,576.5l-32.72,11.4a1.45,1.45,0,0,1-1.84-.89h0a1.44,1.44,0,0,1,.87-1.84h0l32.72-11.39a1.43,1.43,0,0,1,1.83.86v0h0A1.45,1.45,0,0,1,711.66,576.5Z"/><path class="cls-3" d="M674.18,608.89a1.1,1.1,0,0,1-.87,0L669.44,607a1.15,1.15,0,0,1,1-2.08h0l2.68,1.3,2.09-6.41a1.16,1.16,0,0,1,1.45-.74,1.15,1.15,0,0,1,.74,1.45h0l-2.5,7.66a1.13,1.13,0,0,1-.64.71Z"/><path class="cls-3" d="M716.71,591,684,602.4a1.45,1.45,0,0,1-1.84-.89h0a1.45,1.45,0,0,1,.89-1.85h0l32.72-11.39a1.43,1.43,0,0,1,1.83.86v0h0a1.43,1.43,0,0,1-.88,1.83Z"/><path class="cls-3" d="M679.24,623.4a1.12,1.12,0,0,1-.88-.06l-3.87-1.86a1.16,1.16,0,0,1,1-2.08l2.67,1.3,2.09-6.41a1.15,1.15,0,1,1,2.19.72h0l-2.5,7.66a1.16,1.16,0,0,1-.64.7Z"/><path class="cls-3" d="M688.06,614.23l32.71-11.39a1.46,1.46,0,0,1,1.85.89h0a1.46,1.46,0,0,1-.89,1.85L689,617a1.45,1.45,0,0,1-1.84-.89h0A1.44,1.44,0,0,1,688.06,614.23Z"/><path class="cls-2" d="M665.55,615.17,660,599.59s-11.43,5.52-5,19.46Z"/><path class="cls-21" d="M791.19,592.25s31.1,46.1,16.09,92.2c0,0,2.14,6.43,1.07,9.65s-18.23,3.21-18.23,3.21a351.18,351.18,0,0,0-48.24,4.29c-27.88,4.29-37.53-15-37.53-18.22V663s6.44-45,21.45-59S791.19,592.25,791.19,592.25Z"/><path class="cls-44" d="M725.8,604s-17.16,24.66-37.53,24.66-21.44-12.87-21.44-12.87S659.32,614.72,655,619c0,0,2.14,35.38,25.73,42.89s42.88-5.37,42.88-5.37"/><path class="cls-45" d="M756.89,496.83s-11.8-1.07-17.16,6.43-5,30.55,16.8,46.9c0,0-10.36,19.57,7.86,33.51,0,0-5.36,6.43,3.22,13.94,0,0-8.58,5.36,2.14,13.94,0,0-4.29,10.72-5.36,17.15h0l12.87,2.14s-1.08-15-3.22-19.29c0,0,8.58-2.15,3.22-11.8,0,0,6.43-5.36,0-13.93a12.64,12.64,0,0,0,5.36-10.73,18.45,18.45,0,0,0,7.5-2.14,14.06,14.06,0,0,0,16.08,5.36,9.15,9.15,0,0,0,9.17,7.5h.48s0,10.72,11.8,5.36l13.93,7.5a35.89,35.89,0,0,0,0-11.79L829.79,588s-1.07-6.43-6.43-6.43c0,0,0-10.72-8.58-9.65,0,0,2.14-9.65-8.58-11.8,0,0,12.87-39.66-11.79-54.67S756.89,496.83,756.89,496.83Z"/><line class="cls-46" x1="754.06" y1="393.61" x2="707.35" y2="434.22"/><path class="cls-1" d="M716.46,430.4q-5-5.59-5-16.18t5-16.08q5-5.56,14.3-5.57T745,398.11q5,5.52,5,16.11t-5,16.18q-5,5.6-14.26,5.6T716.46,430.4Zm22.48-5q2.82-3.82,2.83-11.13T739,403.15c-1.87-2.51-4.6-3.77-8.21-3.77s-6.36,1.26-8.25,3.77-2.82,6.21-2.82,11.07.94,8.58,2.82,11.13a10.71,10.71,0,0,0,16.43,0Z"/><path class="cls-47" d="M501.83,470.89s22-39,22-54l-11-5s-31,42-50,49S501.83,470.89,501.83,470.89Z"/><path class="cls-2" d="M471.33,377.39s16,5,23,18c0,0,8.5-1.5,9.5,3.5s-4,7-4,7,9,19-5,30-9,15-9,15-14,12-26,13-14-13-14-13Z"/><path class="cls-48" d="M421.83,402.89s-1-21,20-29,28-11,29-14c0,0,13,21-5,43,0,0,4,9,2,13a11.21,11.21,0,0,0-4,5c-1,3,3,8,8,8,0,0,0,11-3,14s-12,12-18,11-33-10-35-32S421.83,402.89,421.83,402.89Z"/><path class="cls-21" d="M486.83,458.89s9,8,31,3,43-41,43-41l13,3s-5,64-56,89c0,0-11,5-12,15s9,32,5,40-33,13-55,14-46-3-44-12,4-10,5-20-1-64,12-81Z"/><path class="cls-2" d="M512.83,412.89s0-11,3-17,10-5,11-2,0,12,0,12,5-4,5-1-9,13-9,13Z"/><path class="cls-2" d="M563,421.38s-2.13-12.49,2.87-14.49,8-1,9,4-1.85,12.8-1.85,12.8Z"/><path class="cls-49" d="M640,441s-30.47,0-57-12V549s23.59-11,57-15Z"/><path class="cls-2" d="M478,711.89v13l36-3s3-15-5-17S492,699.89,478,711.89Z"/><path class="cls-2" d="M430,706.89v13l36-3s3-15-5-17S444,694.89,430,706.89Z"/><path class="cls-50" d="M505.53,572.4s-1.7,95.49-7.7,138.49l-20,3-19-94s-5,71-9,89l-20,1s-17.35-107.12-13.18-133.06Z"/><path class="cls-13" d="M493.83,462.89s0-11-2-13-21,8-27,9-14-5-14-5l-16.41-6.51s-10.59,7.51-11.59,13.51-1,22,14,25S466.83,481.89,493.83,462.89Z"/><path class="cls-3" d="M593.46,561.56,573,510.05a3.54,3.54,0,0,0-4.34-2.08L495,530.71a3.54,3.54,0,0,0-2.29,4.45,3.31,3.31,0,0,0,.29.67l28.84,51.36A3.54,3.54,0,0,0,524.9,589h.33a3.49,3.49,0,0,0,1.16-.2l64.94-22.58a3.53,3.53,0,0,0,2.19-4.5Z"/><path class="cls-4" d="M500.83,533.89l27,54,71-24s-10-52-13-54l-46,13-10-8-26,8Z"/><path class="cls-51" d="M520,667.82s37-12,45-21c0,0,23,32,45,31,0,0-23,30-36,34C574,711.82,535,700.82,520,667.82Z"/><path class="cls-52" d="M1045,141.82s37-12,45-21c0,0,23,32,45,31,0,0-23,30-36,34C1099,185.82,1060,174.82,1045,141.82Z"/><polygon class="cls-2" points="546 739.82 546 772.82 484 759.82 546 739.82"/><polygon class="cls-3" points="484 759.82 536 722.82 546 739.82 484 759.82"/><polygon class="cls-3" points="561 766.82 484 759.82 550 745.82 561 766.82"/><polygon class="cls-2" points="1500 515.82 1500 548.82 1438 535.82 1500 515.82"/><polygon class="cls-3" points="1438 535.82 1490 498.82 1500 515.82 1438 535.82"/><polygon class="cls-3" points="1515 542.82 1438 535.82 1504 521.82 1515 542.82"/><path class="cls-53" d="M310.58,308.57s-26,78,21,148,143,54,143,54-36.69,76.51-177,51c-162.58-29.57-151-174-151-174Z"/><path class="cls-6" d="M1362,681s-42.93-23.3-63-11l-32,73s38.21-3.64,65,19Z"/><path class="cls-6" d="M1245.91,634.45s47.8,15,52.7,37.48L1267,743s-27.08-36-63-40Z"/><path class="cls-54" d="M1251.19,629.83s44,16,49,39l-32,75s-22.25-38.63-57.13-42.31Z"/><path class="cls-55" d="M1361.79,678.78s-41.44-21.8-61.82-10L1268,744s41.55-10.64,67.73,12.69Z"/><path class="cls-56" d="M1240.47,141.54a13.82,13.82,0,0,1-.74,4.46H1082a17.38,17.38,0,0,1,26.52-14.77,23.09,23.09,0,0,1,32.92-13.86,32,32,0,0,1,59.39-2.49,22.72,22.72,0,0,1,2.85-.18,23.1,23.1,0,0,1,20.93,13.3,14.19,14.19,0,0,1,2.16-.17,13.69,13.69,0,0,1,13.7,13.68Z"/><path class="cls-56" d="M361.47,383.54a13.82,13.82,0,0,1-.74,4.46H203a17.38,17.38,0,0,1,26.52-14.77,23.09,23.09,0,0,1,32.92-13.86,32,32,0,0,1,59.39-2.49,22.72,22.72,0,0,1,2.85-.18A23.1,23.1,0,0,1,345.61,370a14.19,14.19,0,0,1,2.16-.17,13.69,13.69,0,0,1,13.7,13.68Z"/><path class="cls-57" d="M1202.74,226s-9.36-57.73,54.61-51.49c0,0-1.56-31.21,29.65-32.77,0,0,4.68-71.78,82.7-67.1s81.14,84.26,81.14,84.26,29.65,3.13,31.21,32.77c0,0,18.72,12.48,15.6,34.33Z"/><polygon class="cls-2" points="438.44 572.33 418.86 591.21 391.11 546.98 438.44 572.33"/><polygon class="cls-3" points="391.11 546.98 442.81 556.67 438.44 572.33 391.11 546.98"/><polygon class="cls-3" points="431 596.67 391.11 546.98 437.17 578.13 431 596.67"/><polygon class="cls-21" points="910 201 910 179 924.14 190 910 201"/><polygon class="cls-21" points="932.39 201 932.39 179 946.54 190 932.39 201"/><polygon class="cls-21" points="954.79 201 954.79 179 968.93 190 954.79 201"/><polygon class="cls-21" points="977.18 201 977.18 179 991.32 190 977.18 201"/><circle class="cls-58" cx="1007.82" cy="190.26" r="10.08"/><polygon class="cls-21" points="1163.69 806.42 1153.43 777.17 1177.37 785.2 1163.69 806.42"/><polygon class="cls-4" points="1479.34 751.99 1466.43 715.17 1496.56 725.28 1479.34 751.99"/><polygon class="cls-3" points="1437.84 680.96 1408.48 690.91 1416.77 667.06 1437.84 680.96"/><polygon class="cls-5" points="836.01 736.52 840.17 705.8 857.84 723.84 836.01 736.52"/><polygon class="cls-5" points="690.4 756.33 706.97 731.58 714.59 754.61 690.4 756.33"/><polygon class="cls-21" points="1519.2 207.41 1539.87 184.3 1544.39 209.14 1519.2 207.41"/><polygon class="cls-21" points="422.19 221.51 433.08 192.49 446.29 214 422.19 221.51"/><polygon class="cls-59" points="1433.66 252.33 1411.13 218.01 1444.45 220.69 1433.66 252.33"/><polygon class="cls-3" points="1538.91 575.42 1547.96 545.77 1562.49 566.41 1538.91 575.42"/><circle class="cls-60" cx="1560.07" cy="536.1" r="24.43"/><circle class="cls-61" cx="1118.25" cy="735.1" r="18.25"/><circle class="cls-61" cx="953.25" cy="607.1" r="18.25"/><circle class="cls-61" cx="420.25" cy="226.1" r="18.25"/><rect class="cls-28" x="1155" y="323" width="211" height="6"/><rect class="cls-28" x="1365" y="287" width="61" height="6"/><rect class="cls-28" x="1360" y="226" width="6" height="103"/><rect class="cls-28" x="1422" y="287" width="6" height="80"/><rect class="cls-28" x="1181" y="329" width="6" height="171"/><circle class="cls-15" cx="1363" cy="226" r="9"/><circle class="cls-5" cx="1184" cy="507" r="9"/><path class="cls-15" d="M1155,317a9,9,0,0,1,0,18"/><path class="cls-3" d="M444.19,270H354a11.44,11.44,0,0,0-11.44,11.44h0V331.7A11.44,11.44,0,0,0,354,343.14h48.41v28.18L430,343.14h14.13a11.44,11.44,0,0,0,11.44-11.44h0V281.42A11.44,11.44,0,0,0,444.19,270Z"/><path class="cls-15" d="M375.9,323.14l-13.07-13.08a1.91,1.91,0,0,1,0-2.7h0l12.71-12.71,2.71,2.71-11.36,11.36,11.72,11.72Z"/><path class="cls-15" d="M422,323.77l-2.71-2.71,12-12-12-12,2.71-2.7,13.35,13.35a1.91,1.91,0,0,1,0,2.71Z"/><rect class="cls-15" x="374.55" y="307.02" width="50.84" height="3.83" transform="translate(-44.94 548.67) rotate(-66)"/><path class="cls-15" d="M1218.6,206h-55.45a7,7,0,0,0-7,7v31a7,7,0,0,0,7,7h29.77v17.33l17-17.33h8.69a7,7,0,0,0,7-7V213a7,7,0,0,0-7-7Z"/><rect class="cls-15" x="1389.05" y="369.91" width="72.81" height="127.09" rx="11.48"/><rect class="cls-3" x="1392.93" y="384.24" width="65.04" height="99.49"/><path class="cls-62" d="M1425.45,485.63a4.55,4.55,0,1,1-4.55,4.55,4.55,4.55,0,0,1,4.55-4.55Z"/><rect class="cls-2" x="1414.43" y="376.11" width="22.05" height="2.65" rx="1.31"/><path class="cls-56" d="M1401.57,350s-6-36.95,35-32.95c0,0-1-20,19-21,0,0,3-45.94,52.92-42.94S1560.42,307,1560.42,307s19,2,20,21c0,0,12,8,10,22Z"/><path class="cls-1" d="M1511.37,290.54a15.3,15.3,0,0,0-2.78-.26,16.25,16.25,0,0,0-2.79.24,15.55,15.55,0,0,0,.07,30.62,15.16,15.16,0,0,0,5.29,0,15.55,15.55,0,0,0,.21-30.62Z"/><path class="cls-1" d="M1510.56,294.94a12.2,12.2,0,0,0-2-.19,11.12,11.12,0,0,0-11,13,11.07,11.07,0,0,0,9,9,10.85,10.85,0,0,0,3.77,0,11.07,11.07,0,0,0,.15-21.8Z"/><path class="cls-1" d="M1534.25,316.31l4.7,1,2-9.93-4.7-1a27.78,27.78,0,0,0-2.16-11.31l4-2.64-5.57-8.47-4,2.64a27.75,27.75,0,0,0-7.26-5.43c-.7-.36-1.44-.7-2.18-1H1519l1-4.7-9.93-2.05-1,4.71a26.59,26.59,0,0,0-3.09.1,27.86,27.86,0,0,0-8.23,2l-2.64-4-8.46,5.57,2.63,4a27.61,27.61,0,0,0-6.47,9.53l-4.7-1L1476,304.3l4.7,1a27.66,27.66,0,0,0,2.16,11.32l-4,2.64,5.56,8.46,4-2.63a27.65,27.65,0,0,0,9.54,6.47l-1,4.71,9.92,2,1-4.7a29.2,29.2,0,0,0,3.1-.11,27.79,27.79,0,0,0,8.22-2l2.64,4,8.47-5.57-2.64-4A27.56,27.56,0,0,0,1534.25,316.31Zm-23.83,9.93a20.14,20.14,0,0,1-6-.35,20.49,20.49,0,0,1,8.3-40.13,21.19,21.19,0,0,1,5.56,2,20.5,20.5,0,0,1-7.84,38.47Z"/><path class="cls-1" d="M1369.69,136.87a19.88,19.88,0,0,0-3.69-.35,20.63,20.63,0,0,0-3.61,40.95,20.07,20.07,0,0,0,7,0,20.63,20.63,0,0,0,.28-40.62Z"/><path class="cls-1" d="M1368.61,142.7a16.47,16.47,0,0,0-2.62-.24,14.69,14.69,0,0,0-2.58,29.16,13.92,13.92,0,0,0,2.5.22,14.69,14.69,0,0,0,2.7-29.14Z"/><path class="cls-1" d="M1400,171.07l6.24,1.29,2.72-13.17-6.24-1.29a37,37,0,0,0-2.86-15l5.32-3.5-7.39-11.24-5.32,3.5a37.09,37.09,0,0,0-9.63-7.2c-.94-.48-1.91-.93-2.9-1.34h-.12l1.3-6.24L1368,114.1l-1.29,6.25a35,35,0,0,0-4.1.14,36.48,36.48,0,0,0-10.92,2.72l-3.5-5.33L1337,125.27l3.49,5.32a36.68,36.68,0,0,0-8.58,12.65l-6.24-1.3L1323,155.11l6.23,1.29a36.57,36.57,0,0,0,2.87,15l-5.32,3.5,7.38,11.23,5.33-3.49a36.68,36.68,0,0,0,12.65,8.58l-1.29,6.24,13.16,2.73,1.28-6.24a37.63,37.63,0,0,0,4.11-.14,36.36,36.36,0,0,0,10.91-2.73l3.51,5.33L1395,189l-3.5-5.32A36.78,36.78,0,0,0,1400,171.07Zm-31.62,13.17a27.2,27.2,0,0,1-4.94-54.17,26.87,26.87,0,0,1,8,.46,27.19,27.19,0,0,1-3,53.71Z"/><path class="cls-5" d="M1416,370.51a9,9,0,0,1,18,0"/><path class="cls-3" d="M377.9,458.78,361,418.19a2.83,2.83,0,0,0-3.47-1.59l-58.14,19a2.8,2.8,0,0,0-1.8,3.53,2.73,2.73,0,0,0,.25.55L321.39,480a2.8,2.8,0,0,0,2.48,1.39h.26a2.93,2.93,0,0,0,.92-.17l51.21-18.78a2.79,2.79,0,0,0,1.68-3.58A.56.56,0,0,0,377.9,458.78Z"/><path class="cls-4" d="M304.06,438.06l22.13,42.48,56-20s-8.62-41.11-11-42.66L334.88,428.8l-8-6.21L306.3,429.3Z"/><rect class="cls-2" x="1403.13" y="451.28" width="40.15" height="6.49"/><rect class="cls-2" x="1473.38" y="451.28" width="28.44" height="6.49"/><rect class="cls-2" x="1448.29" y="451.28" width="18.4" height="6.49"/><rect class="cls-2" x="1461.68" y="435.04" width="40.14" height="6.49"/><rect class="cls-2" x="1403.13" y="435.04" width="28.44" height="6.49"/><rect class="cls-2" x="1438.26" y="435.04" width="18.4" height="6.49"/><rect class="cls-2" x="1403.13" y="415.56" width="40.15" height="6.49"/><rect class="cls-2" x="1473.38" y="415.56" width="28.44" height="6.49"/><rect class="cls-2" x="1448.29" y="415.56" width="18.4" height="6.49"/><rect class="cls-2" x="1461.68" y="399.33" width="40.14" height="6.49"/><rect class="cls-2" x="1403.13" y="399.33" width="28.44" height="6.49"/><rect class="cls-2" x="1438.26" y="399.33" width="18.4" height="6.49"/><rect class="cls-2" x="465.21" y="136.94" width="136.79" height="110.72"/><rect class="cls-3" x="477.64" y="149.9" width="112.69" height="84.51"/><path class="cls-63" d="M570.08,206.13l-3.07,5.3-44.76-25.8L477.64,208.8v-6.92l43.29-22.45a3,3,0,0,1,2.93.06Z"/><path class="cls-63" d="M590.33,192.17v7.3L569.53,186l-12.89,11.45-2.52,2.23-4.06-4.56,1-.89,16.16-14.34a3,3,0,0,1,3.7-.29Z"/><path class="cls-15" d="M555.89,167.25a10.71,10.71,0,1,1-10.72-10.7h0A10.72,10.72,0,0,1,555.89,167.25Z"/><path class="cls-4" d="M174.86,428.74c2.36,4.36,3.36,9.2,4.07,14.13.32,2.48.49,5,.57,7.57a37.49,37.49,0,0,1-.41,7.92c-.93,5.5-3.89,11.7-5.11,17.31a19.76,19.76,0,0,0,2.44,14.69,31.82,31.82,0,0,0,4.78,6.12c1.91,1.93,4.06,3.78,6.12,5.66A46.27,46.27,0,0,1,193,508a20.8,20.8,0,0,1,3.55,6.54,20.18,20.18,0,0,1,.82,3.6,13.21,13.21,0,0,1,0,3.87c-.43,2.74-2.08,5.9-4.58,9.36-5.15,7-12.89,14.81-14.49,20.55a9.41,9.41,0,0,0,.72,7.52,17,17,0,0,0,5.07,6A26.57,26.57,0,0,0,188,568c.73.39,1.41.8,2.19,1.18l2.39,1.12c3.12,1.51,6.53,2.92,9.74,4.4a48,48,0,0,1,8.43,4.86,20.93,20.93,0,0,1,5.45,5.88c2.65,4.26,2.64,9.45,1.09,15.16-1.39,5.67-3.24,11.49-2,16.23a17.58,17.58,0,0,0,3.37,6.61,58,58,0,0,0,5.06,6A63.89,63.89,0,0,0,237.5,640.2a75.88,75.88,0,0,0,20.64,8.4,17.71,17.71,0,0,0,18.28-6.32,76,76,0,0,0,11-19.36,64,64,0,0,0,4.21-17,59,59,0,0,0,.26-7.87,17.61,17.61,0,0,0-1.44-7.27c-1.94-4.51-7-7.94-11.59-11.53s-8-7.61-8.5-12.6a21,21,0,0,1,.65-8,48.7,48.7,0,0,1,3.63-9c1.6-3.14,3.41-6.36,4.94-9.47l1.19-2.36c.38-.78.65-1.52,1-2.28a26.13,26.13,0,0,0,1.47-4.4,17.11,17.11,0,0,0,.27-7.86,9.45,9.45,0,0,0-4.09-6.36c-4.8-3.52-15.73-4.92-24.09-7.21-4.09-1.17-7.34-2.64-9.37-4.53a12.82,12.82,0,0,1-2.36-3.07,20.34,20.34,0,0,1-1.59-3.33,21.42,21.42,0,0,1-1.24-7.35,47.39,47.39,0,0,1,.84-8.06c.45-2.74,1-5.52,1.31-8.22a30.62,30.62,0,0,0,0-7.77,19.73,19.73,0,0,0-7.15-13.06c-4.43-3.65-10.59-6.7-14.72-10.46a37.71,37.71,0,0,1-5.21-6c-1.52-2.07-3-4.16-4.23-6.31-2.49-4.32-4.69-8.74-5.52-13.63a16.75,16.75,0,0,0-33.21,4.4c.06.41.12.82.21,1.23A17.06,17.06,0,0,0,174.86,428.74Z"/><path class="cls-1" d="M232.1,550.34l-24.58-12a2.17,2.17,0,1,1,1.79-4l.11.05,20.67,10-21.43-62-18.79-9.14a2.17,2.17,0,1,1,1.68-4l.21.1,14.89,7.23L198.78,454a2.17,2.17,0,0,1,4.1-1.42l10.78,31.17,9.67-19.88a2.17,2.17,0,0,1,3.9,1.9l-11.56,23.79L237,551.32l13.74-28.27a2.17,2.17,0,1,1,3.91,1.9L239,557.12l20.67,59.78,11.44-23.53a2.17,2.17,0,0,1,3.9,1.9l-13.33,27.44,37.9,109.6a2.17,2.17,0,0,1-4.11,1.42h0L255.13,616.94l-22.21-10.79a2.17,2.17,0,0,1,1.9-3.91l18.3,8.9Z"/><polygon class="cls-21" points="242.14 535 242.14 513 256.29 524 242.14 535"/><polygon class="cls-21" points="264.54 535 264.54 513 278.68 524 264.54 535"/><polygon class="cls-21" points="286.93 535 286.93 513 301.07 524 286.93 535"/><polygon class="cls-21" points="309.32 535 309.32 513 323.46 524 309.32 535"/><circle class="cls-58" cx="339.96" cy="524.26" r="10.08"/><path class="cls-2" d="M818.92,763.86a14.61,14.61,0,0,1-2.3,4q-2.29,3.12-2.71,3.78-3.12,5.75-9.85,17.08a112.49,112.49,0,0,1-6.81,9q-5.67,7-7,8.78a70.15,70.15,0,0,0,20.11-5.83q6.5-3,6.57-3c.11,0,.16.11.16.32,0,.61-.73,1.24-2.21,1.89q-3.12,1.65-9.36,4.85a52.84,52.84,0,0,1-8.21,3.28q-1.65.5-12.32,4.76a236.44,236.44,0,0,1-20.11,19.3q-16.26,14.19-21.43,14.2a2.85,2.85,0,0,1-2.42-1.36,4.87,4.87,0,0,1-.94-2.83c0-1.15.65-3.09,2-5.83a85.87,85.87,0,0,1,4.51-8.54,28.94,28.94,0,0,1,6.16-7.38q4.51-3.78,17.16-9.28,3.93-1.72,14-3.61,8.77-8.06,19.12-23-8.2,5.34-13.46,5.33c-4.16,0-6.24-.84-6.24-2.54q0-3.19,4.1-9.28t4.11-11.41a3.31,3.31,0,0,0-1.81-2.87,6.81,6.81,0,0,0-3.44-.91c-.5,0-1.28.06-2.34.17s-1.88.16-2.43.16a11.29,11.29,0,0,0-6.73,2.71q-3.85,2.79-3.86,5.91a2.64,2.64,0,0,0,1.73,2.3,6.13,6.13,0,0,0,2.87.74c.44,0,1.25-.79,2.42-2.38s2-2.37,2.62-2.37c.33,0,.49.25.49.74a8.7,8.7,0,0,1-1.8,4.35q-1.89,3-3.45,2.95a8.52,8.52,0,0,1-5.17-2.09q-2.71-2.09-2.71-4.47c0-1.86,1.17-4,3.53-6.49q4.85-5.09,13.79-5.09,11.25,0,11.25,6.16,0,2.7-4.27,9.44T788,783.73c0,1,1.18,1.56,3.53,1.56q6,0,13.22-7.06a49,49,0,0,0,9.52-13.14c.88-1.8,1.59-2.71,2.14-2.71C818.4,762.38,819.25,762.88,818.92,763.86Zm-42.53,51.23a22.4,22.4,0,0,0-12.23,3.61q-2.29,1.32-10.34,7.56-9,6.88-9,15.76a180.06,180.06,0,0,0,17.81-13.55,131.71,131.71,0,0,0,13.76-13.38Z"/><path class="cls-2" d="M837.47,799.08a.46.46,0,0,1-.16.33q-.82,1.56-5.58,2.3a10,10,0,0,0-3.61,1.23l-3,2.3a24.58,24.58,0,0,1-7.14,3.12,22.31,22.31,0,0,1-3.94,1q-3,0-3-3.46,0-2.31,3.61-6.43a6.76,6.76,0,0,0,1.15-1.4,11.41,11.41,0,0,1,.91-2.4,8.26,8.26,0,0,1,2-2,7,7,0,0,1,3.44-1A11.5,11.5,0,0,1,828,791a3.44,3.44,0,0,1,2.55,1.23A6.31,6.31,0,0,1,834,791c.43,0,.65.32.65,1a13,13,0,0,1-.94,4.27,7.72,7.72,0,0,1-2,3.45l-.66.49h.25a8.51,8.51,0,0,0,1.31-.08,8.91,8.91,0,0,1,1.36-.08,3.79,3.79,0,0,0,1.64-.66,3.83,3.83,0,0,1,1.68-.66A.47.47,0,0,1,837.47,799.08Zm-7.88-2c0-.44-.55-1-1.65-1.78a5.4,5.4,0,0,0-2.31-1.11c-.61,0-1.74.57-3.39,1.73a24.87,24.87,0,0,0-3.13,2.57q-4,3.79-4,6.36c0,.88.53,1.32,1.57,1.32a7,7,0,0,0,1.82-.33,31.85,31.85,0,0,0,6.27-2.23,12.6,12.6,0,0,0,4.38-5,3.16,3.16,0,0,0,.44-1.56Z"/><path class="cls-2" d="M870.48,798.59a1.91,1.91,0,0,1-.08.49c-.44.88-2.14,1.75-5.1,2.63a22.79,22.79,0,0,1-6,1.23,3.14,3.14,0,0,1-1.52-.2,2.55,2.55,0,0,1-.2-1.36,2,2,0,0,0-.41-1.15h-.33a2.7,2.7,0,0,0-1.31.53c-.55.36-1,.7-1.48,1a29.65,29.65,0,0,1-7.27,2.14,45,45,0,0,1-7.92,1.15c-2.41,0-3.61-.94-3.61-2.8a4.79,4.79,0,0,1,.41-2.21q.9-1.72,7.72-5.54t8.86-3.82c.33,0,.49.22.49.65q0,1.49-6.56,5t-6.57,5.83c0,1,.63,1.48,1.89,1.48q7.47,0,15-6.24c1.53-2.74,3.53-4.1,6-4.1,1.48,0,2.22.27,2.22.82a50.7,50.7,0,0,0-5.09,5.17,1.36,1.36,0,0,0,1.48,1.56c3.72,0,6.68-.77,8.86-2.3Z"/><path class="cls-2" d="M889.11,742c0,.61-.65,1.76-2,3.45-1.8,2.19-2.71,3.31-2.71,3.37q-1.3,2.13-2.7,4.35a16,16,0,0,1-3.37,3.69,1.32,1.32,0,0,1-.82.33c-.44,0-.66-.13-.66-.41,0,0,.52-.81,1.56-2.26s1.61-2.28,1.73-2.5c.49-1,1.25-2.49,2.29-4.52.33-.76.88-1.94,1.65-3.53a7.21,7.21,0,0,1,1.76-2.09,3.67,3.67,0,0,1,2.18-1.11C888.76,740.79,889.11,741.2,889.11,742Z"/><path class="cls-2" d="M915.88,798.1q0,1.06-6.08,4.35c-.77.16-1.91.46-3.45.9l-4.68,2a14.1,14.1,0,0,1-4.92,1.07,1.17,1.17,0,0,1-1.32-1,.91.91,0,0,1,0-.33q0-1.25,6.24-9l.17-.58a1.67,1.67,0,0,0-1.42-1.89,1.85,1.85,0,0,0-.47,0q-1.16,0-4.56,3.29c-2.27,2.19-4,3.4-5.29,3.61-.11.06-.22,0-.33-.25s.05-.32.33-.65c.87-.61,2.21-1.56,4-2.88,1.7-1.69,3.37-3.42,5-5.17q3.12-3,6.24-3a2.15,2.15,0,0,1,1.52.7,2.2,2.2,0,0,1,.69,1.6c0,1.59-.84,3.63-2.54,6.12s-2.55,4-2.55,4.56c-.16.49-.16.76,0,.82a7.27,7.27,0,0,0,1.4.08q3.85,0,9.11-3.37c1-.6,1.75-1,2.3-1.31a2.84,2.84,0,0,1,.49-.17C915.85,797.6,915.88,797.77,915.88,798.1Z"/><path class="cls-2" d="M937.39,798.75c0,.28-.31.61-.91,1-.82.6-1.28,1-1.39,1.07a4.24,4.24,0,0,1-.82.49,20.31,20.31,0,0,1-11.5,3.45q-5.25,0-5.58-7.23c-1.81,1.81-3.31,2.82-4.52,3-.16,0-.24,0-.24-.16s.41-.61,1.23-1.32c1.15-.93,2.47-2,3.94-3.36a11.54,11.54,0,0,0,1.31-2.8,7.19,7.19,0,0,1,1.65-2.62,28.82,28.82,0,0,1,4.18-3.45,9.55,9.55,0,0,1,5.18-1.4q5.33,0,5.33,3.12,0,1.89-3.94,5.09a24.13,24.13,0,0,1-5.75,3.78,51.4,51.4,0,0,0-5.17,2.38,1.31,1.31,0,0,0-.16.82c0,.55.46,1,1.39,1.4a5.44,5.44,0,0,0,2.14.49,20.74,20.74,0,0,0,9.36-2.3,24.77,24.77,0,0,1,4-1.81A.31.31,0,0,1,937.39,798.75Zm-6.33-8.45a1.06,1.06,0,0,0-.41-1.27,2.26,2.26,0,0,0-1.47-.54,7.08,7.08,0,0,0-3.41.74,11,11,0,0,0-3.08,3A7.1,7.1,0,0,0,921,795.8c0,.22.21.44.65.66a4.37,4.37,0,0,0,2.63-1,29.44,29.44,0,0,0,5-3A12.33,12.33,0,0,0,931.06,790.3Z"/><path class="cls-2" d="M1083.36,757.54c0,1.53-.91,3.46-2.71,5.79s-3.45,3.49-4.93,3.49c-.44,0-.66-.17-.66-.49q0-1.23,2.79-3.55c1.87-1.55,2.8-3,2.8-4.28,0-2.56-2.44-3.83-7.31-3.83q-17.49,0-39.74,13.94a142.69,142.69,0,0,0-32.75,27.79q-3,3.45-3.29,3.94a16.54,16.54,0,0,0-1.47,5,36.14,36.14,0,0,1-.83,3.85,22.59,22.59,0,0,1-3.2,6.4q-3,4.51-4.92,4.51c-1.54,0-2.3-.9-2.3-2.71a16.07,16.07,0,0,1,2.71-8.46q2.46-3.76,5-7.47a18.63,18.63,0,0,0,2.71-9.44,29.88,29.88,0,0,0-.49-6.4q-4,3.38-13.21,11.67-4.75,4.49-14.78,12.88a1.88,1.88,0,0,1-1,.32c-.93,0-1.4-.62-1.4-1.87a2.18,2.18,0,0,1,1.11-1.88,23.28,23.28,0,0,1,2.26-1.39,35.35,35.35,0,0,0,4-3q4.93-4.08,8.79-7.43,6-5.26,8.29-7.48,5.58-5.25,7.23-8a12.85,12.85,0,0,0,1.23-4.11Q999,765.9,1008,757.68q2.29-2.13,4-2.13a2.76,2.76,0,0,1,2,.78,2.42,2.42,0,0,1,.82,1.85q0,2.87-6.24,11.08-7.8,10.18-8.37,11.25c-1,1.8-1.49,4.4-1.48,7.8v5.82c1-.6,2.83-2.43,5.5-5.5a106.58,106.58,0,0,1,14.7-13.87q9-7.14,25-15.11a96.51,96.51,0,0,1,13.38-5.66,49.73,49.73,0,0,1,14.45-2Q1083.36,751.89,1083.36,757.54Zm-91.87,52.21a.92.92,0,0,0-.74-.9c-.55.11-1.21,1.12-2,3s-1,3-.74,3.12c.49-.11,1.19-.88,2.09-2.3A7.05,7.05,0,0,0,991.49,809.75Zm17-46a.94.94,0,0,0-.79-1.07h-.28c-.82,0-1.56.8-2.21,2.38a21,21,0,0,1-1.64,3.37,3.17,3.17,0,0,0-1.07,2c0,.88.27,1.31.82,1.31.16,0,.63-.57,1.4-1.72a21,21,0,0,1,2.17-3.57,9.89,9.89,0,0,0,1.59-2.67Z"/><path class="cls-2" d="M1045.43,798.75c0,.28-.31.61-.91,1-.82.6-1.28,1-1.39,1.07a4.24,4.24,0,0,1-.82.49,20.31,20.31,0,0,1-11.5,3.45q-5.25,0-5.58-7.23c-1.81,1.81-3.31,2.82-4.52,3-.16,0-.24,0-.24-.16s.41-.61,1.23-1.32q1.72-1.39,3.94-3.36a11.54,11.54,0,0,0,1.31-2.8,7.19,7.19,0,0,1,1.65-2.62,28.82,28.82,0,0,1,4.18-3.45,9.51,9.51,0,0,1,5.17-1.4q5.34,0,5.34,3.12,0,1.89-3.94,5.09a24.13,24.13,0,0,1-5.75,3.78,51.4,51.4,0,0,0-5.17,2.38,1.31,1.31,0,0,0-.16.82c0,.55.46,1,1.39,1.4a5.44,5.44,0,0,0,2.14.49,20.74,20.74,0,0,0,9.36-2.3,24.39,24.39,0,0,1,4-1.81A.31.31,0,0,1,1045.43,798.75Zm-6.33-8.45a1.06,1.06,0,0,0-.41-1.27,2.26,2.26,0,0,0-1.47-.54,7.08,7.08,0,0,0-3.41.74,11,11,0,0,0-3.08,3c-1.15,1.53-1.72,2.71-1.72,3.53,0,.22.21.44.65.66a4.37,4.37,0,0,0,2.63-1,29.44,29.44,0,0,0,5-3,12.61,12.61,0,0,0,1.81-2.12Z"/><path class="cls-2" d="M1079.66,796q0,3.21-6,5.67a23.79,23.79,0,0,1-8.87,2,12.35,12.35,0,0,1-5.5-1.23q-3.12-1.56-3.12-4.19a33.74,33.74,0,0,1-5.09,5.91q-6,5.91-9.44,5.91c-.39,0-.58-.24-.58-.74a1.15,1.15,0,0,1,.74-1.14,18.7,18.7,0,0,0,5.42-3.29,43.36,43.36,0,0,0,5-5.66c2.13-2.9,3.2-5.07,3.2-6.49a1.18,1.18,0,0,0-.08-.49,49.61,49.61,0,0,0-6.49,4.76c-3.12,2.52-5.11,3.78-6,3.78a.51.51,0,0,1-.58-.43.38.38,0,0,1,0-.15c0-.22.09-.33.25-.33a15.07,15.07,0,0,0,3.94-2.46l3.61-2.87a31.82,31.82,0,0,0,3.45-2.3c.44-.49.92-1.06,1.44-1.68a2.1,2.1,0,0,1,1.44-1,3.55,3.55,0,0,1,1.8,3.28v.83a7.92,7.92,0,0,1,2.14-2.1,10.07,10.07,0,0,1,2.94-.78,9.54,9.54,0,0,0,1.53-.37,7.69,7.69,0,0,1,1.78-.29c.37,0,.56.36.56,1.07a5.49,5.49,0,0,1-1.81,3.37c-1.2,1.31-2.27,2-3.2,2s-1.48-.44-1.48-1.31c0-.28.63-.66,1.89-1.15a3.85,3.85,0,0,0,2.38-2,4.19,4.19,0,0,0-1-.09c-1,0-2.91,1.13-5.72,3.37V796a5.17,5.17,0,0,0,2.32,4.44,8.38,8.38,0,0,0,5,1.39,9.27,9.27,0,0,0,3.07-.7,13.79,13.79,0,0,1,2.81-.78,11.52,11.52,0,0,0,1.66-.16,8.09,8.09,0,0,0,3.35-2,4.89,4.89,0,0,0,1.95-3.12c0-.44-.36-.66-1.07-.66a1.62,1.62,0,0,0-1.31.82c-.39.55-.69.82-.91.82a.51.51,0,0,1-.57-.42.38.38,0,0,1,0-.15c0-.44.34-.9,1-1.4a3.22,3.22,0,0,1,1.69-.73,3,3,0,0,1,1.72.73c.44.33.63.61.58.82A5.12,5.12,0,0,1,1079.66,796Z"/><path class="cls-2" d="M1218,767.31c-.22.66-.83,1-1.81,1.15-1.75.27-4.37.7-7.88,1.31a279.2,279.2,0,0,1-33.17,3.12q-5.67.25-19.13,1.81a172.36,172.36,0,0,1-19.13,1.48c-2.57,0-5.86-.19-9.85-.58l-9.85-1a37.42,37.42,0,0,0-9.2,8L1100.1,792a111.26,111.26,0,0,1-10.1,9.44l-6.32,6.16q-4.92,4.68-6.48,4.68c-1.1,0-1.65-.47-1.65-1.4a4.72,4.72,0,0,1,2-3.36,95.75,95.75,0,0,1,8.87-7.47,18.08,18.08,0,0,0,3.7-3.45l3.36-3.78q1.65-1.39,4.6-4.35,1.89-2.13,5.29-6.77t5.3-6.78q-13-3.28-20.77-3.28a64,64,0,0,1-6.49-.49,63.79,63.79,0,0,0-6.48-.5q-23.16,0-23.15,4.6c0,.6.59,1.18,1.76,1.73s1.82,1.12,1.93,1.72a1.26,1.26,0,0,1-1.07.57,13.65,13.65,0,0,1-5.09-1.64q-3.76-1.73-3.77-3.12,0-2.13,10.67-4.35a69,69,0,0,1,13.38-1.07h4q3.45,0,10.47.5c4.68.32,8.2.49,10.55.49a47.2,47.2,0,0,1,8.46,1c4.43.88,7.24,1.4,8.45,1.56l8.87-6.4q3.45-3,7-5.83,4.35-3.36,8.13-3.36c2,0,3,.54,3,1.64q0,2.39-8.37,7.63-5.42,3.21-10.92,6.41c1.75,0,4.57.3,8.46.73a74.57,74.57,0,0,0,8.45.66,92,92,0,0,0,11-.82l11.09-1.31q5.74-.16,17.16-.58,5.41-.24,16.42-1.72,4.92-.57,14.86-2c.21-.06,1.69-.39,4.43-1a18.47,18.47,0,0,1,4.43-.66C1217.5,765.91,1218.32,766.38,1218,767.31Z"/></svg>