<svg xmlns="http://www.w3.org/2000/svg" viewBox="0 0 255.55 72.54"><defs><style>.cls-1{fill:#eaeaea;}.cls-2{fill:none;stroke:#df1c1d;stroke-linecap:round;stroke-miterlimit:10;stroke-width:2.57px;}</style></defs><g id="圖層_2" data-name="圖層 2"><g id="Layer_4" data-name="Layer 4"><path class="cls-1" d="M19.37,21.23a3.64,3.64,0,0,1,2.92-.46c1,.27,1.4.48,1.23.61s.17.53,1.13,1a128.57,128.57,0,0,0,19.18,4.71c1.12.21,1.45.72,1,1.54a1.88,1.88,0,0,1-2.31,1.08Q38.91,29,35.26,28q-1.38-.36-1.38.87c0,.82-.51,1.23-1.54,1.23H11.88c-1,0-1.54-.41-1.54-1.23S9.88,27.74,9,28.15c-2.12.75-4.26,1.44-6.41,2.05a1.83,1.83,0,0,1-2.36-.82c-.45-.78-.1-1.33,1-1.64A79.92,79.92,0,0,0,19.37,21.23ZM3,2.72c0-.82.48-1.23,1.43-1.23H40c1,0,1.54.39,1.54,1.18S41,3.85,40,3.85H25.37c-.86,0-1.29.54-1.29,1.64s.43,1.64,1.29,1.64H42.9a1.36,1.36,0,0,1,1.54,1.54V12.2a1.36,1.36,0,0,1-1.54,1.54,1.38,1.38,0,0,1-1.59-1.54V10.72A1.13,1.13,0,0,0,40,9.44H25.37a1.13,1.13,0,0,0-1.29,1.28v6.36q0,1.53-1.59,1.53c-1.09,0-1.64-.51-1.64-1.53V10.72a1.13,1.13,0,0,0-1.28-1.28H4.91a1.13,1.13,0,0,0-1.29,1.28v2a1.36,1.36,0,0,1-1.53,1.54A1.36,1.36,0,0,1,.55,12.77V8.67A1.36,1.36,0,0,1,2.09,7.13H19.57c.86,0,1.28-.55,1.28-1.64s-.42-1.64-1.28-1.64h-15C3.52,3.85,3,3.47,3,2.72Zm1.18,32.2c0-.89.48-1.33,1.43-1.33H37.16c1,0,1.54.44,1.54,1.33a2.47,2.47,0,0,1-1.54,2.21,100.24,100.24,0,0,1-11,5.17c-.11.14.36.36,1.38.67q1,.21,2.1.57c1.3.37,1.76,1,1.39,1.94a1.54,1.54,0,0,1-2.1.88q-8.48-2.62-16-4.21c-1.13-.24-1.51-.72-1.13-1.43a1.83,1.83,0,0,1,2.15-.93q3.54.72,7.23,1.59a5.08,5.08,0,0,0,2.05-.46q3.39-1.34,7.18-3.28c.92-.65,1.37-1.06,1.33-1.23a4.54,4.54,0,0,0-1.79-.31H5.73C4.7,36.1,4.19,35.71,4.19,34.92ZM6.6,19.64a81.84,81.84,0,0,0,8.56-1.54c1-.24,1.69,0,2,.67s0,1.19-1,1.43c-3,.69-5.88,1.23-8.72,1.64-1,.18-1.64-.1-1.85-.82S5.71,19.74,6.6,19.64Zm-.21-6.87a1.51,1.51,0,0,1,1.8-.87q3.8.45,7.59,1.28c1.3.24,1.77.75,1.43,1.54s-1.11,1.18-2.3.87q-3.6-.87-7.18-1.49C6.6,13.93,6.15,13.49,6.39,12.77Zm16.05,11a3.4,3.4,0,0,0-2.87-.15q-2.87,1.44-5.79,2.67c-.93.3-1.37.7-1.34,1.18a7.48,7.48,0,0,0,1.85.25H29.72c1.17-.1,1.73-.25,1.7-.46a5.33,5.33,0,0,0-1.8-1Zm4.72-4.61c.24-.72.87-1,1.9-.93q4.56.57,9.74,1.59,1.74.32,1.23,1.59a1.47,1.47,0,0,1-2,.82q-5.89-1.32-10.72-2Q26.8,20.2,27.16,19.18Zm1.33-5.33a54.81,54.81,0,0,0,7.85-1.8c1-.31,1.71-.12,2,.56s0,1.24-1.08,1.54a60.58,60.58,0,0,1-8.3,1.9c-1,.17-1.66-.14-1.9-.92S27.37,14,28.49,13.85Z"/><path class="cls-1" d="M53,5.18c0-1.09.47-1.64,1.43-1.64h11A1.36,1.36,0,0,1,67,5.08V40.92a1.36,1.36,0,0,1-1.54,1.54q-1.53,0-1.53-1.08c0-.79-.43-1.18-1.29-1.18H57.36c-.85,0-1.28.45-1.28,1.34s-.51,1.33-1.54,1.33A1.36,1.36,0,0,1,53,41.33ZM63.88,8c0-.93-.4-1.39-1.18-1.39H57.36a1.14,1.14,0,0,0-1.28,1.29V18.41a1.13,1.13,0,0,0,1.28,1.28h5.23a1.14,1.14,0,0,0,1.29-1.28Zm0,16.15c0-.89-.41-1.33-1.24-1.33H57.36a1.13,1.13,0,0,0-1.28,1.28V35.89a1.14,1.14,0,0,0,1.28,1.29h5.23a1.14,1.14,0,0,0,1.29-1.29Zm25-1.18a1.41,1.41,0,0,1,1.59-1.59c1.13,0,1.69.51,1.69,1.54v1.69a1.13,1.13,0,0,0,1.28,1.28h2.92a1.36,1.36,0,0,1,1.54,1.54,1.36,1.36,0,0,1-1.54,1.54H93.41a1.13,1.13,0,0,0-1.28,1.28V41.89A10.47,10.47,0,0,1,91.82,44c-.24,1.4-1.42,2.2-3.54,2.41a39,39,0,0,1-4.87-.26,2.3,2.3,0,0,1-2-1.74l0-.41c-.2-1.13.26-1.56,1.39-1.29A17.67,17.67,0,0,0,88,43a2.08,2.08,0,0,0,.87-1.54V30.2a1.13,1.13,0,0,0-1.28-1.28H70.9a1.36,1.36,0,0,1-1.54-1.54,1.37,1.37,0,0,1,1.54-1.54H87.57a1.13,1.13,0,0,0,1.28-1.28ZM81.93,1.64A1.43,1.43,0,0,1,83.52,0c1.12,0,1.69.51,1.69,1.54V4.1a1.13,1.13,0,0,0,1.28,1.28h9A1.34,1.34,0,0,1,97,6.87a1.34,1.34,0,0,1-1.54,1.49h-9a1.13,1.13,0,0,0-1.28,1.28v4.67a1.13,1.13,0,0,0,1.28,1.28h7.59a1.34,1.34,0,0,1,1.54,1.49,1.36,1.36,0,0,1-1.54,1.53H73.62c-1,0-1.54-.49-1.54-1.48a1.36,1.36,0,0,1,1.54-1.54h7a1.14,1.14,0,0,0,1.29-1.28V9.64a1.14,1.14,0,0,0-1.29-1.28H72.18a1.34,1.34,0,0,1-1.54-1.49,1.34,1.34,0,0,1,1.54-1.49h8.46A1.13,1.13,0,0,0,81.93,4.1ZM73.52,31.69a1.66,1.66,0,0,1,2.41.77,37.36,37.36,0,0,1,2.2,4.15,1.44,1.44,0,0,1-.82,2.21c-1.2.54-2,.2-2.36-1q-.83-2-1.9-4.1C72.58,32.8,72.73,32.13,73.52,31.69Z"/><path class="cls-1" d="M113.56,12.1c.24-1.09.86-1.45,1.85-1.08a1.63,1.63,0,0,1,1.18,2.11,115.33,115.33,0,0,1-6.72,21.94,1.32,1.32,0,0,1-2.15.72c-1.27-.72-1.66-1.6-1.18-2.66A107.46,107.46,0,0,0,113.56,12.1ZM126.49,1.85c0-1.1.47-1.64,1.43-1.64h.67a1.36,1.36,0,0,1,1.54,1.53V42.46A3.36,3.36,0,0,1,127.82,46a24.91,24.91,0,0,1-9.38-.16,2.1,2.1,0,0,1-1.9-1.79l-.1-.46c-.18-1,.25-1.42,1.28-1.18a36.55,36.55,0,0,0,6.15.66c1.4.38,2.27-.25,2.62-1.89ZM140,13.69c-.51-1.19-.27-2,.72-2.51s1.67-.19,2.15.87a139.37,139.37,0,0,1,7.49,21.13,1.67,1.67,0,0,1-1,2.25l-.41.21c-1.2.55-1.94.29-2.21-.77A135.49,135.49,0,0,0,140,13.69Z"/><path class="cls-1" d="M168.58,1c1.3-.44,2.18-.27,2.62.52s.15,1.42-1,1.79a34.51,34.51,0,0,1-5.49,1.18c-.82.14-1.21.75-1.18,1.85s.58,1.74,1.44,1.74h5.43c1,0,1.54.39,1.54,1.18s-.51,1.18-1.54,1.18h-5.28a1.13,1.13,0,0,0-1.28,1.28v.51c.07,1.13.53,1.7,1.38,1.7h5.18c1,0,1.54.41,1.54,1.23s-.51,1.23-1.54,1.23h-5q-1.29,0-1.23,1.59v1a1.18,1.18,0,0,0,1.33,1.29h28.2c.86,0,1.3-.53,1.33-1.59a2.33,2.33,0,0,0,.06-.83c.06-.85-.33-1.28-1.18-1.28h-4.87c-1,0-1.54-.39-1.54-1.18s.51-1.18,1.54-1.18h4.87a1.21,1.21,0,0,0,1.33-1.33l.05-1.18A1.13,1.13,0,0,0,194,10.41h-5c-1,0-1.54-.39-1.54-1.18s.51-1.18,1.54-1.18h5.12c.86,0,1.32-.55,1.39-1.64l.1-1.69a1.13,1.13,0,0,0-1.28-1.28h-4.67c-1,0-1.54-.45-1.54-1.34s.52-1.33,1.54-1.33h7.59c1,0,1.42.53,1.39,1.59L198.12,19a1.14,1.14,0,0,0,1.28,1.29h.67a1.36,1.36,0,0,1,1.54,1.53v3.95a1.34,1.34,0,0,1-1.49,1.54,1.36,1.36,0,0,1-1.54-1.54V24.25A1.13,1.13,0,0,0,197.3,23H161.46a1.13,1.13,0,0,0-1.28,1.28v1.49a1.34,1.34,0,0,1-1.49,1.54,1.36,1.36,0,0,1-1.54-1.54V21.79a1.36,1.36,0,0,1,1.54-1.53H160c.86,0,1.28-.18,1.28-.52L160.59,4.2A1.52,1.52,0,0,1,162,2.41,37.83,37.83,0,0,0,168.58,1Zm-3.64,27q0-1.29,1.44-1.29h26.15c1,0,1.54.48,1.54,1.44a2.19,2.19,0,0,1-1.54,2.1Q187,32.66,183.15,34c-1.1,0-1.49.49-1.18,1.38.1.21.56.31,1.38.31H200c1,0,1.54.44,1.54,1.33S201,38.36,200,38.36H183.2a1.13,1.13,0,0,0-1.28,1.28v3.69a2.8,2.8,0,0,1-2.21,2.46q-1.74.62-6.36.21a2.25,2.25,0,0,1-2.1-1.9c-.14-.92.36-1.28,1.49-1.08a26.46,26.46,0,0,0,3.74.26c1.54.41,2.28-.26,2.21-2V39.64a1.13,1.13,0,0,0-1.29-1.28h-18c-1,0-1.54-.45-1.54-1.34s.51-1.38,1.54-1.38h18c.86,0,1.29-.46,1.29-1.39a1.89,1.89,0,0,1,1.53-1.84q2.84-.87,5.65-1.95,1.49-.36,1.38-1.08a3.1,3.1,0,0,0-1-.25h-19.8C165.46,29.13,164.94,28.73,164.94,28ZM182.38,2q1.63-1.54,2.46-.87c.55.44.34,1.11-.62,2a7.88,7.88,0,0,1-1,.87c-.89.72-.94,1.38-.15,2l.66.46c1.13.89,1.47,1.59,1,2.1s-1.42.41-2.62-.61l-.82-.62a2.32,2.32,0,0,0-2.77,0l-2.46,1.33q-1.53.68-1.95-.15c-.34-.61,0-1.16,1-1.64A14.57,14.57,0,0,0,176.58,6c1-.68.93-1.37-.1-2-1.33-.75-1.81-1.39-1.43-1.9s1.14-.53,2.2.05l1,.62a2.56,2.56,0,0,0,3.07.1A7.94,7.94,0,0,0,182.38,2Zm-.15,9.84c1.05-1,1.77-1.21,2.15-.66s.2,1.31-.82,2.31-1,1.72.05,2.4,1.49,1.46,1,2-1.23.36-2.35-.46l-.67-.46a2.75,2.75,0,0,0-3.08,0,14,14,0,0,1-2,1c-1.13.44-1.86.43-2.2-.05s0-1,.92-1.49a11.25,11.25,0,0,0,1.74-.92c.75-.52.6-1.1-.46-1.75l-.67-.35c-1.12-.59-1.5-1.12-1.12-1.59s1.21-.55,2.3,0l1.85,1a2.73,2.73,0,0,0,2.87-.56Z"/><path class="cls-1" d="M216.53,1.85c0-1.1.48-1.64,1.44-1.64a1.38,1.38,0,0,1,1.59,1.53V8.61a1.13,1.13,0,0,0,1.28,1.29h3.38c1,0,1.54.46,1.54,1.38s-.51,1.39-1.54,1.39h-3.38c-.86,0-1.28.49-1.28,1.48a4.68,4.68,0,0,0,1.33,3,54.74,54.74,0,0,1,3.69,4.61c.92,1.3,1.06,2.45.41,3.44s-1.43,1-2.05-.1a12.32,12.32,0,0,0-2.72-3.8c-.58.07-.8.69-.66,1.85V44.82a1.34,1.34,0,0,1-1.49,1.54,1.36,1.36,0,0,1-1.54-1.54V24.72c0-.65-.21-.94-.62-.88a6,6,0,0,0-.92,1.85,33.59,33.59,0,0,1-3.18,6.77q-1.08,1.63-2.1.72a2,2,0,0,1-.05-2.77A49.61,49.61,0,0,0,216.22,14c.07-.89-.29-1.33-1.07-1.33H211.5c-1,0-1.53-.47-1.53-1.39s.51-1.38,1.53-1.38h3.75a1.14,1.14,0,0,0,1.28-1.29Zm29.38,20.71q.72-1.89,2.16-.87a2,2,0,0,1,.66,2.67,46.81,46.81,0,0,1-4.61,8.51c-.52.79-.24,1.74.82,2.87a37.29,37.29,0,0,0,9.18,6.41c1,.48,1.23,1.25.61,2.31a1.67,1.67,0,0,1-2.61.77,47.18,47.18,0,0,1-9.49-7.39c-.82-.82-1.71-.71-2.67.31a45.42,45.42,0,0,1-10.87,7.59,1.61,1.61,0,0,1-2.3-.67,1.43,1.43,0,0,1,.66-2.2A40,40,0,0,0,239,34.1a6.56,6.56,0,0,0-1.18-1.85,61.1,61.1,0,0,1-4.66-7.69,1.74,1.74,0,0,1,.51-2.41c.82-.61,1.49-.37,2,.72A51.16,51.16,0,0,0,240,30.05c.79.89,1.54.79,2.26-.31A48.4,48.4,0,0,0,245.91,22.56Zm-13.38-9c1-1.27,1.9-1.62,2.72-1.08s.78,1.42,0,2.51a34.61,34.61,0,0,1-5.08,5.39c-1.06.75-1.95.72-2.67-.1s-.46-1.63.57-2.41A36.29,36.29,0,0,0,232.53,13.59ZM239.76.72a1.26,1.26,0,0,0,.61-.16c1-.17,1.63.31,2,1.44a29.48,29.48,0,0,1,1,3.64A1.45,1.45,0,0,0,244.89,7H254c1,0,1.54.47,1.54,1.39S255,9.79,254,9.79H229.4c-1,0-1.54-.46-1.54-1.38S228.38,7,229.4,7h9.33c.86,0,1.17-.54.93-1.64l-.77-2.46C238.34,1.68,238.63,1,239.76.72Zm7.59,14.2c-1-1.09-1.16-1.9-.41-2.41s1.93-.27,3.23,1,2.51,2.73,3.64,4.1c.89,1.06,1,2,.26,2.77s-1.63.72-2.41-.31C250.36,18.39,248.92,16.67,247.35,14.92Z"/><path class="cls-1" d="M38.85,71a4.59,4.59,0,0,1-1.48-.63c-.3-.23-.45-.44-.45-.62a1.65,1.65,0,0,1,.36-.86c.24-.34.44-.52.6-.52a1.38,1.38,0,0,1,.45.2,7,7,0,0,0,1.11.48,4,4,0,0,0,1.27.18,2.33,2.33,0,0,0,1.37-.39,1.36,1.36,0,0,0,.55-1.17,1.3,1.3,0,0,0-.28-.83,2.44,2.44,0,0,0-.7-.56c-.28-.15-.67-.33-1.16-.53l-.64-.28a6.88,6.88,0,0,1-1.39-.77,3.12,3.12,0,0,1-.93-1.09,3.74,3.74,0,0,1-.36-1.74,3.3,3.3,0,0,1,.57-2,3.47,3.47,0,0,1,1.53-1.21,5.58,5.58,0,0,1,2.11-.4,6.25,6.25,0,0,1,1.57.19,3.36,3.36,0,0,1,1.18.48c.26.19.38.37.38.55a1.78,1.78,0,0,1-.3.84c-.21.35-.39.52-.55.52a.81.81,0,0,1-.29-.09l-.31-.15a4,4,0,0,0-1.54-.31,2.21,2.21,0,0,0-1.44.39,1.23,1.23,0,0,0-.46,1,1.32,1.32,0,0,0,.27.86,2.07,2.07,0,0,0,.67.54c.27.13.66.3,1.18.51a11.92,11.92,0,0,1,1.7.81,3.54,3.54,0,0,1,1.15,1.13,3.31,3.31,0,0,1,.49,1.88,3.5,3.5,0,0,1-1.16,2.86,4.49,4.49,0,0,1-2.91.95A8.3,8.3,0,0,1,38.85,71Z"/><path class="cls-1" d="M71,69.66a7.11,7.11,0,0,1-1.45-4.91q0-6.45,6-6.46a9.15,9.15,0,0,1,1.79.19,5,5,0,0,1,1.41.48c.31.17.46.36.46.55a1.51,1.51,0,0,1-.17.57,3.15,3.15,0,0,1-.4.62c-.15.19-.29.28-.41.28a2.3,2.3,0,0,1-.44-.18,4.73,4.73,0,0,0-1-.33,5.24,5.24,0,0,0-1.33-.15,3.21,3.21,0,0,0-2.66,1.09A5.41,5.41,0,0,0,72,64.77a5.41,5.41,0,0,0,.86,3.33,3.12,3.12,0,0,0,2.62,1.11A5.17,5.17,0,0,0,77,69a7.6,7.6,0,0,0,1.18-.46,1.33,1.33,0,0,1,.4-.14.58.58,0,0,1,.41.26,2.43,2.43,0,0,1,.35.61,1.46,1.46,0,0,1,.15.49c0,.28-.21.53-.62.76a5.05,5.05,0,0,1-1.5.51,9.51,9.51,0,0,1-1.82.18A5.79,5.79,0,0,1,71,69.66Z"/><path class="cls-1" d="M104.65,70.62V58.91c0-.35.32-.53,1-.53h.47c.64,0,1,.18,1,.53v4.7h5.47v-4.7c0-.35.32-.53,1-.53H114c.64,0,1,.18,1,.53V70.62c0,.35-.32.53-1,.53h-.48c-.64,0-1-.18-1-.53v-5H107v5c0,.35-.32.53-1,.53h-.47C105,71.15,104.65,71,104.65,70.62Z"/><path class="cls-1" d="M142,69.57a7,7,0,0,1-1.49-4.82A7,7,0,0,1,142,60a6.3,6.3,0,0,1,8.51,0A7,7,0,0,1,152,64.75a7,7,0,0,1-1.48,4.82,6.26,6.26,0,0,1-8.51,0Zm6.7-1.51a5.52,5.52,0,0,0,.84-3.31,5.54,5.54,0,0,0-.83-3.3,2.86,2.86,0,0,0-2.45-1.13,2.91,2.91,0,0,0-2.46,1.13,5.46,5.46,0,0,0-.84,3.3,5.52,5.52,0,0,0,.84,3.31,2.87,2.87,0,0,0,2.46,1.15A2.83,2.83,0,0,0,148.69,68.06Z"/><path class="cls-1" d="M178.45,69.57A7,7,0,0,1,177,64.75a7,7,0,0,1,1.49-4.8,6.3,6.3,0,0,1,8.51,0,7,7,0,0,1,1.48,4.81A7.07,7.07,0,0,1,187,69.57a6.26,6.26,0,0,1-8.51,0Zm6.7-1.51a5.52,5.52,0,0,0,.84-3.31,5.54,5.54,0,0,0-.83-3.3,3.23,3.23,0,0,0-4.91,0,5.46,5.46,0,0,0-.84,3.3,5.52,5.52,0,0,0,.84,3.31,3.18,3.18,0,0,0,4.9,0Z"/><path class="cls-1" d="M213.66,70.93a1.12,1.12,0,0,1-.12-.6v-.27a1.12,1.12,0,0,1,.12-.6.41.41,0,0,1,.37-.18h2.67V60.56L214,61c-.18,0-.31-.14-.39-.43a3.35,3.35,0,0,1-.12-.89q0-.36.42-.45l4.4-.85a1,1,0,0,1,.47.12c.15.09.22.18.22.29v10.5h2.07a.41.41,0,0,1,.37.18,1.12,1.12,0,0,1,.12.6v.27a1.12,1.12,0,0,1-.12.6.41.41,0,0,1-.37.18h-7A.41.41,0,0,1,213.66,70.93Z"/><line class="cls-2" x1="153.62" y1="58.71" x2="139.7" y2="70.82"/><line class="cls-2" x1="189.78" y1="59.15" x2="175.86" y2="71.26"/></g></g></svg>